<svg xmlns="http://www.w3.org/2000/svg" xmlns:xlink="http://www.w3.org/1999/xlink" width="868" zoomAndPan="magnify" viewBox="0 0 651 251.250001" height="335" preserveAspectRatio="xMidYMid meet" version="1.0"><defs><filter x="0%" y="0%" width="100%" height="100%" id="429b52035e"><feColorMatrix values="0 0 0 0 1 0 0 0 0 1 0 0 0 0 1 0 0 0 1 0" color-interpolation-filters="sRGB"/></filter><clipPath id="1cb8711f9d"><path d="M 306 0 L 650.03125 0 L 650.03125 250.503906 L 306 250.503906 Z M 306 0 " clip-rule="nonzero"/></clipPath><mask id="63cad68d50"><g filter="url(#429b52035e)"><rect x="-65.1" width="781.2" fill="#000000" y="-25.125" height="301.500001" fill-opacity="0.53"/></g></mask><clipPath id="2ee2836134"><path d="M 19.5 22.664062 L 58.382812 22.664062 L 58.382812 61.550781 L 19.5 61.550781 Z M 19.5 22.664062 " clip-rule="nonzero"/></clipPath><clipPath id="8a69e5b8b5"><path d="M 80.671875 22.664062 L 119.554688 22.664062 L 119.554688 61.550781 L 80.671875 61.550781 Z M 80.671875 22.664062 " clip-rule="nonzero"/></clipPath><clipPath id="8e6063596c"><path d="M 89.644531 22.664062 L 110.710938 22.664062 C 113.089844 22.664062 115.375 23.609375 117.054688 25.292969 C 118.738281 26.976562 119.683594 29.257812 119.683594 31.636719 L 119.683594 52.707031 C 119.683594 55.085938 118.738281 57.367188 117.054688 59.050781 C 115.375 60.730469 113.089844 61.675781 110.710938 61.675781 L 89.644531 61.675781 C 87.265625 61.675781 84.980469 60.730469 83.300781 59.050781 C 81.617188 57.367188 80.671875 55.085938 80.671875 52.707031 L 80.671875 31.636719 C 80.671875 29.257812 81.617188 26.976562 83.300781 25.292969 C 84.980469 23.609375 87.265625 22.664062 89.644531 22.664062 Z M 89.644531 22.664062 " clip-rule="nonzero"/></clipPath><clipPath id="29c1d675e1"><path d="M 141.371094 22.496094 L 180.257812 22.496094 L 180.257812 61.378906 L 141.371094 61.378906 Z M 141.371094 22.496094 " clip-rule="nonzero"/></clipPath><clipPath id="c41a39611f"><path d="M 19.5 72.28125 L 58.382812 72.28125 L 58.382812 111.164062 L 19.5 111.164062 Z M 19.5 72.28125 " clip-rule="nonzero"/></clipPath><clipPath id="9b699713e7"><path d="M 28.472656 72.28125 L 49.539062 72.28125 C 51.917969 72.28125 54.203125 73.226562 55.882812 74.910156 C 57.566406 76.59375 58.511719 78.875 58.511719 81.253906 L 58.511719 102.320312 C 58.511719 104.703125 57.566406 106.984375 55.882812 108.667969 C 54.203125 110.347656 51.917969 111.292969 49.539062 111.292969 L 28.472656 111.292969 C 26.09375 111.292969 23.8125 110.347656 22.128906 108.667969 C 20.445312 106.984375 19.5 104.703125 19.5 102.320312 L 19.5 81.253906 C 19.5 78.875 20.445312 76.59375 22.128906 74.910156 C 23.8125 73.226562 26.09375 72.28125 28.472656 72.28125 Z M 28.472656 72.28125 " clip-rule="nonzero"/></clipPath><clipPath id="e9988ad845"><path d="M 80.671875 72.28125 L 119.554688 72.28125 L 119.554688 111.164062 L 80.671875 111.164062 Z M 80.671875 72.28125 " clip-rule="nonzero"/></clipPath><clipPath id="64cc922b6e"><path d="M 141.371094 72.28125 L 180.257812 72.28125 L 180.257812 111.164062 L 141.371094 111.164062 Z M 141.371094 72.28125 " clip-rule="nonzero"/></clipPath><clipPath id="ac551773eb"><path d="M 150.34375 72.28125 L 171.414062 72.28125 C 173.792969 72.28125 176.074219 73.226562 177.757812 74.910156 C 179.441406 76.59375 180.386719 78.875 180.386719 81.253906 L 180.386719 102.320312 C 180.386719 104.703125 179.441406 106.984375 177.757812 108.667969 C 176.074219 110.347656 173.792969 111.292969 171.414062 111.292969 L 150.34375 111.292969 C 147.964844 111.292969 145.683594 110.347656 144 108.667969 C 142.316406 106.984375 141.371094 104.703125 141.371094 102.320312 L 141.371094 81.253906 C 141.371094 78.875 142.316406 76.59375 144 74.910156 C 145.683594 73.226562 147.964844 72.28125 150.34375 72.28125 Z M 150.34375 72.28125 " clip-rule="nonzero"/></clipPath><clipPath id="fd65714cf8"><path d="M 19.5 121.765625 L 58.382812 121.765625 L 58.382812 160.648438 L 19.5 160.648438 Z M 19.5 121.765625 " clip-rule="nonzero"/></clipPath><clipPath id="32e631c1cb"><path d="M 141.371094 121.765625 L 180.257812 121.765625 L 180.257812 160.648438 L 141.371094 160.648438 Z M 141.371094 121.765625 " clip-rule="nonzero"/></clipPath><clipPath id="638221feb9"><path d="M 80.523438 121.765625 L 119.40625 121.765625 L 119.40625 160.648438 L 80.523438 160.648438 Z M 80.523438 121.765625 " clip-rule="nonzero"/></clipPath><clipPath id="fe9d994817"><path d="M 89.492188 121.765625 L 110.5625 121.765625 C 112.941406 121.765625 115.222656 122.710938 116.90625 124.394531 C 118.589844 126.078125 119.535156 128.359375 119.535156 130.738281 L 119.535156 151.804688 C 119.535156 154.1875 118.589844 156.46875 116.90625 158.152344 C 115.222656 159.832031 112.941406 160.777344 110.5625 160.777344 L 89.492188 160.777344 C 87.113281 160.777344 84.832031 159.832031 83.148438 158.152344 C 81.46875 156.46875 80.523438 154.1875 80.523438 151.804688 L 80.523438 130.738281 C 80.523438 128.359375 81.46875 126.078125 83.148438 124.394531 C 84.832031 122.710938 87.113281 121.765625 89.492188 121.765625 Z M 89.492188 121.765625 " clip-rule="nonzero"/></clipPath><clipPath id="98cffddf7d"><path d="M 80.671875 171.59375 L 119.554688 171.59375 L 119.554688 210.476562 L 80.671875 210.476562 Z M 80.671875 171.59375 " clip-rule="nonzero"/></clipPath><clipPath id="9e9e4cc523"><path d="M 141.84375 171.59375 L 180.726562 171.59375 L 180.726562 210.476562 L 141.84375 210.476562 Z M 141.84375 171.59375 " clip-rule="nonzero"/></clipPath><clipPath id="be9a11d2c6"><path d="M 150.816406 171.59375 L 171.882812 171.59375 C 174.261719 171.59375 176.542969 172.539062 178.226562 174.21875 C 179.910156 175.902344 180.855469 178.183594 180.855469 180.566406 L 180.855469 201.632812 C 180.855469 204.011719 179.910156 206.292969 178.226562 207.976562 C 176.542969 209.660156 174.261719 210.605469 171.882812 210.605469 L 150.816406 210.605469 C 148.433594 210.605469 146.152344 209.660156 144.46875 207.976562 C 142.789062 206.292969 141.84375 204.011719 141.84375 201.632812 L 141.84375 180.566406 C 141.84375 178.183594 142.789062 175.902344 144.46875 174.21875 C 146.152344 172.539062 148.433594 171.59375 150.816406 171.59375 Z M 150.816406 171.59375 " clip-rule="nonzero"/></clipPath><clipPath id="acca7cb967"><path d="M 202.542969 171.421875 L 241.429688 171.421875 L 241.429688 210.304688 L 202.542969 210.304688 Z M 202.542969 171.421875 " clip-rule="nonzero"/></clipPath><clipPath id="98362bd91c"><path d="M 80.671875 221.210938 L 119.554688 221.210938 L 119.554688 250.503906 L 80.671875 250.503906 Z M 80.671875 221.210938 " clip-rule="nonzero"/></clipPath><clipPath id="1c8ecf6244"><path d="M 89.644531 221.210938 L 110.710938 221.210938 C 113.089844 221.210938 115.375 222.15625 117.054688 223.835938 C 118.738281 225.519531 119.683594 227.800781 119.683594 230.179688 L 119.683594 251.25 C 119.683594 253.628906 118.738281 255.910156 117.054688 257.59375 C 115.375 259.277344 113.089844 260.222656 110.710938 260.222656 L 89.644531 260.222656 C 87.265625 260.222656 84.980469 259.277344 83.300781 257.59375 C 81.617188 255.910156 80.671875 253.628906 80.671875 251.25 L 80.671875 230.179688 C 80.671875 227.800781 81.617188 225.519531 83.300781 223.835938 C 84.980469 222.15625 87.265625 221.210938 89.644531 221.210938 Z M 89.644531 221.210938 " clip-rule="nonzero"/></clipPath><clipPath id="9ce240e860"><path d="M 141.84375 221.210938 L 180.726562 221.210938 L 180.726562 250.503906 L 141.84375 250.503906 Z M 141.84375 221.210938 " clip-rule="nonzero"/></clipPath><clipPath id="473d88930a"><path d="M 146 230 L 176 230 L 176 250.503906 L 146 250.503906 Z M 146 230 " clip-rule="nonzero"/></clipPath><clipPath id="144b629aee"><path d="M 202.542969 221.210938 L 241.429688 221.210938 L 241.429688 250.503906 L 202.542969 250.503906 Z M 202.542969 221.210938 " clip-rule="nonzero"/></clipPath><clipPath id="28de453c2d"><path d="M 211.515625 221.210938 L 232.585938 221.210938 C 234.964844 221.210938 237.246094 222.15625 238.929688 223.835938 C 240.609375 225.519531 241.554688 227.800781 241.554688 230.179688 L 241.554688 251.25 C 241.554688 253.628906 240.609375 255.910156 238.929688 257.59375 C 237.246094 259.277344 234.964844 260.222656 232.585938 260.222656 L 211.515625 260.222656 C 209.136719 260.222656 206.855469 259.277344 205.171875 257.59375 C 203.488281 255.910156 202.542969 253.628906 202.542969 251.25 L 202.542969 230.179688 C 202.542969 227.800781 203.488281 225.519531 205.171875 223.835938 C 206.855469 222.15625 209.136719 221.210938 211.515625 221.210938 Z M 211.515625 221.210938 " clip-rule="nonzero"/></clipPath><clipPath id="6b3314a38d"><path d="M 263.417969 122.042969 L 302.300781 122.042969 L 302.300781 160.925781 L 263.417969 160.925781 Z M 263.417969 122.042969 " clip-rule="nonzero"/></clipPath><clipPath id="7a6dd6ed25"><path d="M 324.585938 122.042969 L 344.03125 122.042969 L 344.03125 160.925781 L 324.585938 160.925781 Z M 324.585938 122.042969 " clip-rule="nonzero"/></clipPath><clipPath id="d1752abaad"><path d="M 333.558594 122.042969 L 354.628906 122.042969 C 357.007812 122.042969 359.289062 122.988281 360.972656 124.667969 C 362.65625 126.351562 363.601562 128.632812 363.601562 131.015625 L 363.601562 152.082031 C 363.601562 154.460938 362.65625 156.742188 360.972656 158.425781 C 359.289062 160.109375 357.007812 161.054688 354.628906 161.054688 L 333.558594 161.054688 C 331.179688 161.054688 328.898438 160.109375 327.214844 158.425781 C 325.53125 156.742188 324.585938 154.460938 324.585938 152.082031 L 324.585938 131.015625 C 324.585938 128.632812 325.53125 126.351562 327.214844 124.667969 C 328.898438 122.988281 331.179688 122.042969 333.558594 122.042969 Z M 333.558594 122.042969 " clip-rule="nonzero"/></clipPath><clipPath id="de4d048fbf"><path d="M 263.417969 171.660156 L 302.300781 171.660156 L 302.300781 210.542969 L 263.417969 210.542969 Z M 263.417969 171.660156 " clip-rule="nonzero"/></clipPath><clipPath id="c41d340dd5"><path d="M 272.386719 171.660156 L 293.457031 171.660156 C 295.835938 171.660156 298.117188 172.605469 299.800781 174.285156 C 301.484375 175.96875 302.429688 178.25 302.429688 180.628906 L 302.429688 201.699219 C 302.429688 204.078125 301.484375 206.359375 299.800781 208.042969 C 298.117188 209.726562 295.835938 210.671875 293.457031 210.671875 L 272.386719 210.671875 C 270.007812 210.671875 267.726562 209.726562 266.042969 208.042969 C 264.363281 206.359375 263.417969 204.078125 263.417969 201.699219 L 263.417969 180.628906 C 263.417969 178.25 264.363281 175.96875 266.042969 174.285156 C 267.726562 172.605469 270.007812 171.660156 272.386719 171.660156 Z M 272.386719 171.660156 " clip-rule="nonzero"/></clipPath><clipPath id="caf637bc81"><path d="M 324.585938 171.660156 L 344.03125 171.660156 L 344.03125 210.542969 L 324.585938 210.542969 Z M 324.585938 171.660156 " clip-rule="nonzero"/></clipPath><clipPath id="e10eb06bb2"><path d="M 329 180 L 344.03125 180 L 344.03125 202 L 329 202 Z M 329 180 " clip-rule="nonzero"/></clipPath><clipPath id="cd24b9e8fb"><path d="M 263.417969 221.144531 L 302.300781 221.144531 L 302.300781 250.503906 L 263.417969 250.503906 Z M 263.417969 221.144531 " clip-rule="nonzero"/></clipPath><clipPath id="869bb8a6e8"><path d="M 268 230 L 298 230 L 298 250.503906 L 268 250.503906 Z M 268 230 " clip-rule="nonzero"/></clipPath><clipPath id="68c0f22c67"><path d="M 324.4375 221.144531 L 344.03125 221.144531 L 344.03125 250.503906 L 324.4375 250.503906 Z M 324.4375 221.144531 " clip-rule="nonzero"/></clipPath><clipPath id="ff9d862b28"><path d="M 333.410156 221.144531 L 354.476562 221.144531 C 356.859375 221.144531 359.140625 222.089844 360.824219 223.769531 C 362.503906 225.453125 363.449219 227.734375 363.449219 230.117188 L 363.449219 251.183594 C 363.449219 253.5625 362.503906 255.84375 360.824219 257.527344 C 359.140625 259.210938 356.859375 260.15625 354.476562 260.15625 L 333.410156 260.15625 C 331.03125 260.15625 328.75 259.210938 327.066406 257.527344 C 325.382812 255.84375 324.4375 253.5625 324.4375 251.183594 L 324.4375 230.117188 C 324.4375 227.734375 325.382812 225.453125 327.066406 223.769531 C 328.75 222.089844 331.03125 221.144531 333.410156 221.144531 Z M 333.410156 221.144531 " clip-rule="nonzero"/></clipPath><clipPath id="95b03fca74"><path d="M 202.246094 72.597656 L 241.128906 72.597656 L 241.128906 111.480469 L 202.246094 111.480469 Z M 202.246094 72.597656 " clip-rule="nonzero"/></clipPath><clipPath id="53367907c0"><path d="M 202.246094 122.210938 L 241.128906 122.210938 L 241.128906 161.097656 L 202.246094 161.097656 Z M 202.246094 122.210938 " clip-rule="nonzero"/></clipPath><clipPath id="a5677767cc"><path d="M 211.21875 122.210938 L 232.285156 122.210938 C 234.664062 122.210938 236.945312 123.15625 238.628906 124.839844 C 240.3125 126.523438 241.257812 128.804688 241.257812 131.183594 L 241.257812 152.253906 C 241.257812 154.632812 240.3125 156.914062 238.628906 158.597656 C 236.945312 160.28125 234.664062 161.226562 232.285156 161.226562 L 211.21875 161.226562 C 208.835938 161.226562 206.554688 160.28125 204.871094 158.597656 C 203.191406 156.914062 202.246094 154.632812 202.246094 152.253906 L 202.246094 131.183594 C 202.246094 128.804688 203.191406 126.523438 204.871094 124.839844 C 206.554688 123.15625 208.835938 122.210938 211.21875 122.210938 Z M 211.21875 122.210938 " clip-rule="nonzero"/></clipPath><clipPath id="ddc9341e4f"><path d="M 202.714844 23.109375 L 241.597656 23.109375 L 241.597656 61.996094 L 202.714844 61.996094 Z M 202.714844 23.109375 " clip-rule="nonzero"/></clipPath><clipPath id="68ff237eda"><path d="M 211.6875 23.109375 L 232.753906 23.109375 C 235.132812 23.109375 237.417969 24.054688 239.097656 25.738281 C 240.78125 27.421875 241.726562 29.703125 241.726562 32.082031 L 241.726562 53.152344 C 241.726562 55.53125 240.78125 57.8125 239.097656 59.496094 C 237.417969 61.179688 235.132812 62.125 232.753906 62.125 L 211.6875 62.125 C 209.308594 62.125 207.023438 61.179688 205.34375 59.496094 C 203.660156 57.8125 202.714844 55.53125 202.714844 53.152344 L 202.714844 32.082031 C 202.714844 29.703125 203.660156 27.421875 205.34375 25.738281 C 207.023438 24.054688 209.308594 23.109375 211.6875 23.109375 Z M 211.6875 23.109375 " clip-rule="nonzero"/></clipPath><clipPath id="c1596a48ec"><path d="M 19.800781 171.421875 L 58.683594 171.421875 L 58.683594 210.304688 L 19.800781 210.304688 Z M 19.800781 171.421875 " clip-rule="nonzero"/></clipPath><clipPath id="76df9b4d32"><path d="M 28.773438 171.421875 L 49.839844 171.421875 C 52.21875 171.421875 54.5 172.367188 56.183594 174.050781 C 57.867188 175.734375 58.8125 178.015625 58.8125 180.394531 L 58.8125 201.460938 C 58.8125 203.839844 57.867188 206.125 56.183594 207.804688 C 54.5 209.488281 52.21875 210.433594 49.839844 210.433594 L 28.773438 210.433594 C 26.390625 210.433594 24.109375 209.488281 22.425781 207.804688 C 20.746094 206.125 19.800781 203.839844 19.800781 201.460938 L 19.800781 180.394531 C 19.800781 178.015625 20.746094 175.734375 22.425781 174.050781 C 24.109375 172.367188 26.390625 171.421875 28.773438 171.421875 Z M 28.773438 171.421875 " clip-rule="nonzero"/></clipPath><clipPath id="a3d28bff64"><path d="M 19.800781 220.90625 L 58.683594 220.90625 L 58.683594 250.503906 L 19.800781 250.503906 Z M 19.800781 220.90625 " clip-rule="nonzero"/></clipPath><clipPath id="5511cd7e2c"><path d="M 24 230 L 54 230 L 54 250.503906 L 24 250.503906 Z M 24 230 " clip-rule="nonzero"/></clipPath><clipPath id="f15a43f783"><path d="M 263.863281 72.597656 L 302.75 72.597656 L 302.75 111.480469 L 263.863281 111.480469 Z M 263.863281 72.597656 " clip-rule="nonzero"/></clipPath><clipPath id="61f65851ae"><path d="M 272.835938 72.597656 L 293.90625 72.597656 C 296.285156 72.597656 298.566406 73.542969 300.25 75.222656 C 301.933594 76.90625 302.878906 79.1875 302.878906 81.570312 L 302.878906 102.636719 C 302.878906 105.015625 301.933594 107.296875 300.25 108.980469 C 298.566406 110.664062 296.285156 111.609375 293.90625 111.609375 L 272.835938 111.609375 C 270.457031 111.609375 268.175781 110.664062 266.492188 108.980469 C 264.808594 107.296875 263.863281 105.015625 263.863281 102.636719 L 263.863281 81.570312 C 263.863281 79.1875 264.808594 76.90625 266.492188 75.222656 C 268.175781 73.542969 270.457031 72.597656 272.835938 72.597656 Z M 272.835938 72.597656 " clip-rule="nonzero"/></clipPath><clipPath id="b953db8a64"><path d="M 325.035156 72.597656 L 344.03125 72.597656 L 344.03125 111.480469 L 325.035156 111.480469 Z M 325.035156 72.597656 " clip-rule="nonzero"/></clipPath><clipPath id="171ae72241"><path d="M 330 81 L 344.03125 81 L 344.03125 103 L 330 103 Z M 330 81 " clip-rule="nonzero"/></clipPath><clipPath id="ffb7e5a5c4"><path d="M 264.164062 22.21875 L 303.046875 22.21875 L 303.046875 61.101562 L 264.164062 61.101562 Z M 264.164062 22.21875 " clip-rule="nonzero"/></clipPath><clipPath id="6eea2a2457"><path d="M 325.335938 22.21875 L 344.03125 22.21875 L 344.03125 61.101562 L 325.335938 61.101562 Z M 325.335938 22.21875 " clip-rule="nonzero"/></clipPath><clipPath id="2eafe4561c"><path d="M 334.308594 22.21875 L 355.375 22.21875 C 357.753906 22.21875 360.035156 23.164062 361.71875 24.847656 C 363.402344 26.53125 364.347656 28.8125 364.347656 31.191406 L 364.347656 52.257812 C 364.347656 54.636719 363.402344 56.921875 361.71875 58.601562 C 360.035156 60.285156 357.753906 61.230469 355.375 61.230469 L 334.308594 61.230469 C 331.929688 61.230469 329.644531 60.285156 327.964844 58.601562 C 326.28125 56.921875 325.335938 54.636719 325.335938 52.257812 L 325.335938 31.191406 C 325.335938 28.8125 326.28125 26.53125 327.964844 24.847656 C 329.644531 23.164062 331.929688 22.21875 334.308594 22.21875 Z M 334.308594 22.21875 " clip-rule="nonzero"/></clipPath><clipPath id="3cff2f9ec2"><path d="M 19.800781 0 L 58.683594 0 L 58.683594 11.878906 L 19.800781 11.878906 Z M 19.800781 0 " clip-rule="nonzero"/></clipPath><clipPath id="5195e16c7e"><path d="M 28.773438 -27.003906 L 49.839844 -27.003906 C 52.21875 -27.003906 54.5 -26.058594 56.183594 -24.375 C 57.867188 -22.691406 58.8125 -20.410156 58.8125 -18.03125 L 58.8125 3.035156 C 58.8125 5.417969 57.867188 7.699219 56.183594 9.382812 C 54.5 11.0625 52.21875 12.007812 49.839844 12.007812 L 28.773438 12.007812 C 26.390625 12.007812 24.109375 11.0625 22.425781 9.382812 C 20.746094 7.699219 19.800781 5.417969 19.800781 3.035156 L 19.800781 -18.03125 C 19.800781 -20.410156 20.746094 -22.691406 22.425781 -24.375 C 24.109375 -26.058594 26.390625 -27.003906 28.773438 -27.003906 Z M 28.773438 -27.003906 " clip-rule="nonzero"/></clipPath><clipPath id="c2dc289503"><path d="M 80.96875 0 L 119.855469 0 L 119.855469 11.878906 L 80.96875 11.878906 Z M 80.96875 0 " clip-rule="nonzero"/></clipPath><clipPath id="368453f36b"><path d="M 86 0 L 116 0 L 116 3 L 86 3 Z M 86 0 " clip-rule="nonzero"/></clipPath><clipPath id="d830332c1f"><path d="M 141.671875 0 L 180.554688 0 L 180.554688 11.878906 L 141.671875 11.878906 Z M 141.671875 0 " clip-rule="nonzero"/></clipPath><clipPath id="1b052c733e"><path d="M 150.644531 -27.003906 L 171.710938 -27.003906 C 174.089844 -27.003906 176.375 -26.058594 178.054688 -24.375 C 179.738281 -22.691406 180.683594 -20.410156 180.683594 -18.03125 L 180.683594 3.035156 C 180.683594 5.417969 179.738281 7.699219 178.054688 9.382812 C 176.375 11.0625 174.089844 12.007812 171.710938 12.007812 L 150.644531 12.007812 C 148.265625 12.007812 145.984375 11.0625 144.300781 9.382812 C 142.617188 7.699219 141.671875 5.417969 141.671875 3.035156 L 141.671875 -18.03125 C 141.671875 -20.410156 142.617188 -22.691406 144.300781 -24.375 C 145.984375 -26.058594 148.265625 -27.003906 150.644531 -27.003906 Z M 150.644531 -27.003906 " clip-rule="nonzero"/></clipPath><clipPath id="2b202ba136"><path d="M 202.542969 0 L 241.429688 0 L 241.429688 12.195312 L 202.542969 12.195312 Z M 202.542969 0 " clip-rule="nonzero"/></clipPath><clipPath id="e33db4925b"><path d="M 207 0 L 237 0 L 237 4 L 207 4 Z M 207 0 " clip-rule="nonzero"/></clipPath><clipPath id="72709881c6"><path d="M 264.164062 0 L 303.046875 0 L 303.046875 12.195312 L 264.164062 12.195312 Z M 264.164062 0 " clip-rule="nonzero"/></clipPath><clipPath id="8d5eab68f8"><path d="M 273.136719 -26.6875 L 294.203125 -26.6875 C 296.582031 -26.6875 298.867188 -25.742188 300.546875 -24.0625 C 302.230469 -22.378906 303.175781 -20.097656 303.175781 -17.714844 L 303.175781 3.351562 C 303.175781 5.730469 302.230469 8.011719 300.546875 9.695312 C 298.867188 11.378906 296.582031 12.324219 294.203125 12.324219 L 273.136719 12.324219 C 270.757812 12.324219 268.472656 11.378906 266.792969 9.695312 C 265.109375 8.011719 264.164062 5.730469 264.164062 3.351562 L 264.164062 -17.714844 C 264.164062 -20.097656 265.109375 -22.378906 266.792969 -24.0625 C 268.472656 -25.742188 270.757812 -26.6875 273.136719 -26.6875 Z M 273.136719 -26.6875 " clip-rule="nonzero"/></clipPath><clipPath id="17e3ba99df"><path d="M 325.335938 0 L 344.03125 0 L 344.03125 12.195312 L 325.335938 12.195312 Z M 325.335938 0 " clip-rule="nonzero"/></clipPath><clipPath id="d7c3d78855"><path d="M 330 0 L 344.03125 0 L 344.03125 4 L 330 4 Z M 330 0 " clip-rule="nonzero"/></clipPath><clipPath id="9289da10c9"><rect x="0" width="345" y="0" height="251"/></clipPath></defs><g clip-path="url(#1cb8711f9d)"><g mask="url(#63cad68d50)"><g transform="matrix(1, 0, 0, 1, 306, -0.000000000000022503)"><g clip-path="url(#9289da10c9)"><g clip-path="url(#2ee2836134)"><path fill="#ffffff" d="M 52.101562 61.839844 L 26.074219 61.839844 C 22.441406 61.839844 19.5 58.898438 19.5 55.265625 L 19.5 29.238281 C 19.5 25.609375 22.441406 22.664062 26.074219 22.664062 L 52.101562 22.664062 C 55.734375 22.664062 58.675781 25.609375 58.675781 29.238281 L 58.675781 55.265625 C 58.675781 58.898438 55.734375 61.839844 52.101562 61.839844 Z M 52.101562 61.839844 " fill-opacity="1" fill-rule="nonzero"/></g><path fill="#000000" d="M 52.890625 32.609375 C 51.878906 31.597656 50.230469 31.597656 49.21875 32.609375 L 35.429688 46.394531 L 29.027344 40 C 28.015625 38.988281 26.363281 38.988281 25.351562 40 C 24.339844 41.011719 24.339844 42.660156 25.351562 43.671875 L 33.492188 51.8125 C 33.515625 51.847656 33.550781 51.871094 33.585938 51.90625 C 34.09375 52.417969 34.757812 52.671875 35.421875 52.664062 C 36.085938 52.664062 36.757812 52.410156 37.257812 51.90625 C 37.292969 51.871094 37.320312 51.847656 37.351562 51.8125 L 52.890625 36.273438 C 53.914062 35.261719 53.914062 33.621094 52.890625 32.609375 Z M 52.890625 32.609375 " fill-opacity="1" fill-rule="nonzero"/><g clip-path="url(#8a69e5b8b5)"><g clip-path="url(#8e6063596c)"><path stroke-linecap="butt" transform="matrix(0.747768, 0, 0, 0.747768, 80.67131, 22.665077)" fill="none" stroke-linejoin="miter" d="M 12.00001 -0.00135713 L 40.172399 -0.00135713 C 43.353743 -0.00135713 46.409713 1.262822 48.655982 3.514315 C 50.907474 5.765807 52.171654 8.816554 52.171654 11.997897 L 52.171654 40.17551 C 52.171654 43.356853 50.907474 46.4076 48.655982 48.659092 C 46.409713 50.905361 43.353743 52.16954 40.172399 52.16954 L 12.00001 52.16954 C 8.818667 52.16954 5.762697 50.905361 3.516428 48.659092 C 1.264935 46.4076 0.000756116 43.356853 0.000756116 40.17551 L 0.000756116 11.997897 C 0.000756116 8.816554 1.264935 5.765807 3.516428 3.514315 C 5.762697 1.262822 8.818667 -0.00135713 12.00001 -0.00135713 Z M 12.00001 -0.00135713 " stroke="#ffffff" stroke-width="12" stroke-opacity="1" stroke-miterlimit="4"/></g></g><g clip-path="url(#29c1d675e1)"><path fill="#ffffff" d="M 173.972656 61.671875 L 147.949219 61.671875 C 144.316406 61.671875 141.371094 58.726562 141.371094 55.097656 L 141.371094 29.070312 C 141.371094 25.4375 144.316406 22.496094 147.949219 22.496094 L 173.972656 22.496094 C 177.605469 22.496094 180.546875 25.4375 180.546875 29.070312 L 180.546875 55.097656 C 180.546875 58.726562 177.605469 61.671875 173.972656 61.671875 Z M 173.972656 61.671875 " fill-opacity="1" fill-rule="nonzero"/></g><path fill="#000000" d="M 174.765625 32.4375 C 173.753906 31.425781 172.101562 31.425781 171.089844 32.4375 L 157.304688 46.222656 L 150.898438 39.828125 C 149.886719 38.816406 148.238281 38.816406 147.222656 39.828125 C 146.210938 40.839844 146.210938 42.492188 147.222656 43.503906 L 155.363281 51.640625 C 155.390625 51.675781 155.421875 51.703125 155.457031 51.734375 C 155.96875 52.246094 156.632812 52.5 157.292969 52.492188 C 157.957031 52.492188 158.628906 52.238281 159.132812 51.734375 C 159.167969 51.703125 159.191406 51.675781 159.226562 51.640625 L 174.765625 36.101562 C 175.785156 35.089844 175.785156 33.449219 174.765625 32.4375 Z M 174.765625 32.4375 " fill-opacity="1" fill-rule="nonzero"/><g clip-path="url(#c41a39611f)"><g clip-path="url(#9b699713e7)"><path stroke-linecap="butt" transform="matrix(0.747768, 0, 0, 0.747768, 19.499986, 72.281512)" fill="none" stroke-linejoin="miter" d="M 11.999272 -0.000350323 L 40.171661 -0.000350323 C 43.353005 -0.000350323 46.408975 1.263829 48.655244 3.515321 C 50.906736 5.766814 52.170916 8.81756 52.170916 11.998904 L 52.170916 40.171293 C 52.170916 43.35786 50.906736 46.408607 48.655244 48.660099 C 46.408975 50.906368 43.353005 52.170547 40.171661 52.170547 L 11.999272 52.170547 C 8.817929 52.170547 5.767182 50.906368 3.51569 48.660099 C 1.264197 46.408607 0.0000180833 43.35786 0.0000180833 40.171293 L 0.0000180833 11.998904 C 0.0000180833 8.81756 1.264197 5.766814 3.51569 3.515321 C 5.767182 1.263829 8.817929 -0.000350323 11.999272 -0.000350323 Z M 11.999272 -0.000350323 " stroke="#ffffff" stroke-width="12" stroke-opacity="1" stroke-miterlimit="4"/></g></g><g clip-path="url(#e9988ad845)"><path fill="#ffffff" d="M 113.273438 111.457031 L 87.246094 111.457031 C 83.613281 111.457031 80.671875 108.515625 80.671875 104.882812 L 80.671875 78.855469 C 80.671875 75.222656 83.613281 72.28125 87.246094 72.28125 L 113.273438 72.28125 C 116.90625 72.28125 119.847656 75.222656 119.847656 78.855469 L 119.847656 104.882812 C 119.847656 108.515625 116.90625 111.457031 113.273438 111.457031 Z M 113.273438 111.457031 " fill-opacity="1" fill-rule="nonzero"/></g><path fill="#000000" d="M 114.0625 82.222656 C 113.050781 81.210938 111.402344 81.210938 110.390625 82.222656 L 96.601562 96.011719 L 90.199219 89.617188 C 89.183594 88.601562 87.535156 88.601562 86.523438 89.617188 C 85.511719 90.628906 85.511719 92.277344 86.523438 93.289062 L 94.664062 101.429688 C 94.6875 101.464844 94.722656 101.488281 94.757812 101.523438 C 95.265625 102.035156 95.929688 102.289062 96.59375 102.28125 C 97.257812 102.28125 97.929688 102.023438 98.429688 101.523438 C 98.464844 101.488281 98.488281 101.464844 98.523438 101.429688 L 114.0625 85.890625 C 115.085938 84.878906 115.085938 83.238281 114.0625 82.222656 Z M 114.0625 82.222656 " fill-opacity="1" fill-rule="nonzero"/><g clip-path="url(#64cc922b6e)"><g clip-path="url(#ac551773eb)"><path stroke-linecap="butt" transform="matrix(0.747768, 0, 0, 0.747768, 141.372707, 72.281512)" fill="none" stroke-linejoin="miter" d="M 11.997097 -0.000350323 L 40.17471 -0.000350323 C 43.356054 -0.000350323 46.4068 1.263829 48.658293 3.515321 C 50.909785 5.766814 52.173964 8.81756 52.173964 11.998904 L 52.173964 40.171293 C 52.173964 43.35786 50.909785 46.408607 48.658293 48.660099 C 46.4068 50.906368 43.356054 52.170547 40.17471 52.170547 L 11.997097 52.170547 C 8.815754 52.170547 5.765007 50.906368 3.513515 48.660099 C 1.262022 46.408607 -0.00215703 43.35786 -0.00215703 40.171293 L -0.00215703 11.998904 C -0.00215703 8.81756 1.262022 5.766814 3.513515 3.515321 C 5.765007 1.263829 8.815754 -0.000350323 11.997097 -0.000350323 Z M 11.997097 -0.000350323 " stroke="#ffffff" stroke-width="12" stroke-opacity="1" stroke-miterlimit="4"/></g></g><g clip-path="url(#fd65714cf8)"><path fill="#ffffff" d="M 52.101562 160.941406 L 26.074219 160.941406 C 22.441406 160.941406 19.5 158 19.5 154.367188 L 19.5 128.339844 C 19.5 124.710938 22.441406 121.765625 26.074219 121.765625 L 52.101562 121.765625 C 55.734375 121.765625 58.675781 124.710938 58.675781 128.339844 L 58.675781 154.367188 C 58.675781 158 55.734375 160.941406 52.101562 160.941406 Z M 52.101562 160.941406 " fill-opacity="1" fill-rule="nonzero"/></g><path fill="#000000" d="M 52.890625 131.710938 C 51.878906 130.695312 50.230469 130.695312 49.21875 131.710938 L 35.429688 145.496094 L 29.027344 139.101562 C 28.015625 138.089844 26.363281 138.089844 25.351562 139.101562 C 24.339844 140.113281 24.339844 141.761719 25.351562 142.773438 L 33.492188 150.914062 C 33.515625 150.949219 33.550781 150.972656 33.585938 151.007812 C 34.09375 151.519531 34.757812 151.773438 35.421875 151.765625 C 36.085938 151.765625 36.757812 151.511719 37.257812 151.007812 C 37.292969 150.972656 37.320312 150.949219 37.351562 150.914062 L 52.890625 135.375 C 53.914062 134.363281 53.914062 132.722656 52.890625 131.710938 Z M 52.890625 131.710938 " fill-opacity="1" fill-rule="nonzero"/><g clip-path="url(#32e631c1cb)"><path fill="#ffffff" d="M 173.972656 160.941406 L 147.949219 160.941406 C 144.316406 160.941406 141.371094 158 141.371094 154.367188 L 141.371094 128.339844 C 141.371094 124.710938 144.316406 121.765625 147.949219 121.765625 L 173.972656 121.765625 C 177.605469 121.765625 180.546875 124.710938 180.546875 128.339844 L 180.546875 154.367188 C 180.546875 158 177.605469 160.941406 173.972656 160.941406 Z M 173.972656 160.941406 " fill-opacity="1" fill-rule="nonzero"/></g><path fill="#000000" d="M 174.765625 131.710938 C 173.753906 130.695312 172.101562 130.695312 171.089844 131.710938 L 157.304688 145.496094 L 150.898438 139.101562 C 149.886719 138.089844 148.238281 138.089844 147.222656 139.101562 C 146.210938 140.113281 146.210938 141.761719 147.222656 142.773438 L 155.363281 150.914062 C 155.390625 150.949219 155.421875 150.972656 155.457031 151.007812 C 155.96875 151.519531 156.632812 151.773438 157.292969 151.765625 C 157.957031 151.765625 158.628906 151.511719 159.132812 151.007812 C 159.167969 150.972656 159.191406 150.949219 159.226562 150.914062 L 174.765625 135.375 C 175.785156 134.363281 175.785156 132.722656 174.765625 131.710938 Z M 174.765625 131.710938 " fill-opacity="1" fill-rule="nonzero"/><g clip-path="url(#638221feb9)"><g clip-path="url(#fe9d994817)"><path stroke-linecap="butt" transform="matrix(0.747768, 0, 0, 0.747768, 80.521667, 121.76642)" fill="none" stroke-linejoin="miter" d="M 11.996397 -0.00106363 L 40.17401 -0.00106363 C 43.355354 -0.00106363 46.4061 1.263116 48.657593 3.514608 C 50.909085 5.766101 52.173265 8.816847 52.173265 11.998191 L 52.173265 40.17058 C 52.173265 43.357147 50.909085 46.407893 48.657593 48.659386 C 46.4061 50.905655 43.355354 52.169834 40.17401 52.169834 L 11.996397 52.169834 C 8.815054 52.169834 5.764308 50.905655 3.512815 48.659386 C 1.266546 46.407893 0.00236705 43.357147 0.00236705 40.17058 L 0.00236705 11.998191 C 0.00236705 8.816847 1.266546 5.766101 3.512815 3.514608 C 5.764308 1.263116 8.815054 -0.00106363 11.996397 -0.00106363 Z M 11.996397 -0.00106363 " stroke="#ffffff" stroke-width="12" stroke-opacity="1" stroke-miterlimit="4"/></g></g><g clip-path="url(#98cffddf7d)"><path fill="#ffffff" d="M 113.273438 210.769531 L 87.246094 210.769531 C 83.613281 210.769531 80.671875 207.824219 80.671875 204.195312 L 80.671875 178.167969 C 80.671875 174.535156 83.613281 171.59375 87.246094 171.59375 L 113.273438 171.59375 C 116.90625 171.59375 119.847656 174.535156 119.847656 178.167969 L 119.847656 204.195312 C 119.847656 207.824219 116.90625 210.769531 113.273438 210.769531 Z M 113.273438 210.769531 " fill-opacity="1" fill-rule="nonzero"/></g><path fill="#000000" d="M 114.0625 181.535156 C 113.050781 180.523438 111.402344 180.523438 110.390625 181.535156 L 96.601562 195.324219 L 90.199219 188.925781 C 89.183594 187.914062 87.535156 187.914062 86.523438 188.925781 C 85.511719 189.9375 85.511719 191.589844 86.523438 192.601562 L 94.664062 200.742188 C 94.6875 200.773438 94.722656 200.800781 94.757812 200.835938 C 95.265625 201.34375 95.929688 201.601562 96.59375 201.589844 C 97.257812 201.589844 97.929688 201.335938 98.429688 200.835938 C 98.464844 200.800781 98.488281 200.773438 98.523438 200.742188 L 114.0625 185.203125 C 115.085938 184.1875 115.085938 182.546875 114.0625 181.535156 Z M 114.0625 181.535156 " fill-opacity="1" fill-rule="nonzero"/><g clip-path="url(#9e9e4cc523)"><g clip-path="url(#be9a11d2c6)"><path stroke-linecap="butt" transform="matrix(0.747768, 0, 0, 0.747768, 141.84263, 171.592615)" fill="none" stroke-linejoin="miter" d="M 12.000752 0.00151818 L 40.173141 0.00151818 C 43.354484 0.00151818 46.40523 1.265697 48.656723 3.511966 C 50.908216 5.763459 52.172395 8.814205 52.172395 12.000772 L 52.172395 40.173161 C 52.172395 43.354505 50.908216 46.405251 48.656723 48.656744 C 46.40523 50.908237 43.354484 52.172416 40.173141 52.172416 L 12.000752 52.172416 C 8.814184 52.172416 5.763438 50.908237 3.511945 48.656744 C 1.265676 46.405251 0.00149735 43.354505 0.00149735 40.173161 L 0.00149735 12.000772 C 0.00149735 8.814205 1.265676 5.763459 3.511945 3.511966 C 5.763438 1.265697 8.814184 0.00151818 12.000752 0.00151818 Z M 12.000752 0.00151818 " stroke="#ffffff" stroke-width="12" stroke-opacity="1" stroke-miterlimit="4"/></g></g><g clip-path="url(#acca7cb967)"><path fill="#ffffff" d="M 235.144531 210.597656 L 209.117188 210.597656 C 205.488281 210.597656 202.542969 207.65625 202.542969 204.023438 L 202.542969 177.996094 C 202.542969 174.363281 205.488281 171.421875 209.117188 171.421875 L 235.144531 171.421875 C 238.777344 171.421875 241.71875 174.363281 241.71875 177.996094 L 241.71875 204.023438 C 241.71875 207.65625 238.777344 210.597656 235.144531 210.597656 Z M 235.144531 210.597656 " fill-opacity="1" fill-rule="nonzero"/></g><path fill="#000000" d="M 235.9375 181.363281 C 234.925781 180.351562 233.273438 180.351562 232.261719 181.363281 L 218.476562 195.152344 L 212.070312 188.757812 C 211.058594 187.742188 209.40625 187.742188 208.394531 188.757812 C 207.382812 189.769531 207.382812 191.417969 208.394531 192.429688 L 216.535156 200.570312 C 216.5625 200.605469 216.59375 200.628906 216.628906 200.664062 C 217.140625 201.175781 217.804688 201.429688 218.464844 201.421875 C 219.128906 201.421875 219.800781 201.164062 220.304688 200.664062 C 220.335938 200.628906 220.363281 200.605469 220.398438 200.570312 L 235.9375 185.03125 C 236.957031 184.019531 236.957031 182.378906 235.9375 181.363281 Z M 235.9375 181.363281 " fill-opacity="1" fill-rule="nonzero"/><g clip-path="url(#98362bd91c)"><g clip-path="url(#1c8ecf6244)"><path stroke-linecap="butt" transform="matrix(0.747768, 0, 0, 0.747768, 80.67131, 221.209027)" fill="none" stroke-linejoin="miter" d="M 12.00001 0.00255442 L 40.172399 0.00255442 C 43.353743 0.00255442 46.409713 1.266734 48.655982 3.513002 C 50.907474 5.764495 52.171654 8.815241 52.171654 11.996585 L 52.171654 40.174198 C 52.171654 43.355541 50.907474 46.406288 48.655982 48.65778 C 46.409713 50.909273 43.353743 52.173452 40.172399 52.173452 L 12.00001 52.173452 C 8.818667 52.173452 5.762697 50.909273 3.516428 48.65778 C 1.264935 46.406288 0.000756116 43.355541 0.000756116 40.174198 L 0.000756116 11.996585 C 0.000756116 8.815241 1.264935 5.764495 3.516428 3.513002 C 5.762697 1.266734 8.818667 0.00255442 12.00001 0.00255442 Z M 12.00001 0.00255442 " stroke="#ffffff" stroke-width="12" stroke-opacity="1" stroke-miterlimit="4"/></g></g><g clip-path="url(#9ce240e860)"><path fill="#ffffff" d="M 174.445312 260.386719 L 148.417969 260.386719 C 144.785156 260.386719 141.84375 257.441406 141.84375 253.808594 L 141.84375 227.785156 C 141.84375 224.152344 144.785156 221.210938 148.417969 221.210938 L 174.445312 221.210938 C 178.074219 221.210938 181.019531 224.152344 181.019531 227.785156 L 181.019531 253.808594 C 181.019531 257.441406 178.074219 260.386719 174.445312 260.386719 Z M 174.445312 260.386719 " fill-opacity="1" fill-rule="nonzero"/></g><g clip-path="url(#473d88930a)"><path fill="#000000" d="M 175.234375 231.152344 C 174.222656 230.140625 172.574219 230.140625 171.5625 231.152344 L 157.773438 244.9375 L 151.367188 238.542969 C 150.355469 237.53125 148.707031 237.53125 147.695312 238.542969 C 146.683594 239.554688 146.683594 241.207031 147.695312 242.21875 L 155.835938 250.355469 C 155.859375 250.390625 155.894531 250.417969 155.925781 250.449219 C 156.4375 250.960938 157.101562 251.214844 157.765625 251.207031 C 158.429688 251.207031 159.101562 250.953125 159.601562 250.449219 C 159.636719 250.417969 159.660156 250.390625 159.695312 250.355469 L 175.234375 234.816406 C 176.253906 233.804688 176.253906 232.164062 175.234375 231.152344 Z M 175.234375 231.152344 " fill-opacity="1" fill-rule="nonzero"/></g><g clip-path="url(#144b629aee)"><g clip-path="url(#28de453c2d)"><path stroke-linecap="butt" transform="matrix(0.747768, 0, 0, 0.747768, 202.54403, 221.209027)" fill="none" stroke-linejoin="miter" d="M 11.997835 0.00255442 L 40.175448 0.00255442 C 43.356792 0.00255442 46.407538 1.266734 48.659031 3.513002 C 50.905299 5.764495 52.169478 8.815241 52.169478 11.996585 L 52.169478 40.174198 C 52.169478 43.355541 50.905299 46.406288 48.659031 48.65778 C 46.407538 50.909273 43.356792 52.173452 40.175448 52.173452 L 11.997835 52.173452 C 8.816492 52.173452 5.765745 50.909273 3.514253 48.65778 C 1.26276 46.406288 -0.001419 43.355541 -0.001419 40.174198 L -0.001419 11.996585 C -0.001419 8.815241 1.26276 5.764495 3.514253 3.513002 C 5.765745 1.266734 8.816492 0.00255442 11.997835 0.00255442 Z M 11.997835 0.00255442 " stroke="#ffffff" stroke-width="12" stroke-opacity="1" stroke-miterlimit="4"/></g></g><g clip-path="url(#6b3314a38d)"><path fill="#ffffff" d="M 296.015625 161.21875 L 269.992188 161.21875 C 266.359375 161.21875 263.417969 158.273438 263.417969 154.644531 L 263.417969 128.617188 C 263.417969 124.984375 266.359375 122.042969 269.992188 122.042969 L 296.015625 122.042969 C 299.648438 122.042969 302.59375 124.984375 302.59375 128.617188 L 302.59375 154.644531 C 302.59375 158.273438 299.648438 161.21875 296.015625 161.21875 Z M 296.015625 161.21875 " fill-opacity="1" fill-rule="nonzero"/></g><path fill="#000000" d="M 296.808594 131.984375 C 295.796875 130.972656 294.144531 130.972656 293.132812 131.984375 L 279.347656 145.773438 L 272.941406 139.375 C 271.929688 138.363281 270.28125 138.363281 269.269531 139.375 C 268.253906 140.386719 268.253906 142.039062 269.269531 143.050781 L 277.40625 151.191406 C 277.433594 151.222656 277.46875 151.25 277.5 151.285156 C 278.011719 151.792969 278.675781 152.050781 279.339844 152.039062 C 280 152.039062 280.671875 151.785156 281.175781 151.285156 C 281.210938 151.25 281.234375 151.222656 281.269531 151.191406 L 296.808594 135.652344 C 297.828125 134.636719 297.828125 132.996094 296.808594 131.984375 Z M 296.808594 131.984375 " fill-opacity="1" fill-rule="nonzero"/><g clip-path="url(#7a6dd6ed25)"><g clip-path="url(#d1752abaad)"><path stroke-linecap="butt" transform="matrix(0.747768, 0, 0, 0.747768, 324.587449, 122.041941)" fill="none" stroke-linejoin="miter" d="M 11.997232 0.00137431 L 40.174845 0.00137431 C 43.356189 0.00137431 46.406935 1.265553 48.658428 3.511822 C 50.90992 5.763315 52.1741 8.814061 52.1741 12.000628 L 52.1741 40.173018 C 52.1741 43.354361 50.90992 46.405107 48.658428 48.6566 C 46.406935 50.908093 43.356189 52.172272 40.174845 52.172272 L 11.997232 52.172272 C 8.815889 52.172272 5.765143 50.908093 3.51365 48.6566 C 1.262157 46.405107 -0.00202175 43.354361 -0.00202175 40.173018 L -0.00202175 12.000628 C -0.00202175 8.814061 1.262157 5.763315 3.51365 3.511822 C 5.765143 1.265553 8.815889 0.00137431 11.997232 0.00137431 Z M 11.997232 0.00137431 " stroke="#ffffff" stroke-width="12" stroke-opacity="1" stroke-miterlimit="4"/></g></g><g clip-path="url(#de4d048fbf)"><g clip-path="url(#c41d340dd5)"><path stroke-linecap="butt" transform="matrix(0.747768, 0, 0, 0.747768, 263.416126, 171.658351)" fill="none" stroke-linejoin="miter" d="M 11.996494 0.00241375 L 40.174107 0.00241375 C 43.355451 0.00241375 46.406197 1.266593 48.65769 3.512862 C 50.909182 5.764354 52.173362 8.815101 52.173362 11.996444 L 52.173362 40.174057 C 52.173362 43.3554 50.909182 46.406147 48.65769 48.657639 C 46.406197 50.909132 43.355451 52.173311 40.174107 52.173311 L 11.996494 52.173311 C 8.815151 52.173311 5.764405 50.909132 3.512912 48.657639 C 1.266643 46.406147 0.0024641 43.3554 0.0024641 40.174057 L 0.0024641 11.996444 C 0.0024641 8.815101 1.266643 5.764354 3.512912 3.512862 C 5.764405 1.266593 8.815151 0.00241375 11.996494 0.00241375 Z M 11.996494 0.00241375 " stroke="#ffffff" stroke-width="12" stroke-opacity="1" stroke-miterlimit="4"/></g></g><g clip-path="url(#caf637bc81)"><path fill="#ffffff" d="M 357.1875 210.835938 L 331.164062 210.835938 C 327.53125 210.835938 324.585938 207.890625 324.585938 204.257812 L 324.585938 178.234375 C 324.585938 174.601562 327.53125 171.660156 331.164062 171.660156 L 357.1875 171.660156 C 360.820312 171.660156 363.761719 174.601562 363.761719 178.234375 L 363.761719 204.257812 C 363.761719 207.890625 360.820312 210.835938 357.1875 210.835938 Z M 357.1875 210.835938 " fill-opacity="1" fill-rule="nonzero"/></g><g clip-path="url(#e10eb06bb2)"><path fill="#000000" d="M 357.980469 181.601562 C 356.96875 180.589844 355.316406 180.589844 354.304688 181.601562 L 340.519531 195.386719 L 334.113281 188.992188 C 333.101562 187.980469 331.453125 187.980469 330.4375 188.992188 C 329.425781 190.003906 329.425781 191.65625 330.4375 192.667969 L 338.578125 200.804688 C 338.605469 200.839844 338.636719 200.867188 338.671875 200.898438 C 339.183594 201.410156 339.847656 201.664062 340.507812 201.65625 C 341.171875 201.65625 341.84375 201.402344 342.347656 200.898438 C 342.378906 200.867188 342.40625 200.839844 342.441406 200.804688 L 357.980469 185.265625 C 359 184.253906 359 182.613281 357.980469 181.601562 Z M 357.980469 181.601562 " fill-opacity="1" fill-rule="nonzero"/></g><g clip-path="url(#cd24b9e8fb)"><path fill="#ffffff" d="M 296.015625 260.320312 L 269.992188 260.320312 C 266.359375 260.320312 263.417969 257.375 263.417969 253.746094 L 263.417969 227.71875 C 263.417969 224.085938 266.359375 221.144531 269.992188 221.144531 L 296.015625 221.144531 C 299.648438 221.144531 302.59375 224.085938 302.59375 227.71875 L 302.59375 253.746094 C 302.59375 257.375 299.648438 260.320312 296.015625 260.320312 Z M 296.015625 260.320312 " fill-opacity="1" fill-rule="nonzero"/></g><g clip-path="url(#869bb8a6e8)"><path fill="#000000" d="M 296.808594 231.085938 C 295.796875 230.074219 294.144531 230.074219 293.132812 231.085938 L 279.347656 244.875 L 272.941406 238.476562 C 271.929688 237.464844 270.28125 237.464844 269.269531 238.476562 C 268.253906 239.488281 268.253906 241.140625 269.269531 242.152344 L 277.40625 250.292969 C 277.433594 250.324219 277.46875 250.351562 277.5 250.386719 C 278.011719 250.894531 278.675781 251.152344 279.339844 251.140625 C 280 251.140625 280.671875 250.886719 281.175781 250.386719 C 281.210938 250.351562 281.234375 250.324219 281.269531 250.292969 L 296.808594 234.753906 C 297.828125 233.738281 297.828125 232.097656 296.808594 231.085938 Z M 296.808594 231.085938 " fill-opacity="1" fill-rule="nonzero"/></g><g clip-path="url(#68c0f22c67)"><g clip-path="url(#ff9d862b28)"><path stroke-linecap="butt" transform="matrix(0.747768, 0, 0, 0.747768, 324.437838, 221.143276)" fill="none" stroke-linejoin="miter" d="M 11.998802 0.00167805 L 40.171191 0.00167805 C 43.357758 0.00167805 46.408505 1.265857 48.659997 3.512126 C 50.906266 5.763619 52.170445 8.814365 52.170445 12.000932 L 52.170445 40.173321 C 52.170445 43.354665 50.906266 46.405411 48.659997 48.656904 C 46.408505 50.908396 43.357758 52.172576 40.171191 52.172576 L 11.998802 52.172576 C 8.817458 52.172576 5.766712 50.908396 3.515219 48.656904 C 1.263727 46.405411 -0.000452423 43.354665 -0.000452423 40.173321 L -0.000452423 12.000932 C -0.000452423 8.814365 1.263727 5.763619 3.515219 3.512126 C 5.766712 1.265857 8.817458 0.00167805 11.998802 0.00167805 Z M 11.998802 0.00167805 " stroke="#ffffff" stroke-width="12" stroke-opacity="1" stroke-miterlimit="4"/></g></g><g clip-path="url(#95b03fca74)"><path fill="#ffffff" d="M 234.847656 111.773438 L 208.820312 111.773438 C 205.1875 111.773438 202.246094 108.828125 202.246094 105.199219 L 202.246094 79.171875 C 202.246094 75.539062 205.1875 72.597656 208.820312 72.597656 L 234.847656 72.597656 C 238.476562 72.597656 241.421875 75.539062 241.421875 79.171875 L 241.421875 105.199219 C 241.421875 108.828125 238.476562 111.773438 234.847656 111.773438 Z M 234.847656 111.773438 " fill-opacity="1" fill-rule="nonzero"/></g><path fill="#000000" d="M 235.636719 82.539062 C 234.625 81.527344 232.976562 81.527344 231.960938 82.539062 L 218.175781 96.328125 L 211.769531 89.929688 C 210.757812 88.917969 209.109375 88.917969 208.097656 89.929688 C 207.085938 90.941406 207.085938 92.59375 208.097656 93.605469 L 216.234375 101.746094 C 216.261719 101.777344 216.296875 101.804688 216.328125 101.835938 C 216.839844 102.347656 217.503906 102.601562 218.167969 102.59375 C 218.832031 102.59375 219.503906 102.339844 220.003906 101.835938 C 220.039062 101.804688 220.0625 101.777344 220.097656 101.746094 L 235.636719 86.203125 C 236.65625 85.191406 236.65625 83.550781 235.636719 82.539062 Z M 235.636719 82.539062 " fill-opacity="1" fill-rule="nonzero"/><g clip-path="url(#53367907c0)"><g clip-path="url(#a5677767cc)"><path stroke-linecap="butt" transform="matrix(0.747768, 0, 0, 0.747768, 202.244805, 122.212569)" fill="none" stroke-linejoin="miter" d="M 12.000977 -0.00218122 L 40.173366 -0.00218122 C 43.35471 -0.00218122 46.405456 1.261998 48.656949 3.513491 C 50.908441 5.764983 52.17262 8.81573 52.17262 11.997073 L 52.17262 40.174686 C 52.17262 43.356029 50.908441 46.406776 48.656949 48.658268 C 46.405456 50.909761 43.35471 52.17394 40.173366 52.17394 L 12.000977 52.17394 C 8.81441 52.17394 5.763663 50.909761 3.512171 48.658268 C 1.265902 46.406776 0.00172286 43.356029 0.00172286 40.174686 L 0.00172286 11.997073 C 0.00172286 8.81573 1.265902 5.764983 3.512171 3.513491 C 5.763663 1.261998 8.81441 -0.00218122 12.000977 -0.00218122 Z M 12.000977 -0.00218122 " stroke="#ffffff" stroke-width="12" stroke-opacity="1" stroke-miterlimit="4"/></g></g><g clip-path="url(#ddc9341e4f)"><g clip-path="url(#68ff237eda)"><path stroke-linecap="butt" transform="matrix(0.747768, 0, 0, 0.747768, 202.714672, 23.111244)" fill="none" stroke-linejoin="miter" d="M 11.999484 -0.0025 L 40.171873 -0.0025 C 43.353217 -0.0025 46.409187 1.261679 48.655456 3.513172 C 50.906948 5.764664 52.171128 8.815411 52.171128 11.996754 L 52.171128 40.174367 C 52.171128 43.355711 50.906948 46.406457 48.655456 48.65795 C 46.409187 50.909442 43.353217 52.173621 40.171873 52.173621 L 11.999484 52.173621 C 8.818141 52.173621 5.762171 50.909442 3.515902 48.65795 C 1.264409 46.406457 0.000230159 43.355711 0.000230159 40.174367 L 0.000230159 11.996754 C 0.000230159 8.815411 1.264409 5.764664 3.515902 3.513172 C 5.762171 1.261679 8.818141 -0.0025 11.999484 -0.0025 Z M 11.999484 -0.0025 " stroke="#ffffff" stroke-width="12" stroke-opacity="1" stroke-miterlimit="4"/></g></g><g clip-path="url(#c1596a48ec)"><g clip-path="url(#76df9b4d32)"><path stroke-linecap="butt" transform="matrix(0.747768, 0, 0, 0.747768, 19.79924, 171.421959)" fill="none" stroke-linejoin="miter" d="M 12.001316 -0.000111774 L 40.173705 -0.000111774 C 43.355048 -0.000111774 46.405795 1.264067 48.657287 3.51556 C 50.90878 5.767053 52.172959 8.817799 52.172959 11.999142 L 52.172959 40.171532 C 52.172959 43.352875 50.90878 46.408845 48.657287 48.655114 C 46.405795 50.906607 43.355048 52.170786 40.173705 52.170786 L 12.001316 52.170786 C 8.814749 52.170786 5.764002 50.906607 3.51251 48.655114 C 1.266241 46.408845 0.0020617 43.352875 0.0020617 40.171532 L 0.0020617 11.999142 C 0.0020617 8.817799 1.266241 5.767053 3.51251 3.51556 C 5.764002 1.264067 8.814749 -0.000111774 12.001316 -0.000111774 Z M 12.001316 -0.000111774 " stroke="#ffffff" stroke-width="12" stroke-opacity="1" stroke-miterlimit="4"/></g></g><g clip-path="url(#a3d28bff64)"><path fill="#ffffff" d="M 52.402344 260.082031 L 26.375 260.082031 C 22.742188 260.082031 19.800781 257.140625 19.800781 253.507812 L 19.800781 227.480469 C 19.800781 223.851562 22.742188 220.90625 26.375 220.90625 L 52.402344 220.90625 C 56.03125 220.90625 58.976562 223.851562 58.976562 227.480469 L 58.976562 253.507812 C 58.976562 257.140625 56.03125 260.082031 52.402344 260.082031 Z M 52.402344 260.082031 " fill-opacity="1" fill-rule="nonzero"/></g><g clip-path="url(#5511cd7e2c)"><path fill="#000000" d="M 53.191406 230.851562 C 52.179688 229.835938 50.53125 229.835938 49.515625 230.851562 L 35.730469 244.636719 L 29.324219 238.242188 C 28.3125 237.230469 26.664062 237.230469 25.652344 238.242188 C 24.640625 239.253906 24.640625 240.902344 25.652344 241.914062 L 33.789062 250.054688 C 33.816406 250.089844 33.851562 250.113281 33.882812 250.148438 C 34.394531 250.660156 35.058594 250.914062 35.722656 250.90625 C 36.386719 250.90625 37.058594 250.648438 37.558594 250.148438 C 37.59375 250.113281 37.617188 250.089844 37.652344 250.054688 L 53.191406 234.515625 C 54.210938 233.503906 54.210938 231.863281 53.191406 230.851562 Z M 53.191406 230.851562 " fill-opacity="1" fill-rule="nonzero"/></g><g clip-path="url(#f15a43f783)"><g clip-path="url(#61f65851ae)"><path stroke-linecap="butt" transform="matrix(0.747768, 0, 0, 0.747768, 263.864612, 72.596151)" fill="none" stroke-linejoin="miter" d="M 11.997474 0.00201282 L 40.175087 0.00201282 C 43.356431 0.00201282 46.407177 1.266192 48.65867 3.512461 C 50.910162 5.763953 52.174341 8.8147 52.174341 12.001267 L 52.174341 40.173656 C 52.174341 43.355 50.910162 46.405746 48.65867 48.657239 C 46.407177 50.908731 43.356431 52.17291 40.175087 52.17291 L 11.997474 52.17291 C 8.816131 52.17291 5.765385 50.908731 3.513892 48.657239 C 1.262399 46.405746 -0.00177989 43.355 -0.00177989 40.173656 L -0.00177989 12.001267 C -0.00177989 8.8147 1.262399 5.763953 3.513892 3.512461 C 5.765385 1.266192 8.816131 0.00201282 11.997474 0.00201282 Z M 11.997474 0.00201282 " stroke="#ffffff" stroke-width="12" stroke-opacity="1" stroke-miterlimit="4"/></g></g><g clip-path="url(#b953db8a64)"><path fill="#ffffff" d="M 357.636719 111.773438 L 331.609375 111.773438 C 327.980469 111.773438 325.035156 108.828125 325.035156 105.199219 L 325.035156 79.171875 C 325.035156 75.539062 327.980469 72.597656 331.609375 72.597656 L 357.636719 72.597656 C 361.269531 72.597656 364.210938 75.539062 364.210938 79.171875 L 364.210938 105.199219 C 364.210938 108.828125 361.269531 111.773438 357.636719 111.773438 Z M 357.636719 111.773438 " fill-opacity="1" fill-rule="nonzero"/></g><g clip-path="url(#171ae72241)"><path fill="#000000" d="M 358.429688 82.539062 C 357.417969 81.527344 355.765625 81.527344 354.753906 82.539062 L 340.964844 96.328125 L 334.5625 89.929688 C 333.550781 88.917969 331.898438 88.917969 330.886719 89.929688 C 329.875 90.941406 329.875 92.59375 330.886719 93.605469 L 339.027344 101.746094 C 339.054688 101.777344 339.085938 101.804688 339.121094 101.835938 C 339.632812 102.347656 340.292969 102.601562 340.957031 102.59375 C 341.621094 102.59375 342.292969 102.339844 342.796875 101.835938 C 342.828125 101.804688 342.855469 101.777344 342.890625 101.746094 L 358.429688 86.203125 C 359.449219 85.191406 359.449219 83.550781 358.429688 82.539062 Z M 358.429688 82.539062 " fill-opacity="1" fill-rule="nonzero"/></g><g clip-path="url(#ffb7e5a5c4)"><path fill="#ffffff" d="M 296.765625 61.394531 L 270.738281 61.394531 C 267.105469 61.394531 264.164062 58.453125 264.164062 54.820312 L 264.164062 28.792969 C 264.164062 25.160156 267.105469 22.21875 270.738281 22.21875 L 296.765625 22.21875 C 300.398438 22.21875 303.339844 25.160156 303.339844 28.792969 L 303.339844 54.820312 C 303.339844 58.453125 300.398438 61.394531 296.765625 61.394531 Z M 296.765625 61.394531 " fill-opacity="1" fill-rule="nonzero"/></g><path fill="#000000" d="M 297.554688 32.160156 C 296.542969 31.148438 294.894531 31.148438 293.882812 32.160156 L 280.09375 45.949219 L 273.691406 39.554688 C 272.679688 38.539062 271.027344 38.539062 270.015625 39.554688 C 269.003906 40.566406 269.003906 42.214844 270.015625 43.226562 L 278.15625 51.367188 C 278.179688 51.402344 278.214844 51.425781 278.25 51.460938 C 278.757812 51.972656 279.421875 52.226562 280.085938 52.21875 C 280.75 52.21875 281.421875 51.960938 281.921875 51.460938 C 281.957031 51.425781 281.984375 51.402344 282.015625 51.367188 L 297.554688 35.828125 C 298.578125 34.816406 298.578125 33.175781 297.554688 32.160156 Z M 297.554688 32.160156 " fill-opacity="1" fill-rule="nonzero"/><g clip-path="url(#6eea2a2457)"><g clip-path="url(#2eafe4561c)"><path stroke-linecap="butt" transform="matrix(0.747768, 0, 0, 0.747768, 325.335217, 22.21891)" fill="none" stroke-linejoin="miter" d="M 12.000218 -0.000214578 L 40.172607 -0.000214578 C 43.35395 -0.000214578 46.404696 1.263965 48.656189 3.515457 C 50.907682 5.76695 52.171861 8.817696 52.171861 11.99904 L 52.171861 40.171429 C 52.171861 43.352772 50.907682 46.408742 48.656189 48.655011 C 46.404696 50.906504 43.35395 52.170683 40.172607 52.170683 L 12.000218 52.170683 C 8.818874 52.170683 5.762904 50.906504 3.516635 48.655011 C 1.265143 46.408742 0.00096336 43.352772 0.00096336 40.171429 L 0.00096336 11.99904 C 0.00096336 8.817696 1.265143 5.76695 3.516635 3.515457 C 5.762904 1.263965 8.818874 -0.000214578 12.000218 -0.000214578 Z M 12.000218 -0.000214578 " stroke="#ffffff" stroke-width="12" stroke-opacity="1" stroke-miterlimit="4"/></g></g><g clip-path="url(#3cff2f9ec2)"><g clip-path="url(#5195e16c7e)"><path stroke-linecap="butt" transform="matrix(0.747768, 0, 0, 0.747768, 19.79924, -27.003509)" fill="none" stroke-linejoin="miter" d="M 12.001316 -0.000530701 L 40.173705 -0.000530701 C 43.355048 -0.000530701 46.405795 1.263648 48.657287 3.515141 C 50.90878 5.766634 52.172959 8.81738 52.172959 11.998723 L 52.172959 40.171113 C 52.172959 43.35768 50.90878 46.408426 48.657287 48.659919 C 46.405795 50.906188 43.355048 52.170367 40.173705 52.170367 L 12.001316 52.170367 C 8.814749 52.170367 5.764002 50.906188 3.51251 48.659919 C 1.266241 46.408426 0.0020617 43.35768 0.0020617 40.171113 L 0.0020617 11.998723 C 0.0020617 8.81738 1.266241 5.766634 3.51251 3.515141 C 5.764002 1.263648 8.814749 -0.000530701 12.001316 -0.000530701 Z M 12.001316 -0.000530701 " stroke="#ffffff" stroke-width="12" stroke-opacity="1" stroke-miterlimit="4"/></g></g><g clip-path="url(#c2dc289503)"><path fill="#ffffff" d="M 113.570312 12.171875 L 87.546875 12.171875 C 83.914062 12.171875 80.96875 9.230469 80.96875 5.597656 L 80.96875 -20.429688 C 80.96875 -24.0625 83.914062 -27.003906 87.546875 -27.003906 L 113.570312 -27.003906 C 117.203125 -27.003906 120.148438 -24.0625 120.148438 -20.429688 L 120.148438 5.597656 C 120.148438 9.230469 117.203125 12.171875 113.570312 12.171875 Z M 113.570312 12.171875 " fill-opacity="1" fill-rule="nonzero"/></g><g clip-path="url(#368453f36b)"><path fill="#000000" d="M 114.363281 -17.0625 C 113.351562 -18.074219 111.699219 -18.074219 110.6875 -17.0625 L 96.902344 -3.273438 L 90.496094 -9.667969 C 89.484375 -10.679688 87.835938 -10.679688 86.824219 -9.667969 C 85.808594 -8.65625 85.808594 -7.007812 86.824219 -5.996094 L 94.960938 2.144531 C 94.988281 2.179688 95.023438 2.203125 95.054688 2.238281 C 95.566406 2.75 96.230469 3.003906 96.894531 2.996094 C 97.554688 2.996094 98.226562 2.738281 98.730469 2.238281 C 98.765625 2.203125 98.789062 2.179688 98.824219 2.144531 L 114.363281 -13.394531 C 115.382812 -14.40625 115.382812 -16.046875 114.363281 -17.0625 Z M 114.363281 -17.0625 " fill-opacity="1" fill-rule="nonzero"/></g><g clip-path="url(#d830332c1f)"><g clip-path="url(#1b052c733e)"><path stroke-linecap="butt" transform="matrix(0.747768, 0, 0, 0.747768, 141.671989, -27.003509)" fill="none" stroke-linejoin="miter" d="M 11.999102 -0.000530701 L 40.171491 -0.000530701 C 43.352835 -0.000530701 46.408805 1.263648 48.655074 3.515141 C 50.906567 5.766634 52.170746 8.81738 52.170746 11.998723 L 52.170746 40.171113 C 52.170746 43.35768 50.906567 46.408426 48.655074 48.659919 C 46.408805 50.906188 43.352835 52.170367 40.171491 52.170367 L 11.999102 52.170367 C 8.817759 52.170367 5.767013 50.906188 3.51552 48.659919 C 1.264027 46.408426 -0.000151807 43.35768 -0.000151807 40.171113 L -0.000151807 11.998723 C -0.000151807 8.81738 1.264027 5.766634 3.51552 3.515141 C 5.767013 1.263648 8.817759 -0.000530701 11.999102 -0.000530701 Z M 11.999102 -0.000530701 " stroke="#ffffff" stroke-width="12" stroke-opacity="1" stroke-miterlimit="4"/></g></g><g clip-path="url(#2b202ba136)"><path fill="#ffffff" d="M 235.144531 12.488281 L 209.117188 12.488281 C 205.488281 12.488281 202.542969 9.542969 202.542969 5.914062 L 202.542969 -20.113281 C 202.542969 -23.746094 205.488281 -26.6875 209.117188 -26.6875 L 235.144531 -26.6875 C 238.777344 -26.6875 241.71875 -23.746094 241.71875 -20.113281 L 241.71875 5.914062 C 241.71875 9.542969 238.777344 12.488281 235.144531 12.488281 Z M 235.144531 12.488281 " fill-opacity="1" fill-rule="nonzero"/></g><g clip-path="url(#e33db4925b)"><path fill="#000000" d="M 235.9375 -16.746094 C 234.925781 -17.757812 233.273438 -17.757812 232.261719 -16.746094 L 218.476562 -2.957031 L 212.070312 -9.355469 C 211.058594 -10.367188 209.40625 -10.367188 208.394531 -9.355469 C 207.382812 -8.34375 207.382812 -6.691406 208.394531 -5.679688 L 216.535156 2.460938 C 216.5625 2.492188 216.59375 2.519531 216.628906 2.554688 C 217.140625 3.0625 217.804688 3.316406 218.464844 3.308594 C 219.128906 3.308594 219.800781 3.054688 220.304688 2.554688 C 220.335938 2.519531 220.363281 2.492188 220.398438 2.460938 L 235.9375 -13.082031 C 236.957031 -14.09375 236.957031 -15.734375 235.9375 -16.746094 Z M 235.9375 -16.746094 " fill-opacity="1" fill-rule="nonzero"/></g><g clip-path="url(#72709881c6)"><g clip-path="url(#8d5eab68f8)"><path stroke-linecap="butt" transform="matrix(0.747768, 0, 0, 0.747768, 264.163894, -26.68887)" fill="none" stroke-linejoin="miter" d="M 11.99948 0.00183212 L 40.171869 0.00183212 C 43.353212 0.00183212 46.409182 1.266011 48.655451 3.51228 C 50.906944 5.763773 52.171123 8.814519 52.171123 12.001086 L 52.171123 40.173475 C 52.171123 43.354819 50.906944 46.405565 48.655451 48.657058 C 46.409182 50.90855 43.353212 52.17273 40.171869 52.17273 L 11.99948 52.17273 C 8.818136 52.17273 5.762166 50.90855 3.515897 48.657058 C 1.264404 46.405565 0.000225328 43.354819 0.000225328 40.173475 L 0.000225328 12.001086 C 0.000225328 8.814519 1.264404 5.763773 3.515897 3.51228 C 5.762166 1.266011 8.818136 0.00183212 11.99948 0.00183212 Z M 11.99948 0.00183212 " stroke="#ffffff" stroke-width="12" stroke-opacity="1" stroke-miterlimit="4"/></g></g><g clip-path="url(#17e3ba99df)"><path fill="#ffffff" d="M 357.9375 12.488281 L 331.910156 12.488281 C 328.277344 12.488281 325.335938 9.542969 325.335938 5.914062 L 325.335938 -20.113281 C 325.335938 -23.746094 328.277344 -26.6875 331.910156 -26.6875 L 357.9375 -26.6875 C 361.570312 -26.6875 364.511719 -23.746094 364.511719 -20.113281 L 364.511719 5.914062 C 364.511719 9.542969 361.570312 12.488281 357.9375 12.488281 Z M 357.9375 12.488281 " fill-opacity="1" fill-rule="nonzero"/></g><g clip-path="url(#d7c3d78855)"><path fill="#000000" d="M 358.726562 -16.746094 C 357.714844 -17.757812 356.066406 -17.757812 355.054688 -16.746094 L 341.265625 -2.957031 L 334.859375 -9.355469 C 333.847656 -10.367188 332.199219 -10.367188 331.1875 -9.355469 C 330.175781 -8.34375 330.175781 -6.691406 331.1875 -5.679688 L 339.328125 2.460938 C 339.351562 2.492188 339.386719 2.519531 339.421875 2.554688 C 339.929688 3.0625 340.59375 3.316406 341.257812 3.308594 C 341.921875 3.308594 342.59375 3.054688 343.09375 2.554688 C 343.128906 2.519531 343.152344 2.492188 343.1875 2.460938 L 358.726562 -13.082031 C 359.75 -14.09375 359.75 -15.734375 358.726562 -16.746094 Z M 358.726562 -16.746094 " fill-opacity="1" fill-rule="nonzero"/></g></g></g></g></g></svg>