<svg xmlns="http://www.w3.org/2000/svg" xmlns:xlink="http://www.w3.org/1999/xlink" width="868" zoomAndPan="magnify" viewBox="0 0 651 251.250001" height="335" preserveAspectRatio="xMidYMid meet" version="1.0"><defs><filter x="0%" y="0%" width="100%" height="100%" id="61826f7e3e"><feColorMatrix values="0 0 0 0 1 0 0 0 0 1 0 0 0 0 1 0 0 0 1 0" color-interpolation-filters="sRGB"/></filter><mask id="b80c32b129"><g filter="url(#61826f7e3e)"><rect x="-65.1" width="781.2" fill="#000000" y="-25.125" height="301.500001" fill-opacity="0.53"/></g></mask><clipPath id="78da80a190"><path d="M 13 8 L 70 8 L 70 66 L 13 66 Z M 13 8 " clip-rule="nonzero"/></clipPath><clipPath id="23e26c6c3c"><path d="M 22.820312 1.476562 L 72.363281 18.367188 L 53.539062 73.574219 L 3.996094 56.679688 Z M 22.820312 1.476562 " clip-rule="nonzero"/></clipPath><clipPath id="7747ccf335"><path d="M 22.820312 1.476562 L 72.363281 18.367188 L 53.539062 73.574219 L 3.996094 56.679688 Z M 22.820312 1.476562 " clip-rule="nonzero"/></clipPath><clipPath id="6ac80c14f7"><path d="M 27 26 L 51 26 L 51 51 L 27 51 Z M 27 26 " clip-rule="nonzero"/></clipPath><clipPath id="bbac79db52"><path d="M 22.820312 1.476562 L 72.363281 18.367188 L 53.539062 73.574219 L 3.996094 56.679688 Z M 22.820312 1.476562 " clip-rule="nonzero"/></clipPath><clipPath id="4194374e8d"><path d="M 22.820312 1.476562 L 72.363281 18.367188 L 53.539062 73.574219 L 3.996094 56.679688 Z M 22.820312 1.476562 " clip-rule="nonzero"/></clipPath><clipPath id="b0bdb6360b"><rect x="0" width="78" y="0" height="78"/></clipPath><mask id="6c894998f6"><g filter="url(#61826f7e3e)"><rect x="-65.1" width="781.2" fill="#000000" y="-25.125" height="301.500001" fill-opacity="0.53"/></g></mask><clipPath id="c12d7fb015"><path d="M 13 12 L 84 12 L 84 86 L 13 86 Z M 13 12 " clip-rule="nonzero"/></clipPath><clipPath id="472d1cb18d"><path d="M 2.589844 26.5 L 73.285156 4.53125 L 94.144531 71.65625 L 23.449219 93.625 Z M 2.589844 26.5 " clip-rule="nonzero"/></clipPath><clipPath id="803a742486"><path d="M 2.589844 26.5 L 73.285156 4.53125 L 94.144531 71.65625 L 23.449219 93.625 Z M 2.589844 26.5 " clip-rule="nonzero"/></clipPath><clipPath id="3a64458a00"><rect x="0" width="97" y="0" height="97"/></clipPath><mask id="f0690ae1b3"><g filter="url(#61826f7e3e)"><rect x="-65.1" width="781.2" fill="#000000" y="-25.125" height="301.500001" fill-opacity="0.53"/></g></mask><clipPath id="69c9a5375d"><path d="M 9 0 L 44 0 L 44 18 L 9 18 Z M 9 0 " clip-rule="nonzero"/></clipPath><clipPath id="7b0c3cca4d"><path d="M 27.15625 -24.804688 L 51.058594 1.972656 L 25.394531 24.875 L 1.496094 -1.902344 Z M 27.15625 -24.804688 " clip-rule="nonzero"/></clipPath><clipPath id="ae24c679cb"><path d="M 27.15625 -24.804688 L 51.058594 1.972656 L 25.394531 24.875 L 1.496094 -1.902344 Z M 27.15625 -24.804688 " clip-rule="nonzero"/></clipPath><clipPath id="191bf24875"><rect x="0" width="53" y="0" height="27"/></clipPath><mask id="070c1a10a5"><g filter="url(#61826f7e3e)"><rect x="-65.1" width="781.2" fill="#000000" y="-25.125" height="301.500001" fill-opacity="0.53"/></g></mask><clipPath id="def86b24d8"><path d="M 4 7 L 43 7 L 43 46 L 4 46 Z M 4 7 " clip-rule="nonzero"/></clipPath><clipPath id="41effd1408"><path d="M 2.09375 12.855469 L 36.3125 2.019531 L 48.273438 39.804688 L 14.054688 50.636719 Z M 2.09375 12.855469 " clip-rule="nonzero"/></clipPath><clipPath id="b1bb064c12"><path d="M 2.09375 12.855469 L 36.3125 2.019531 L 48.273438 39.804688 L 14.054688 50.636719 Z M 2.09375 12.855469 " clip-rule="nonzero"/></clipPath><clipPath id="9947b420ea"><path d="M 17 19 L 33 19 L 33 36 L 17 36 Z M 17 19 " clip-rule="nonzero"/></clipPath><clipPath id="eaa6a4e37c"><path d="M 2.09375 12.855469 L 36.3125 2.019531 L 48.273438 39.804688 L 14.054688 50.636719 Z M 2.09375 12.855469 " clip-rule="nonzero"/></clipPath><clipPath id="29fbfe410e"><path d="M 2.09375 12.855469 L 36.3125 2.019531 L 48.273438 39.804688 L 14.054688 50.636719 Z M 2.09375 12.855469 " clip-rule="nonzero"/></clipPath><clipPath id="bc3bff6990"><rect x="0" width="52" y="0" height="53"/></clipPath><mask id="36d3976f0b"><g filter="url(#61826f7e3e)"><rect x="-65.1" width="781.2" fill="#000000" y="-25.125" height="301.500001" fill-opacity="0.53"/></g></mask><clipPath id="45ad4917b7"><path d="M 18 11 L 94 11 L 94 87 L 18 87 Z M 18 11 " clip-rule="nonzero"/></clipPath><clipPath id="fd749ebdc7"><path d="M 33.265625 1.796875 L 97.136719 27.351562 L 68.53125 98.859375 L 4.65625 73.308594 Z M 33.265625 1.796875 " clip-rule="nonzero"/></clipPath><clipPath id="3ec9595745"><path d="M 33.265625 1.796875 L 97.136719 27.351562 L 68.53125 98.859375 L 4.65625 73.308594 Z M 33.265625 1.796875 " clip-rule="nonzero"/></clipPath><clipPath id="fe48b91aa9"><path d="M 36 36 L 67 36 L 67 68 L 36 68 Z M 36 36 " clip-rule="nonzero"/></clipPath><clipPath id="a18298776b"><path d="M 33.265625 1.796875 L 97.136719 27.351562 L 68.53125 98.859375 L 4.65625 73.308594 Z M 33.265625 1.796875 " clip-rule="nonzero"/></clipPath><clipPath id="677dd4166d"><path d="M 33.265625 1.796875 L 97.136719 27.351562 L 68.53125 98.859375 L 4.65625 73.308594 Z M 33.265625 1.796875 " clip-rule="nonzero"/></clipPath><clipPath id="c2d553d2db"><rect x="0" width="104" y="0" height="105"/></clipPath><clipPath id="cc1472f756"><path d="M 401 184 L 516 184 L 516 250.503906 L 401 250.503906 Z M 401 184 " clip-rule="nonzero"/></clipPath><mask id="b9d59979e8"><g filter="url(#61826f7e3e)"><rect x="-65.1" width="781.2" fill="#000000" y="-25.125" height="301.500001" fill-opacity="0.53"/></g></mask><clipPath id="cb122b46a2"><path d="M 19 20 L 96 20 L 96 66.503906 L 19 66.503906 Z M 19 20 " clip-rule="nonzero"/></clipPath><clipPath id="15e75e5db6"><path d="M 3.152344 56.929688 L 61.234375 4.097656 L 111.550781 59.414062 L 53.46875 112.246094 Z M 3.152344 56.929688 " clip-rule="nonzero"/></clipPath><clipPath id="c3535b5b26"><path d="M 3.152344 56.929688 L 61.234375 4.097656 L 111.550781 59.414062 L 53.46875 112.246094 Z M 3.152344 56.929688 " clip-rule="nonzero"/></clipPath><clipPath id="89becfbc60"><rect x="0" width="115" y="0" height="67"/></clipPath><mask id="0216c14e5f"><g filter="url(#61826f7e3e)"><rect x="-65.1" width="781.2" fill="#000000" y="-25.125" height="301.500001" fill-opacity="0.53"/></g></mask><clipPath id="3d11f92ddf"><path d="M 11 0 L 64 0 L 64 37 L 11 37 Z M 11 0 " clip-rule="nonzero"/></clipPath><clipPath id="72d2d90d6b"><path d="M 2.519531 -7.042969 L 55.792969 -24.5625 L 72.378906 25.871094 L 19.101562 43.390625 Z M 2.519531 -7.042969 " clip-rule="nonzero"/></clipPath><clipPath id="15783c7fa0"><path d="M 2.519531 -7.042969 L 55.792969 -24.5625 L 72.378906 25.871094 L 19.101562 43.390625 Z M 2.519531 -7.042969 " clip-rule="nonzero"/></clipPath><clipPath id="62c3629210"><rect x="0" width="74" y="0" height="46"/></clipPath><clipPath id="fd3664469c"><path d="M 612 0 L 650.03125 0 L 650.03125 33 L 612 33 Z M 612 0 " clip-rule="nonzero"/></clipPath><mask id="a4f8f45015"><g filter="url(#61826f7e3e)"><rect x="-65.1" width="781.2" fill="#000000" y="-25.125" height="301.500001" fill-opacity="0.53"/></g></mask><clipPath id="8a3c0be666"><path d="M 3 0 L 38 0 L 38 28 L 3 28 Z M 3 0 " clip-rule="nonzero"/></clipPath><clipPath id="b443addec8"><path d="M 2.042969 -6.003906 L 34.492188 -11.457031 L 40.5625 24.679688 L 8.113281 30.128906 Z M 2.042969 -6.003906 " clip-rule="nonzero"/></clipPath><clipPath id="9642b0b210"><path d="M 2.042969 -6.003906 L 34.492188 -11.457031 L 40.5625 24.679688 L 8.113281 30.128906 Z M 2.042969 -6.003906 " clip-rule="nonzero"/></clipPath><clipPath id="a9d050ee47"><path d="M 13 2 L 29 2 L 29 18 L 13 18 Z M 13 2 " clip-rule="nonzero"/></clipPath><clipPath id="c85a8989ef"><path d="M 2.042969 -6.003906 L 34.492188 -11.457031 L 40.5625 24.679688 L 8.113281 30.128906 Z M 2.042969 -6.003906 " clip-rule="nonzero"/></clipPath><clipPath id="a0f1acc218"><path d="M 2.042969 -6.003906 L 34.492188 -11.457031 L 40.5625 24.679688 L 8.113281 30.128906 Z M 2.042969 -6.003906 " clip-rule="nonzero"/></clipPath><clipPath id="441a1043c6"><rect x="0" width="39" y="0" height="33"/></clipPath><clipPath id="d2b74d43a6"><path d="M 531 218 L 583 218 L 583 250.503906 L 531 250.503906 Z M 531 218 " clip-rule="nonzero"/></clipPath><mask id="57383fc2e0"><g filter="url(#61826f7e3e)"><rect x="-65.1" width="781.2" fill="#000000" y="-25.125" height="301.500001" fill-opacity="0.53"/></g></mask><clipPath id="145dfbdafb"><path d="M 4 5 L 44 5 L 44 32.503906 L 4 32.503906 Z M 4 5 " clip-rule="nonzero"/></clipPath><clipPath id="536e325525"><path d="M 2.65625 9.035156 L 39.265625 1.457031 L 47.753906 42.460938 L 11.144531 50.042969 Z M 2.65625 9.035156 " clip-rule="nonzero"/></clipPath><clipPath id="095d358e76"><path d="M 2.65625 9.035156 L 39.265625 1.457031 L 47.753906 42.460938 L 11.144531 50.042969 Z M 2.65625 9.035156 " clip-rule="nonzero"/></clipPath><clipPath id="c851e7f701"><path d="M 16 17 L 34 17 L 34 32.503906 L 16 32.503906 Z M 16 17 " clip-rule="nonzero"/></clipPath><clipPath id="3ed2062efa"><path d="M 2.65625 9.035156 L 39.265625 1.457031 L 47.753906 42.460938 L 11.144531 50.042969 Z M 2.65625 9.035156 " clip-rule="nonzero"/></clipPath><clipPath id="36730a73d3"><path d="M 2.65625 9.035156 L 39.265625 1.457031 L 47.753906 42.460938 L 11.144531 50.042969 Z M 2.65625 9.035156 " clip-rule="nonzero"/></clipPath><clipPath id="e4845d66e8"><rect x="0" width="52" y="0" height="33"/></clipPath><mask id="5a604a9001"><g filter="url(#61826f7e3e)"><rect x="-65.1" width="781.2" fill="#000000" y="-25.125" height="301.500001" fill-opacity="0.53"/></g></mask><clipPath id="299ee38c04"><path d="M 10 11 L 55 11 L 55 54 L 10 54 Z M 10 11 " clip-rule="nonzero"/></clipPath><clipPath id="8bebb38a70"><path d="M 28.558594 2.125 L 63.273438 30.546875 L 36.269531 63.527344 L 1.554688 35.105469 Z M 28.558594 2.125 " clip-rule="nonzero"/></clipPath><clipPath id="16bae9dd71"><path d="M 28.558594 2.125 L 63.273438 30.546875 L 36.269531 63.527344 L 1.554688 35.105469 Z M 28.558594 2.125 " clip-rule="nonzero"/></clipPath><clipPath id="097fbaec3c"><rect x="0" width="65" y="0" height="66"/></clipPath><clipPath id="c65c2fcc35"><path d="M 615 130 L 650.03125 130 L 650.03125 207 L 615 207 Z M 615 130 " clip-rule="nonzero"/></clipPath><mask id="1f8be75292"><g filter="url(#61826f7e3e)"><rect x="-65.1" width="781.2" fill="#000000" y="-25.125" height="301.500001" fill-opacity="0.53"/></g></mask><clipPath id="6c51ceac28"><path d="M 11 10 L 35.03125 10 L 35.03125 66 L 11 66 Z M 11 10 " clip-rule="nonzero"/></clipPath><clipPath id="6aaf905b47"><path d="M 1.859375 24.726562 L 53.5625 3 L 74.132812 51.945312 L 22.429688 73.671875 Z M 1.859375 24.726562 " clip-rule="nonzero"/></clipPath><clipPath id="4df3e85afb"><path d="M 1.859375 24.726562 L 53.5625 3 L 74.132812 51.945312 L 22.429688 73.671875 Z M 1.859375 24.726562 " clip-rule="nonzero"/></clipPath><clipPath id="9376e660d0"><rect x="0" width="36" y="0" height="77"/></clipPath><clipPath id="830044ddd7"><path d="M 625 217 L 650.03125 217 L 650.03125 250.503906 L 625 250.503906 Z M 625 217 " clip-rule="nonzero"/></clipPath><mask id="2833531232"><g filter="url(#61826f7e3e)"><rect x="-65.1" width="781.2" fill="#000000" y="-25.125" height="301.500001" fill-opacity="0.53"/></g></mask><clipPath id="dfb2a54676"><path d="M 9 9 L 25.03125 9 L 25.03125 33.503906 L 9 33.503906 Z M 9 9 " clip-rule="nonzero"/></clipPath><clipPath id="530b9444a7"><path d="M 19.5 2.445312 L 56.234375 20.941406 L 38.410156 56.339844 L 1.675781 37.84375 Z M 19.5 2.445312 " clip-rule="nonzero"/></clipPath><clipPath id="bcc503ecf4"><path d="M 19.5 2.445312 L 56.234375 20.941406 L 38.410156 56.339844 L 1.675781 37.84375 Z M 19.5 2.445312 " clip-rule="nonzero"/></clipPath><clipPath id="50ec5bb4a1"><rect x="0" width="26" y="0" height="34"/></clipPath><mask id="508336f647"><g filter="url(#61826f7e3e)"><rect x="-65.1" width="781.2" fill="#000000" y="-25.125" height="301.500001" fill-opacity="0.53"/></g></mask><clipPath id="0b6185ea35"><path d="M 2 3 L 20 3 L 20 22 L 2 22 Z M 2 3 " clip-rule="nonzero"/></clipPath><clipPath id="d6379ba8a5"><path d="M 1.417969 6.5625 L 17.003906 1.304688 L 22.742188 18.308594 L 7.152344 23.566406 Z M 1.417969 6.5625 " clip-rule="nonzero"/></clipPath><clipPath id="1aa4bce66e"><path d="M 1.417969 6.5625 L 17.003906 1.304688 L 22.742188 18.308594 L 7.152344 23.566406 Z M 1.417969 6.5625 " clip-rule="nonzero"/></clipPath><clipPath id="a1d60fd02d"><path d="M 8 9 L 16 9 L 16 17 L 8 17 Z M 8 9 " clip-rule="nonzero"/></clipPath><clipPath id="aef85f3d28"><path d="M 1.417969 6.5625 L 17.003906 1.304688 L 22.742188 18.308594 L 7.152344 23.566406 Z M 1.417969 6.5625 " clip-rule="nonzero"/></clipPath><clipPath id="8bdb88e6ab"><path d="M 1.417969 6.5625 L 17.003906 1.304688 L 22.742188 18.308594 L 7.152344 23.566406 Z M 1.417969 6.5625 " clip-rule="nonzero"/></clipPath><clipPath id="f5ba0f9582"><rect x="0" width="25" y="0" height="25"/></clipPath><mask id="76ac6c9545"><g filter="url(#61826f7e3e)"><rect x="-65.1" width="781.2" fill="#000000" y="-25.125" height="301.500001" fill-opacity="0.53"/></g></mask><clipPath id="071981cf3e"><path d="M 4 3 L 26 3 L 26 26 L 4 26 Z M 4 3 " clip-rule="nonzero"/></clipPath><clipPath id="de8ed4411d"><path d="M 1.070312 8.011719 L 22.492188 1.355469 L 28.929688 22.0625 L 7.507812 28.722656 Z M 1.070312 8.011719 " clip-rule="nonzero"/></clipPath><clipPath id="6c3558cdf5"><path d="M 1.070312 8.011719 L 22.492188 1.355469 L 28.929688 22.0625 L 7.507812 28.722656 Z M 1.070312 8.011719 " clip-rule="nonzero"/></clipPath><clipPath id="94d068ecef"><rect x="0" width="30" y="0" height="30"/></clipPath><mask id="6dc389234b"><g filter="url(#61826f7e3e)"><rect x="-65.1" width="781.2" fill="#000000" y="-25.125" height="301.500001" fill-opacity="0.53"/></g></mask><clipPath id="f0acc9c68d"><path d="M 7 0 L 84 0 L 84 10 L 7 10 Z M 7 0 " clip-rule="nonzero"/></clipPath><clipPath id="ba488c6ff0"><path d="M 3.796875 -55.550781 L 71.519531 -76.992188 L 95.445312 -1.425781 L 27.722656 20.015625 Z M 3.796875 -55.550781 " clip-rule="nonzero"/></clipPath><clipPath id="213a15e0d0"><path d="M 3.796875 -55.550781 L 71.519531 -76.992188 L 95.445312 -1.425781 L 27.722656 20.015625 Z M 3.796875 -55.550781 " clip-rule="nonzero"/></clipPath><clipPath id="33694e7e64"><rect x="0" width="104" y="0" height="24"/></clipPath><clipPath id="d1544a1d2e"><path d="M 618 17 L 650.03125 17 L 650.03125 134 L 618 134 Z M 618 17 " clip-rule="nonzero"/></clipPath><mask id="f18e8a9471"><g filter="url(#61826f7e3e)"><rect x="-65.1" width="781.2" fill="#000000" y="-25.125" height="301.500001" fill-opacity="0.53"/></g></mask><clipPath id="b0c131c18a"><path d="M 8 14 L 32.03125 14 L 32.03125 101 L 8 101 Z M 8 14 " clip-rule="nonzero"/></clipPath><clipPath id="85de05bcf0"><path d="M 4.414062 28.695312 L 79.519531 3.359375 L 107.964844 87.675781 L 32.859375 113.011719 Z M 4.414062 28.695312 " clip-rule="nonzero"/></clipPath><clipPath id="ad73eb0706"><path d="M 4.414062 28.695312 L 79.519531 3.359375 L 107.964844 87.675781 L 32.859375 113.011719 Z M 4.414062 28.695312 " clip-rule="nonzero"/></clipPath><clipPath id="d0ff62ed07"><rect x="0" width="33" y="0" height="117"/></clipPath></defs><g mask="url(#b80c32b129)"><g transform="matrix(1, 0, 0, 1, 355, 29)"><g clip-path="url(#b0bdb6360b)"><g clip-path="url(#78da80a190)"><g clip-path="url(#23e26c6c3c)"><g clip-path="url(#7747ccf335)"><path fill="#ffffff" d="M 47.527344 9.917969 C 40.503906 10.722656 31.410156 11.277344 22.195312 9.042969 C 21.210938 8.804688 20.234375 9.324219 19.949219 10.238281 C 17.132812 19.273438 13.46875 30.726562 13.441406 36.375 C 13.21875 47.273438 19.246094 58.195312 28.542969 64.753906 C 28.878906 64.996094 29.238281 65.117188 29.652344 65.125 C 41.109375 65.476562 51.933594 60.480469 58.546875 51.761719 C 62.855469 46.09375 66.15625 36.007812 69.363281 27.074219 C 69.6875 26.179688 69.226562 25.179688 68.304688 24.773438 C 59.605469 20.90625 52.714844 14.898438 47.628906 9.953125 Z M 45.179688 16.886719 C 39.933594 17.488281 33.140625 17.902344 26.257812 16.234375 C 25.523438 16.054688 24.792969 16.445312 24.578125 17.125 C 22.476562 23.875 19.734375 32.429688 19.722656 36.648438 C 19.554688 44.789062 24.054688 52.945312 30.996094 57.847656 C 31.25 58.023438 31.515625 58.113281 31.828125 58.125 C 40.386719 58.386719 48.472656 54.652344 53.410156 48.140625 C 56.625 43.90625 59.09375 36.375 61.488281 29.703125 C 61.726562 29.03125 61.386719 28.289062 60.699219 27.984375 C 54.203125 25.09375 49.054688 20.605469 45.25 16.914062 Z M 45.179688 16.886719 " fill-opacity="1" fill-rule="evenodd"/></g></g></g><g clip-path="url(#6ac80c14f7)"><g clip-path="url(#bbac79db52)"><g clip-path="url(#4194374e8d)"><path fill="#ffffff" d="M 42.253906 27.535156 L 42.121094 35.519531 L 49.683594 38.082031 C 49.945312 38.167969 50.113281 38.402344 50.105469 38.679688 C 50.101562 38.953125 49.929688 39.183594 49.667969 39.261719 L 42.035156 41.605469 L 41.933594 49.589844 C 41.929688 49.863281 41.757812 50.097656 41.5 50.175781 C 41.238281 50.253906 40.964844 50.164062 40.808594 49.9375 L 36.21875 43.402344 L 28.59375 45.773438 C 28.332031 45.855469 28.058594 45.761719 27.902344 45.539062 C 27.746094 45.316406 27.75 45.027344 27.914062 44.8125 L 32.710938 38.425781 L 28.101562 31.90625 C 27.941406 31.6875 27.945312 31.394531 28.109375 31.179688 C 28.273438 30.957031 28.550781 30.875 28.808594 30.960938 L 36.359375 33.554688 L 41.132812 27.152344 C 41.300781 26.933594 41.574219 26.847656 41.832031 26.9375 C 42.089844 27.023438 42.257812 27.261719 42.253906 27.535156 Z M 42.253906 27.535156 " fill-opacity="1" fill-rule="evenodd"/></g></g></g></g></g></g><g mask="url(#6c894998f6)"><g transform="matrix(1, 0, 0, 1, 425, 50)"><g clip-path="url(#3a64458a00)"><g clip-path="url(#c12d7fb015)"><g clip-path="url(#472d1cb18d)"><g clip-path="url(#803a742486)"><path fill="#ffffff" d="M 81.453125 36.070312 L 77.582031 33.953125 C 74.769531 32.410156 72.820312 29.65625 72.308594 26.488281 L 71.601562 22.132812 C 71.289062 20.226562 69.523438 18.90625 67.605469 19.152344 L 63.230469 19.710938 C 60.046875 20.121094 56.851562 19.039062 54.574219 16.777344 L 51.441406 13.667969 C 50.074219 12.316406 47.867188 12.285156 46.460938 13.613281 L 43.253906 16.636719 C 40.917969 18.835938 37.695312 19.835938 34.527344 19.347656 L 30.164062 18.675781 C 28.257812 18.378906 26.453125 19.65625 26.097656 21.554688 L 25.277344 25.886719 C 24.683594 29.042969 22.667969 31.746094 19.8125 33.214844 L 15.890625 35.230469 C 14.171875 36.113281 13.460938 38.203125 14.285156 39.949219 L 16.171875 43.9375 C 17.546875 46.839844 17.5 50.210938 16.054688 53.078125 L 14.070312 57.015625 C 13.195312 58.742188 13.851562 60.847656 15.546875 61.773438 L 19.417969 63.894531 C 22.230469 65.433594 24.179688 68.1875 24.695312 71.355469 L 25.402344 75.710938 C 25.710938 77.617188 27.476562 78.9375 29.398438 78.691406 L 33.769531 78.132812 C 36.953125 77.726562 40.148438 78.804688 42.429688 81.070312 L 45.558594 84.175781 C 46.929688 85.535156 49.136719 85.566406 50.542969 84.238281 L 53.753906 81.214844 C 56.085938 79.015625 59.308594 78.011719 62.480469 78.5 L 66.839844 79.175781 C 68.75 79.46875 70.546875 78.195312 70.910156 76.296875 L 71.726562 71.964844 C 72.324219 68.808594 74.339844 66.105469 77.195312 64.636719 L 81.117188 62.617188 C 82.835938 61.734375 83.546875 59.644531 82.71875 57.898438 L 80.832031 53.910156 C 79.460938 51.007812 79.503906 47.632812 80.949219 44.769531 L 82.9375 40.832031 C 83.800781 39.105469 83.148438 37 81.453125 36.070312 Z M 46.664062 62.960938 L 36.707031 57.722656 C 35.011719 56.832031 34.359375 54.734375 35.25 53.039062 C 36.140625 51.347656 38.242188 50.695312 39.933594 51.585938 L 46.820312 55.207031 L 57.292969 35.292969 C 58.179688 33.597656 60.28125 32.945312 61.976562 33.835938 C 63.667969 34.726562 64.320312 36.828125 63.429688 38.519531 L 51.347656 61.503906 C 50.457031 63.195312 48.355469 63.851562 46.664062 62.960938 Z M 46.664062 62.960938 " fill-opacity="1" fill-rule="nonzero"/></g></g></g></g></g></g><g mask="url(#f0690ae1b3)"><g transform="matrix(1, 0, 0, 1, 443, -0.000000000000022503)"><g clip-path="url(#191bf24875)"><g clip-path="url(#69c9a5375d)"><g clip-path="url(#7b0c3cca4d)"><g clip-path="url(#ae24c679cb)"><path fill="#ffffff" d="M 38.804688 11.988281 L 38.960938 9.851562 C 39.078125 8.296875 39.902344 6.878906 41.199219 6.015625 L 42.980469 4.824219 C 43.765625 4.304688 43.992188 3.257812 43.496094 2.457031 L 42.367188 0.636719 C 41.546875 -0.6875 41.382812 -2.316406 41.921875 -3.78125 L 42.667969 -5.789062 C 42.988281 -6.667969 42.558594 -7.652344 41.6875 -8.003906 L 39.707031 -8.8125 C 38.261719 -9.402344 37.171875 -10.625 36.75 -12.128906 L 36.167969 -14.191406 C 35.914062 -15.09375 34.988281 -15.632812 34.078125 -15.410156 L 31.996094 -14.898438 C 30.480469 -14.527344 28.882812 -14.875 27.65625 -15.839844 L 25.976562 -17.167969 C 25.238281 -17.75 24.171875 -17.644531 23.566406 -16.925781 L 22.183594 -15.289062 C 21.175781 -14.097656 19.675781 -13.441406 18.117188 -13.5 L 15.976562 -13.585938 C 15.039062 -13.625 14.238281 -12.914062 14.171875 -11.976562 L 14.011719 -9.835938 C 13.898438 -8.285156 13.074219 -6.867188 11.777344 -6.003906 L 9.992188 -4.8125 C 9.210938 -4.292969 8.984375 -3.246094 9.480469 -2.445312 L 10.605469 -0.625 C 11.429688 0.699219 11.59375 2.332031 11.050781 3.792969 L 10.308594 5.804688 C 9.984375 6.683594 10.414062 7.664062 11.285156 8.019531 L 13.269531 8.832031 C 14.710938 9.417969 15.800781 10.644531 16.226562 12.144531 L 16.804688 14.207031 C 17.058594 15.109375 17.984375 15.648438 18.898438 15.425781 L 20.976562 14.914062 C 22.492188 14.542969 24.09375 14.890625 25.316406 15.855469 L 27 17.183594 C 27.734375 17.765625 28.804688 17.660156 29.410156 16.941406 L 30.792969 15.304688 C 31.796875 14.113281 33.300781 13.453125 34.855469 13.515625 L 37 13.601562 C 37.933594 13.636719 38.734375 12.925781 38.804688 11.988281 Z M 19.910156 2.019531 L 20.222656 -3.4375 C 20.273438 -4.363281 21.070312 -5.074219 22 -5.023438 C 22.925781 -4.96875 23.636719 -4.171875 23.585938 -3.246094 L 23.371094 0.527344 L 34.285156 1.148438 C 35.210938 1.203125 35.921875 2 35.871094 2.925781 C 35.816406 3.855469 35.019531 4.566406 34.09375 4.511719 L 21.5 3.796875 C 20.570312 3.746094 19.859375 2.949219 19.910156 2.019531 Z M 19.910156 2.019531 " fill-opacity="1" fill-rule="nonzero"/></g></g></g></g></g></g><g mask="url(#070c1a10a5)"><g transform="matrix(1, 0, 0, 1, 379, 131)"><g clip-path="url(#bc3bff6990)"><g clip-path="url(#def86b24d8)"><g clip-path="url(#41effd1408)"><g clip-path="url(#b1bb064c12)"><path fill="#ffffff" d="M 19.144531 7.464844 C 15.601562 10.765625 10.8125 14.765625 4.824219 17.277344 C 4.1875 17.546875 3.859375 18.230469 4.070312 18.851562 C 6.191406 24.976562 8.824219 32.78125 11.109375 35.90625 C 15.414062 42.007812 23.175781 45.578125 30.964844 45.417969 C 31.25 45.410156 31.496094 45.332031 31.730469 45.171875 C 38.1875 40.707031 42.125 33.550781 42.230469 26.058594 C 42.300781 21.179688 40.023438 14.28125 38.160156 8.050781 C 37.972656 7.425781 37.3125 7.0625 36.640625 7.210938 C 30.273438 8.613281 24.03125 8.101562 19.214844 7.445312 Z M 20.6875 12.261719 C 18.035156 14.726562 14.460938 17.714844 9.988281 19.59375 C 9.511719 19.792969 9.265625 20.304688 9.425781 20.765625 C 11.007812 25.34375 12.972656 31.171875 14.679688 33.503906 C 17.898438 38.058594 23.691406 40.726562 29.511719 40.609375 C 29.722656 40.605469 29.910156 40.546875 30.082031 40.425781 C 34.90625 37.089844 37.847656 31.746094 37.925781 26.148438 C 37.976562 22.507812 36.277344 17.351562 34.886719 12.699219 C 34.746094 12.234375 34.253906 11.960938 33.75 12.074219 C 28.996094 13.121094 24.332031 12.738281 20.734375 12.246094 Z M 20.6875 12.261719 " fill-opacity="1" fill-rule="evenodd"/></g></g></g><g clip-path="url(#9947b420ea)"><g clip-path="url(#eaa6a4e37c)"><g clip-path="url(#29fbfe410e)"><path fill="#ffffff" d="M 23.398438 19.320312 L 26.570312 23.777344 L 31.78125 22.117188 C 31.960938 22.058594 32.148438 22.121094 32.257812 22.273438 C 32.367188 22.425781 32.367188 22.625 32.253906 22.773438 L 28.996094 27.167969 L 32.1875 31.613281 C 32.296875 31.765625 32.296875 31.960938 32.183594 32.113281 C 32.074219 32.261719 31.886719 32.320312 31.707031 32.261719 L 26.523438 30.523438 L 23.28125 34.929688 C 23.171875 35.082031 22.984375 35.140625 22.804688 35.082031 C 22.628906 35.023438 22.511719 34.863281 22.515625 34.675781 L 22.566406 29.207031 L 17.375 27.484375 C 17.195312 27.429688 17.078125 27.265625 17.082031 27.078125 C 17.082031 26.890625 17.199219 26.734375 17.378906 26.675781 L 22.597656 25.035156 L 22.628906 19.566406 C 22.628906 19.378906 22.746094 19.21875 22.925781 19.164062 C 23.101562 19.105469 23.289062 19.171875 23.398438 19.320312 Z M 23.398438 19.320312 " fill-opacity="1" fill-rule="evenodd"/></g></g></g></g></g></g><g mask="url(#36d3976f0b)"><g transform="matrix(1, 0, 0, 1, 517, 118)"><g clip-path="url(#c2d553d2db)"><g clip-path="url(#45ad4917b7)"><g clip-path="url(#fd749ebdc7)"><g clip-path="url(#3ec9595745)"><path fill="#ffffff" d="M 65.351562 14.660156 C 56.011719 15.242188 43.945312 15.351562 31.921875 11.761719 C 30.636719 11.378906 29.304688 12 28.867188 13.1875 C 24.519531 24.941406 18.886719 39.832031 18.464844 47.300781 C 17.417969 61.695312 24.636719 76.546875 36.480469 85.863281 C 36.910156 86.203125 37.375 86.386719 37.921875 86.429688 C 53.046875 87.683594 67.703125 81.816406 77.046875 70.746094 C 83.128906 63.546875 88.191406 50.441406 93.046875 38.847656 C 93.535156 37.6875 92.992188 36.332031 91.804688 35.730469 C 80.570312 30.019531 71.867188 21.601562 65.484375 14.710938 Z M 61.769531 23.714844 C 54.789062 24.148438 45.78125 24.226562 36.796875 21.550781 C 35.835938 21.265625 34.84375 21.726562 34.515625 22.613281 C 31.269531 31.394531 27.058594 42.515625 26.75 48.09375 C 25.96875 58.84375 31.359375 69.9375 40.199219 76.898438 C 40.523438 77.148438 40.871094 77.285156 41.28125 77.320312 C 52.578125 78.253906 63.527344 73.871094 70.503906 65.601562 C 75.046875 60.226562 78.828125 50.4375 82.453125 41.78125 C 82.8125 40.910156 82.414062 39.902344 81.527344 39.453125 C 73.136719 35.183594 66.636719 28.894531 61.863281 23.753906 Z M 61.769531 23.714844 " fill-opacity="1" fill-rule="evenodd"/></g></g></g><g clip-path="url(#fe48b91aa9)"><g clip-path="url(#a18298776b)"><g clip-path="url(#677dd4166d)"><path fill="#ffffff" d="M 57.167969 37.589844 L 56.445312 48.140625 L 66.269531 52.046875 C 66.605469 52.179688 66.8125 52.503906 66.785156 52.867188 C 66.761719 53.226562 66.515625 53.519531 66.167969 53.605469 L 55.910156 56.183594 L 55.230469 66.734375 C 55.207031 67.09375 54.960938 67.386719 54.613281 67.472656 C 54.261719 67.5625 53.90625 67.421875 53.714844 67.113281 L 48.097656 58.15625 L 37.855469 60.769531 C 37.503906 60.859375 37.148438 60.71875 36.957031 60.410156 C 36.761719 60.105469 36.789062 59.726562 37.019531 59.449219 L 43.800781 51.335938 L 38.152344 42.398438 C 37.960938 42.097656 37.980469 41.714844 38.214844 41.4375 C 38.449219 41.15625 38.820312 41.066406 39.152344 41.199219 L 48.960938 45.144531 L 55.714844 37.011719 C 55.949219 36.734375 56.316406 36.636719 56.652344 36.773438 C 56.988281 36.90625 57.191406 37.230469 57.167969 37.589844 Z M 57.167969 37.589844 " fill-opacity="1" fill-rule="evenodd"/></g></g></g></g></g></g><g clip-path="url(#cc1472f756)"><g mask="url(#b9d59979e8)"><g transform="matrix(1, 0, 0, 1, 401, 184)"><g clip-path="url(#89becfbc60)"><g clip-path="url(#cb122b46a2)"><g clip-path="url(#15e75e5db6)"><g clip-path="url(#c3535b5b26)"><path fill="#ffffff" d="M 83.152344 30.769531 L 78.488281 30.46875 C 75.097656 30.253906 71.992188 28.480469 70.078125 25.671875 L 67.449219 21.804688 C 66.296875 20.113281 64.007812 19.640625 62.277344 20.734375 L 58.328125 23.234375 C 55.453125 25.050781 51.902344 25.445312 48.699219 24.292969 L 44.300781 22.714844 C 42.378906 22.027344 40.246094 22.988281 39.492188 24.890625 L 37.769531 29.230469 C 36.515625 32.390625 33.867188 34.796875 30.605469 35.75 L 26.117188 37.058594 C 24.152344 37.628906 22.992188 39.660156 23.5 41.644531 L 24.65625 46.171875 C 25.5 49.46875 24.777344 52.964844 22.691406 55.65625 L 19.832031 59.351562 C 18.578125 60.96875 18.832031 63.292969 20.40625 64.601562 L 24.003906 67.582031 C 26.625 69.753906 28.09375 73.011719 27.988281 76.410156 L 27.847656 81.082031 C 27.785156 83.132812 29.355469 84.859375 31.402344 84.988281 L 36.066406 85.289062 C 39.457031 85.503906 42.5625 87.277344 44.476562 90.089844 L 47.105469 93.953125 C 48.257812 95.644531 50.546875 96.117188 52.28125 95.023438 L 56.226562 92.527344 C 59.101562 90.707031 62.652344 90.3125 65.855469 91.464844 L 70.253906 93.042969 C 72.179688 93.738281 74.3125 92.777344 75.070312 90.871094 L 76.792969 86.527344 C 78.050781 83.371094 80.695312 80.964844 83.957031 80.011719 L 88.441406 78.703125 C 90.410156 78.132812 91.566406 76.101562 91.0625 74.117188 L 89.90625 69.589844 C 89.066406 66.292969 89.785156 62.796875 91.871094 60.105469 L 94.730469 56.410156 C 95.988281 54.792969 95.730469 52.464844 94.152344 51.160156 L 90.554688 48.175781 C 87.9375 46.007812 86.464844 42.746094 86.570312 39.347656 L 86.714844 34.675781 C 86.769531 32.632812 85.199219 30.902344 83.152344 30.769531 Z M 61.804688 72.179688 L 49.898438 71.617188 C 47.875 71.519531 46.304688 69.796875 46.402344 67.773438 C 46.496094 65.746094 48.222656 64.179688 50.246094 64.273438 L 58.480469 64.664062 L 59.609375 40.851562 C 59.703125 38.828125 61.429688 37.261719 63.453125 37.355469 C 65.476562 37.453125 67.046875 39.175781 66.949219 41.199219 L 65.648438 68.683594 C 65.554688 70.707031 63.828125 72.277344 61.804688 72.179688 Z M 61.804688 72.179688 " fill-opacity="1" fill-rule="nonzero"/></g></g></g></g></g></g></g><g mask="url(#0216c14e5f)"><g transform="matrix(1, 0, 0, 1, 521, -0.000000000000022503)"><g clip-path="url(#62c3629210)"><g clip-path="url(#3d11f92ddf)"><g clip-path="url(#72d2d90d6b)"><g clip-path="url(#15783c7fa0)"><path fill="#ffffff" d="M 62.1875 -0.792969 L 59.242188 -2.34375 C 57.097656 -3.472656 55.589844 -5.527344 55.164062 -7.914062 L 54.578125 -11.195312 C 54.320312 -12.632812 52.96875 -13.605469 51.523438 -13.394531 L 48.226562 -12.917969 C 45.828125 -12.570312 43.402344 -13.347656 41.652344 -15.03125 L 39.25 -17.335938 C 38.199219 -18.34375 36.53125 -18.339844 35.488281 -17.320312 L 33.101562 -14.996094 C 31.367188 -13.304688 28.945312 -12.507812 26.542969 -12.839844 L 23.242188 -13.292969 C 21.796875 -13.492188 20.453125 -12.507812 20.207031 -11.070312 L 19.640625 -7.785156 C 19.230469 -5.394531 17.742188 -3.332031 15.605469 -2.1875 L 12.667969 -0.613281 C 11.378906 0.0742188 10.871094 1.660156 11.515625 2.96875 L 12.988281 5.957031 C 14.0625 8.128906 14.070312 10.679688 13.015625 12.859375 L 11.5625 15.859375 C 10.925781 17.175781 11.445312 18.753906 12.738281 19.433594 L 15.6875 20.988281 C 17.832031 22.113281 19.335938 24.171875 19.761719 26.558594 L 20.351562 29.835938 C 20.609375 31.273438 21.960938 32.246094 23.40625 32.039062 L 26.703125 31.5625 C 29.101562 31.214844 31.527344 31.992188 33.277344 33.671875 L 35.679688 35.980469 C 36.730469 36.992188 38.398438 36.984375 39.445312 35.964844 L 41.828125 33.644531 C 43.566406 31.953125 45.988281 31.15625 48.386719 31.484375 L 51.6875 31.941406 C 53.132812 32.140625 54.476562 31.15625 54.726562 29.714844 L 55.289062 26.433594 C 55.699219 24.046875 57.1875 21.976562 59.328125 20.832031 L 62.265625 19.261719 C 63.550781 18.574219 64.0625 16.984375 63.414062 15.675781 L 61.941406 12.6875 C 60.867188 10.515625 60.859375 7.964844 61.917969 5.785156 L 63.367188 2.785156 C 64 1.472656 63.480469 -0.109375 62.1875 -0.792969 Z M 36.25 19.945312 L 28.664062 16.113281 C 27.375 15.460938 26.855469 13.886719 27.507812 12.59375 C 28.160156 11.304688 29.738281 10.785156 31.027344 11.4375 L 36.273438 14.085938 L 43.933594 -1.078125 C 44.585938 -2.371094 46.164062 -2.886719 47.453125 -2.238281 C 48.742188 -1.585938 49.261719 -0.0078125 48.609375 1.28125 L 39.769531 18.789062 C 39.117188 20.078125 37.539062 20.597656 36.25 19.945312 Z M 36.25 19.945312 " fill-opacity="1" fill-rule="nonzero"/></g></g></g></g></g></g><g clip-path="url(#fd3664469c)"><g mask="url(#a4f8f45015)"><g transform="matrix(1, 0, 0, 1, 612, -0.000000000000022503)"><g clip-path="url(#441a1043c6)"><g clip-path="url(#8a3c0be666)"><g clip-path="url(#b443addec8)"><g clip-path="url(#9642b0b210)"><path fill="#ffffff" d="M 18.402344 -8.746094 C 14.71875 -6.175781 9.804688 -3.121094 3.980469 -1.589844 C 3.355469 -1.425781 2.96875 -0.839844 3.082031 -0.242188 C 4.234375 5.65625 5.644531 13.167969 7.335938 16.332031 C 10.5 22.492188 17.160156 26.777344 24.339844 27.636719 C 24.601562 27.667969 24.835938 27.628906 25.070312 27.511719 C 31.582031 24.25 36.125 18.1875 37.191406 11.320312 C 37.886719 6.851562 36.691406 0.21875 35.789062 -5.742188 C 35.695312 -6.339844 35.136719 -6.761719 34.5 -6.710938 C 28.472656 -6.246094 22.804688 -7.527344 18.46875 -8.753906 Z M 19.195312 -4.140625 C 16.441406 -2.21875 12.769531 0.0625 8.417969 1.207031 C 7.953125 1.328125 7.664062 1.765625 7.75 2.210938 C 8.613281 6.617188 9.660156 12.226562 10.925781 14.589844 C 13.289062 19.1875 18.265625 22.390625 23.625 23.035156 C 23.820312 23.058594 24 23.027344 24.175781 22.941406 C 29.039062 20.503906 32.429688 15.976562 33.226562 10.84375 C 33.746094 7.507812 32.851562 2.554688 32.179688 -1.898438 C 32.109375 -2.34375 31.695312 -2.65625 31.21875 -2.621094 C 26.714844 -2.277344 22.480469 -3.230469 19.242188 -4.148438 Z M 19.195312 -4.140625 " fill-opacity="1" fill-rule="evenodd"/></g></g></g><g clip-path="url(#a9d050ee47)"><g clip-path="url(#c85a8989ef)"><g clip-path="url(#a0f1acc218)"><path fill="#ffffff" d="M 20.773438 2.695312 L 23.105469 7.199219 L 28.109375 6.347656 C 28.28125 6.316406 28.445312 6.398438 28.523438 6.554688 C 28.605469 6.707031 28.578125 6.890625 28.457031 7.011719 L 24.894531 10.628906 L 27.25 15.121094 C 27.328125 15.273438 27.304688 15.457031 27.179688 15.578125 C 27.058594 15.703125 26.878906 15.734375 26.722656 15.65625 L 22.1875 13.386719 L 18.640625 17.011719 C 18.519531 17.136719 18.339844 17.167969 18.183594 17.089844 C 18.027344 17.015625 17.941406 16.851562 17.96875 16.679688 L 18.722656 11.664062 L 14.179688 9.410156 C 14.023438 9.335938 13.9375 9.171875 13.964844 9 C 13.988281 8.828125 14.117188 8.699219 14.289062 8.667969 L 19.292969 7.839844 L 20.03125 2.820312 C 20.058594 2.648438 20.183594 2.515625 20.355469 2.488281 C 20.527344 2.457031 20.691406 2.542969 20.773438 2.695312 Z M 20.773438 2.695312 " fill-opacity="1" fill-rule="evenodd"/></g></g></g></g></g></g></g><g clip-path="url(#d2b74d43a6)"><g mask="url(#57383fc2e0)"><g transform="matrix(1, 0, 0, 1, 531, 218)"><g clip-path="url(#e4845d66e8)"><g clip-path="url(#145dfbdafb)"><g clip-path="url(#536e325525)"><g clip-path="url(#095d358e76)"><path fill="#ffffff" d="M 21.003906 5.25 C 16.957031 8.304688 11.539062 11.964844 5.027344 13.941406 C 4.332031 14.152344 3.917969 14.832031 4.074219 15.496094 C 5.625 22.109375 7.535156 30.527344 9.578125 34.027344 C 13.410156 40.847656 21.117188 45.402344 29.253906 46.070312 C 29.550781 46.09375 29.816406 46.039062 30.078125 45.894531 C 37.289062 41.9375 42.160156 34.898438 43.070312 27.097656 C 43.664062 22.027344 42.03125 14.589844 40.757812 7.898438 C 40.632812 7.226562 39.984375 6.777344 39.265625 6.859375 C 32.476562 7.636719 26.027344 6.4375 21.082031 5.234375 Z M 22.09375 10.414062 C 19.070312 12.695312 15.019531 15.429688 10.160156 16.90625 C 9.640625 17.0625 9.332031 17.570312 9.445312 18.066406 C 10.605469 23.007812 12.03125 29.296875 13.558594 31.910156 C 16.421875 37 22.175781 40.402344 28.253906 40.902344 C 28.476562 40.921875 28.675781 40.878906 28.871094 40.773438 C 34.257812 37.8125 37.894531 32.558594 38.574219 26.730469 C 39.019531 22.945312 37.800781 17.386719 36.847656 12.390625 C 36.75 11.890625 36.269531 11.554688 35.734375 11.617188 C 30.664062 12.199219 25.84375 11.300781 22.148438 10.402344 Z M 22.09375 10.414062 " fill-opacity="1" fill-rule="evenodd"/></g></g></g><g clip-path="url(#c851e7f701)"><g clip-path="url(#3ed2062efa)"><g clip-path="url(#36730a73d3)"><path fill="#ffffff" d="M 24.167969 18.0625 L 26.996094 23.046875 L 32.605469 21.871094 C 32.796875 21.832031 32.988281 21.917969 33.082031 22.089844 C 33.179688 22.257812 33.15625 22.464844 33.023438 22.609375 L 29.160156 26.839844 L 32.007812 31.8125 C 32.105469 31.984375 32.082031 32.191406 31.953125 32.332031 C 31.820312 32.480469 31.617188 32.519531 31.4375 32.4375 L 26.21875 30.070312 L 22.371094 34.316406 C 22.238281 34.460938 22.035156 34.503906 21.855469 34.421875 C 21.679688 34.34375 21.578125 34.164062 21.597656 33.96875 L 22.238281 28.273438 L 17.011719 25.921875 C 16.832031 25.84375 16.726562 25.664062 16.75 25.46875 C 16.773438 25.273438 16.910156 25.121094 17.101562 25.082031 L 22.71875 23.929688 L 23.335938 18.234375 C 23.359375 18.039062 23.496094 17.886719 23.6875 17.84375 C 23.878906 17.804688 24.070312 17.890625 24.167969 18.0625 Z M 24.167969 18.0625 " fill-opacity="1" fill-rule="evenodd"/></g></g></g></g></g></g></g><g mask="url(#5a604a9001)"><g transform="matrix(1, 0, 0, 1, 551, 49)"><g clip-path="url(#097fbaec3c)"><g clip-path="url(#299ee38c04)"><g clip-path="url(#8bebb38a70)"><g clip-path="url(#16bae9dd71)"><path fill="#ffffff" d="M 49.902344 44.917969 L 49.683594 42.269531 C 49.523438 40.347656 50.261719 38.453125 51.683594 37.144531 L 53.636719 35.347656 C 54.492188 34.558594 54.566406 33.234375 53.808594 32.351562 L 52.078125 30.339844 C 50.816406 28.875 50.300781 26.910156 50.679688 25.015625 L 51.203125 22.414062 C 51.429688 21.277344 50.714844 20.15625 49.582031 19.890625 L 47 19.28125 C 45.117188 18.839844 43.546875 17.550781 42.742188 15.796875 L 41.632812 13.382812 C 41.148438 12.324219 39.910156 11.84375 38.839844 12.292969 L 36.390625 13.320312 C 34.605469 14.066406 32.582031 13.949219 30.894531 13 L 28.582031 11.703125 C 27.566406 11.128906 26.285156 11.464844 25.679688 12.460938 L 24.300781 14.730469 C 23.300781 16.382812 21.589844 17.480469 19.671875 17.703125 L 17.035156 18.007812 C 15.878906 18.144531 15.035156 19.171875 15.132812 20.332031 L 15.351562 22.976562 C 15.511719 24.902344 14.773438 26.796875 13.351562 28.101562 L 11.398438 29.902344 C 10.542969 30.691406 10.46875 32.015625 11.226562 32.898438 L 12.957031 34.910156 C 14.21875 36.375 14.734375 38.335938 14.355469 40.234375 L 13.832031 42.835938 C 13.601562 43.976562 14.320312 45.09375 15.453125 45.363281 L 18.035156 45.972656 C 19.914062 46.414062 21.488281 47.703125 22.292969 49.457031 L 23.398438 51.867188 C 23.886719 52.925781 25.121094 53.40625 26.195312 52.960938 L 28.644531 51.933594 C 30.425781 51.1875 32.453125 51.304688 34.136719 52.25 L 36.453125 53.550781 C 37.464844 54.125 38.75 53.785156 39.355469 52.792969 L 40.734375 50.523438 C 41.734375 48.871094 43.445312 47.773438 45.363281 47.550781 L 48 47.242188 C 49.15625 47.105469 49.996094 46.078125 49.902344 44.917969 Z M 24.855469 36.355469 L 24.183594 29.617188 C 24.070312 28.472656 24.910156 27.449219 26.054688 27.332031 C 27.199219 27.21875 28.226562 28.058594 28.339844 29.203125 L 28.804688 33.863281 L 42.28125 32.519531 C 43.425781 32.40625 44.449219 33.246094 44.5625 34.390625 C 44.679688 35.539062 43.839844 36.5625 42.695312 36.675781 L 27.140625 38.226562 C 25.996094 38.339844 24.96875 37.5 24.855469 36.355469 Z M 24.855469 36.355469 " fill-opacity="1" fill-rule="nonzero"/></g></g></g></g></g></g><g clip-path="url(#c65c2fcc35)"><g mask="url(#1f8be75292)"><g transform="matrix(1, 0, 0, 1, 615, 130)"><g clip-path="url(#9376e660d0)"><g clip-path="url(#6c51ceac28)"><g clip-path="url(#6aaf905b47)"><g clip-path="url(#4df3e85afb)"><path fill="#ffffff" d="M 61.839844 26.179688 L 58.777344 24.871094 C 56.550781 23.917969 54.882812 21.988281 54.269531 19.644531 L 53.421875 16.421875 C 53.046875 15.007812 51.625 14.148438 50.199219 14.472656 L 46.953125 15.210938 C 44.589844 15.75 42.109375 15.167969 40.230469 13.632812 L 37.648438 11.527344 C 36.523438 10.605469 34.859375 10.746094 33.902344 11.84375 L 31.710938 14.351562 C 30.117188 16.175781 27.765625 17.164062 25.347656 17.027344 L 22.019531 16.839844 C 20.5625 16.753906 19.300781 17.84375 19.171875 19.296875 L 18.871094 22.617188 C 18.652344 25.03125 17.332031 27.207031 15.292969 28.519531 L 12.492188 30.324219 C 11.265625 31.113281 10.882812 32.734375 11.632812 33.988281 L 13.339844 36.847656 C 14.582031 38.929688 14.796875 41.46875 13.917969 43.726562 L 12.710938 46.832031 C 12.179688 48.195312 12.824219 49.726562 14.167969 50.300781 L 17.230469 51.613281 C 19.460938 52.566406 21.125 54.496094 21.742188 56.839844 L 22.589844 60.0625 C 22.960938 61.472656 24.386719 62.335938 25.8125 62.011719 L 29.058594 61.273438 C 31.421875 60.734375 33.902344 61.316406 35.78125 62.851562 L 38.359375 64.957031 C 39.488281 65.878906 41.148438 65.742188 42.113281 64.640625 L 44.304688 62.136719 C 45.898438 60.3125 48.25 59.324219 50.667969 59.460938 L 53.992188 59.648438 C 55.453125 59.730469 56.710938 58.644531 56.84375 57.1875 L 57.144531 53.871094 C 57.363281 51.457031 58.679688 49.277344 60.71875 47.964844 L 63.519531 46.164062 C 64.75 45.375 65.128906 43.75 64.382812 42.496094 L 62.671875 39.636719 C 61.429688 37.554688 61.21875 35.015625 62.097656 32.757812 L 63.304688 29.652344 C 63.828125 28.292969 63.183594 26.757812 61.839844 26.179688 Z M 37.644531 48.929688 L 29.777344 45.71875 C 28.441406 45.171875 27.796875 43.640625 28.34375 42.300781 C 28.890625 40.964844 30.421875 40.320312 31.757812 40.867188 L 37.199219 43.085938 L 43.621094 27.355469 C 44.167969 26.019531 45.699219 25.375 47.035156 25.921875 C 48.375 26.464844 49.015625 27.996094 48.472656 29.335938 L 41.058594 47.492188 C 40.515625 48.832031 38.984375 49.472656 37.644531 48.929688 Z M 37.644531 48.929688 " fill-opacity="1" fill-rule="nonzero"/></g></g></g></g></g></g></g><g clip-path="url(#830044ddd7)"><g mask="url(#2833531232)"><g transform="matrix(1, 0, 0, 1, 625, 217)"><g clip-path="url(#50ec5bb4a1)"><g clip-path="url(#dfb2a54676)"><g clip-path="url(#530b9444a7)"><g clip-path="url(#bcc503ecf4)"><path fill="#ffffff" d="M 47.457031 36.859375 L 46.722656 34.507812 C 46.191406 32.796875 46.476562 30.9375 47.5 29.464844 L 48.902344 27.445312 C 49.519531 26.558594 49.320312 25.34375 48.453125 24.695312 L 46.480469 23.226562 C 45.042969 22.15625 44.179688 20.484375 44.140625 18.691406 L 44.089844 16.230469 C 44.0625 15.15625 43.191406 14.289062 42.113281 14.277344 L 39.652344 14.246094 C 37.859375 14.226562 36.175781 13.378906 35.09375 11.953125 L 33.601562 9.992188 C 32.953125 9.132812 31.734375 8.945312 30.855469 9.570312 L 28.847656 10.992188 C 27.382812 12.03125 25.527344 12.332031 23.808594 11.816406 L 21.453125 11.105469 C 20.421875 10.792969 19.324219 11.359375 18.980469 12.378906 L 18.191406 14.710938 C 17.621094 16.410156 16.292969 17.746094 14.601562 18.335938 L 12.277344 19.148438 C 11.257812 19.503906 10.703125 20.601562 11.027344 21.632812 L 11.757812 23.984375 C 12.292969 25.695312 12.007812 27.554688 10.984375 29.027344 L 9.582031 31.046875 C 8.964844 31.933594 9.164062 33.148438 10.03125 33.796875 L 12.003906 35.265625 C 13.441406 36.335938 14.304688 38.007812 14.339844 39.800781 L 14.394531 42.261719 C 14.417969 43.339844 15.292969 44.207031 16.371094 44.21875 L 18.832031 44.25 C 20.625 44.269531 22.304688 45.117188 23.390625 46.542969 L 24.878906 48.503906 C 25.53125 49.363281 26.746094 49.546875 27.628906 48.925781 L 29.636719 47.503906 C 31.101562 46.46875 32.957031 46.164062 34.671875 46.679688 L 37.03125 47.390625 C 38.0625 47.703125 39.160156 47.136719 39.503906 46.113281 L 40.292969 43.78125 C 40.867188 42.085938 42.191406 40.746094 43.882812 40.15625 L 46.207031 39.347656 C 47.222656 38.988281 47.777344 37.890625 47.457031 36.859375 Z M 23.0625 34.171875 L 21.09375 28.207031 C 20.757812 27.195312 21.308594 26.097656 22.324219 25.761719 C 23.339844 25.429688 24.433594 25.980469 24.769531 26.996094 L 26.132812 31.117188 L 38.054688 27.179688 C 39.070312 26.84375 40.164062 27.398438 40.5 28.410156 C 40.835938 29.425781 40.285156 30.523438 39.269531 30.855469 L 25.507812 35.402344 C 24.492188 35.738281 23.398438 35.183594 23.0625 34.171875 Z M 23.0625 34.171875 " fill-opacity="1" fill-rule="nonzero"/></g></g></g></g></g></g></g><g mask="url(#508336f647)"><g transform="matrix(1, 0, 0, 1, 501, 42)"><g clip-path="url(#f5ba0f9582)"><g clip-path="url(#0b6185ea35)"><g clip-path="url(#d6379ba8a5)"><g clip-path="url(#1aa4bce66e)"><path fill="#ffffff" d="M 9.085938 3.984375 C 7.511719 5.507812 5.378906 7.359375 2.691406 8.546875 C 2.402344 8.671875 2.261719 8.984375 2.363281 9.261719 C 3.375 12.015625 4.632812 15.523438 5.691406 16.917969 C 7.691406 19.640625 11.230469 21.191406 14.753906 21.050781 C 14.882812 21.046875 14.992188 21.011719 15.097656 20.933594 C 17.980469 18.859375 19.703125 15.589844 19.6875 12.199219 C 19.675781 9.992188 18.585938 6.890625 17.691406 4.089844 C 17.601562 3.808594 17.300781 3.648438 16.996094 3.722656 C 14.128906 4.410156 11.300781 4.230469 9.117188 3.972656 Z M 9.824219 6.140625 C 8.644531 7.277344 7.054688 8.660156 5.046875 9.546875 C 4.832031 9.644531 4.726562 9.875 4.800781 10.082031 C 5.554688 12.140625 6.496094 14.761719 7.285156 15.800781 C 8.78125 17.835938 11.425781 18.992188 14.054688 18.890625 C 14.152344 18.886719 14.234375 18.859375 14.3125 18.800781 C 16.46875 17.253906 17.75 14.808594 17.738281 12.277344 C 17.730469 10.628906 16.917969 8.3125 16.25 6.21875 C 16.183594 6.007812 15.957031 5.890625 15.730469 5.945312 C 13.589844 6.460938 11.476562 6.324219 9.84375 6.136719 Z M 9.824219 6.140625 " fill-opacity="1" fill-rule="evenodd"/></g></g></g><g clip-path="url(#a1d60fd02d)"><g clip-path="url(#aef85f3d28)"><g clip-path="url(#8bdb88e6ab)"><path fill="#ffffff" d="M 11.109375 9.3125 L 12.582031 11.300781 L 14.925781 10.503906 C 15.007812 10.476562 15.09375 10.503906 15.144531 10.574219 C 15.195312 10.640625 15.195312 10.730469 15.144531 10.800781 L 13.710938 12.816406 L 15.191406 14.796875 C 15.242188 14.867188 15.242188 14.953125 15.191406 15.023438 C 15.144531 15.09375 15.058594 15.121094 14.976562 15.097656 L 12.617188 14.351562 L 11.191406 16.375 C 11.140625 16.441406 11.054688 16.472656 10.976562 16.445312 C 10.894531 16.421875 10.839844 16.351562 10.839844 16.265625 L 10.816406 13.789062 L 8.453125 13.054688 C 8.375 13.03125 8.320312 12.960938 8.316406 12.875 C 8.316406 12.789062 8.371094 12.71875 8.449219 12.691406 L 10.796875 11.902344 L 10.761719 9.429688 C 10.761719 9.34375 10.8125 9.273438 10.894531 9.246094 C 10.972656 9.21875 11.058594 9.246094 11.109375 9.3125 Z M 11.109375 9.3125 " fill-opacity="1" fill-rule="evenodd"/></g></g></g></g></g></g><g mask="url(#76ac6c9545)"><g transform="matrix(1, 0, 0, 1, 461, 156)"><g clip-path="url(#94d068ecef)"><g clip-path="url(#071981cf3e)"><g clip-path="url(#de8ed4411d)"><g clip-path="url(#6c3558cdf5)"><path fill="#ffffff" d="M 25.164062 10.933594 L 23.980469 10.289062 C 23.121094 9.816406 22.527344 8.976562 22.371094 8.007812 L 22.15625 6.675781 C 22.058594 6.09375 21.519531 5.691406 20.933594 5.765625 L 19.597656 5.9375 C 18.625 6.0625 17.648438 5.730469 16.953125 5.039062 L 15.996094 4.09375 C 15.578125 3.679688 14.90625 3.667969 14.476562 4.074219 L 13.496094 4.996094 C 12.78125 5.671875 11.796875 5.976562 10.828125 5.828125 L 9.496094 5.621094 C 8.914062 5.53125 8.363281 5.921875 8.253906 6.5 L 8.003906 7.824219 C 7.824219 8.789062 7.207031 9.613281 6.335938 10.0625 L 5.136719 10.679688 C 4.613281 10.949219 4.394531 11.585938 4.648438 12.121094 L 5.222656 13.335938 C 5.644531 14.222656 5.628906 15.253906 5.1875 16.128906 L 4.582031 17.332031 C 4.316406 17.859375 4.515625 18.503906 5.03125 18.785156 L 6.214844 19.433594 C 7.074219 19.902344 7.671875 20.746094 7.828125 21.710938 L 8.042969 23.042969 C 8.136719 23.625 8.675781 24.027344 9.261719 23.953125 L 10.597656 23.78125 C 11.570312 23.65625 12.546875 23.988281 13.242188 24.679688 L 14.199219 25.628906 C 14.617188 26.042969 15.292969 26.054688 15.722656 25.648438 L 16.703125 24.722656 C 17.414062 24.050781 18.402344 23.746094 19.367188 23.894531 L 20.699219 24.101562 C 21.285156 24.191406 21.832031 23.800781 21.945312 23.222656 L 22.195312 21.898438 C 22.375 20.933594 22.992188 20.109375 23.863281 19.660156 L 25.0625 19.042969 C 25.585938 18.773438 25.804688 18.136719 25.550781 17.601562 L 24.976562 16.382812 C 24.554688 15.496094 24.570312 14.46875 25.011719 13.589844 L 25.617188 12.390625 C 25.882812 11.863281 25.683594 11.21875 25.164062 10.933594 Z M 14.535156 19.148438 L 11.496094 17.550781 C 10.976562 17.277344 10.777344 16.636719 11.050781 16.117188 C 11.324219 15.601562 11.964844 15.402344 12.480469 15.671875 L 14.585938 16.78125 L 17.785156 10.695312 C 18.054688 10.179688 18.695312 9.980469 19.214844 10.253906 C 19.730469 10.523438 19.929688 11.164062 19.660156 11.683594 L 15.96875 18.703125 C 15.695312 19.21875 15.054688 19.421875 14.535156 19.148438 Z M 14.535156 19.148438 " fill-opacity="1" fill-rule="nonzero"/></g></g></g></g></g></g><g mask="url(#6dc389234b)"><g transform="matrix(1, 0, 0, 1, 363, -0.000000000000022503)"><g clip-path="url(#33694e7e64)"><g clip-path="url(#f0acc9c68d)"><g clip-path="url(#ba488c6ff0)"><g clip-path="url(#213a15e0d0)"><path fill="#ffffff" d="M 37.789062 -66.289062 C 30.726562 -59.714844 21.179688 -51.738281 9.242188 -46.730469 C 7.96875 -46.195312 7.3125 -44.828125 7.738281 -43.597656 C 11.964844 -31.382812 17.21875 -15.824219 21.765625 -9.597656 C 30.347656 2.566406 45.820312 9.683594 61.351562 9.363281 C 61.921875 9.351562 62.410156 9.195312 62.875 8.871094 C 75.75 -0.0234375 83.601562 -14.289062 83.808594 -29.230469 C 83.945312 -38.949219 79.40625 -52.707031 75.695312 -65.125 C 75.324219 -66.371094 74.007812 -67.09375 72.664062 -66.796875 C 59.972656 -64 47.527344 -65.019531 37.929688 -66.335938 Z M 40.859375 -56.726562 C 35.578125 -51.816406 28.449219 -45.859375 19.53125 -42.117188 C 18.582031 -41.714844 18.09375 -40.695312 18.410156 -39.777344 C 21.566406 -30.652344 25.488281 -19.03125 28.886719 -14.382812 C 35.300781 -5.300781 46.855469 0.015625 58.457031 -0.21875 C 58.878906 -0.230469 59.246094 -0.347656 59.59375 -0.589844 C 69.210938 -7.234375 75.074219 -17.890625 75.226562 -29.050781 C 75.328125 -36.304688 71.941406 -46.582031 69.167969 -55.855469 C 68.886719 -56.785156 67.910156 -57.328125 66.90625 -57.105469 C 57.425781 -55.019531 48.128906 -55.78125 40.957031 -56.757812 Z M 40.859375 -56.726562 " fill-opacity="1" fill-rule="evenodd"/></g></g></g></g></g></g><g clip-path="url(#d1544a1d2e)"><g mask="url(#f18e8a9471)"><g transform="matrix(1, 0, 0, 1, 618, 17)"><g clip-path="url(#d0ff62ed07)"><g clip-path="url(#b0c131c18a)"><g clip-path="url(#85de05bcf0)"><g clip-path="url(#ad73eb0706)"><path fill="#ffffff" d="M 42.167969 15.988281 C 34.417969 23.480469 23.914062 32.59375 10.6875 38.4375 C 9.273438 39.0625 8.570312 40.601562 9.070312 41.972656 C 14.046875 55.527344 20.242188 72.800781 25.453125 79.664062 C 35.296875 93.070312 52.730469 100.699219 70.078125 100.015625 C 70.710938 99.992188 71.253906 99.808594 71.765625 99.4375 C 85.96875 89.226562 94.4375 73.125 94.355469 56.429688 C 94.308594 45.570312 88.949219 30.292969 84.539062 16.496094 C 84.097656 15.113281 82.613281 14.332031 81.121094 14.691406 C 66.996094 18.082031 53.074219 17.203125 42.324219 15.933594 Z M 45.796875 26.609375 C 40 32.203125 32.160156 39.011719 22.277344 43.378906 C 21.222656 43.84375 20.699219 44.996094 21.074219 46.015625 C 24.789062 56.140625 29.414062 69.042969 33.308594 74.164062 C 40.664062 84.175781 53.683594 89.878906 66.640625 89.371094 C 67.113281 89.351562 67.519531 89.210938 67.902344 88.933594 C 78.507812 81.308594 84.835938 69.28125 84.773438 56.808594 C 84.734375 48.699219 80.734375 37.289062 77.441406 26.988281 C 77.109375 25.953125 76.003906 25.371094 74.890625 25.640625 C 64.339844 28.167969 53.941406 27.511719 45.90625 26.570312 Z M 45.796875 26.609375 " fill-opacity="1" fill-rule="evenodd"/></g></g></g></g></g></g></g></svg>