<svg xmlns="http://www.w3.org/2000/svg" xmlns:xlink="http://www.w3.org/1999/xlink" width="868" zoomAndPan="magnify" viewBox="0 0 651 251.250001" height="335" preserveAspectRatio="xMidYMid meet" version="1.0"><defs><filter x="0%" y="0%" width="100%" height="100%" id="ba40eaa669"><feColorMatrix values="0 0 0 0 1 0 0 0 0 1 0 0 0 0 1 0 0 0 1 0" color-interpolation-filters="sRGB"/></filter><mask id="f743f73207"><g filter="url(#ba40eaa669)"><rect x="-65.1" width="781.2" fill="#000000" y="-25.125" height="301.500001" fill-opacity="0.53"/></g></mask><clipPath id="b01c67b3f2"><path d="M 0.757812 0.628906 L 57.589844 0.628906 L 57.589844 57.460938 L 0.757812 57.460938 Z M 0.757812 0.628906 " clip-rule="nonzero"/></clipPath><clipPath id="1b704a16b0"><rect x="0" width="58" y="0" height="58"/></clipPath><mask id="0bc94a318a"><g filter="url(#ba40eaa669)"><rect x="-65.1" width="781.2" fill="#000000" y="-25.125" height="301.500001" fill-opacity="0.53"/></g></mask><clipPath id="9087bc720e"><path d="M 0.367188 0.234375 L 114.269531 0.234375 L 114.269531 87.8125 L 0.367188 87.8125 Z M 0.367188 0.234375 " clip-rule="nonzero"/></clipPath><clipPath id="61b8cb1138"><path d="M 42 35 L 82 35 L 82 72 L 42 72 Z M 42 35 " clip-rule="nonzero"/></clipPath><clipPath id="cd285ddb84"><path d="M 39.335938 45.101562 L 73.238281 31.414062 L 85.445312 61.65625 L 51.542969 75.339844 Z M 39.335938 45.101562 " clip-rule="nonzero"/></clipPath><clipPath id="0ac82921ff"><path d="M 50.429688 40.621094 L 62.0625 35.925781 C 65.007812 34.738281 68.300781 34.769531 71.21875 36.007812 C 74.140625 37.25 76.449219 39.601562 77.636719 42.542969 L 80.886719 50.59375 C 82.074219 53.535156 82.042969 56.828125 80.804688 59.75 C 79.5625 62.667969 77.214844 64.976562 74.269531 66.164062 L 62.636719 70.863281 C 59.695312 72.050781 56.402344 72.019531 53.480469 70.777344 C 50.5625 69.539062 48.253906 67.1875 47.066406 64.246094 L 43.816406 56.195312 C 42.628906 53.253906 42.65625 49.960938 43.898438 47.039062 C 45.136719 44.117188 47.488281 41.808594 50.429688 40.621094 Z M 50.429688 40.621094 " clip-rule="nonzero"/></clipPath><clipPath id="175b0db0ef"><path d="M 4 0.234375 L 108 0.234375 L 108 87.8125 L 4 87.8125 Z M 4 0.234375 " clip-rule="nonzero"/></clipPath><clipPath id="4bb1e023b2"><rect x="0" width="115" y="0" height="88"/></clipPath><mask id="65cf8e85db"><g filter="url(#ba40eaa669)"><rect x="-65.1" width="781.2" fill="#000000" y="-25.125" height="301.500001" fill-opacity="0.53"/></g></mask><clipPath id="6fef080359"><path d="M 0.308594 0 L 89.5625 0 L 89.5625 33.019531 L 0.308594 33.019531 Z M 0.308594 0 " clip-rule="nonzero"/></clipPath><clipPath id="8fe447117a"><path d="M 28 0 L 58 0 L 58 22 L 28 22 Z M 28 0 " clip-rule="nonzero"/></clipPath><clipPath id="0690586bec"><path d="M 33.621094 -8.617188 L 60.882812 0.679688 L 52.585938 25 L 25.324219 15.699219 Z M 33.621094 -8.617188 " clip-rule="nonzero"/></clipPath><clipPath id="65f6c73e76"><path d="M 44.945312 -4.757812 L 49.496094 -3.203125 C 52.5 -2.179688 54.972656 -0.00390625 56.371094 2.84375 C 57.769531 5.691406 57.980469 8.980469 56.957031 11.984375 L 56.386719 13.652344 C 55.363281 16.65625 53.1875 19.128906 50.335938 20.527344 C 47.488281 21.929688 44.203125 22.136719 41.199219 21.113281 L 36.648438 19.5625 C 33.644531 18.535156 31.171875 16.359375 29.773438 13.511719 C 28.375 10.664062 28.164062 7.378906 29.1875 4.375 L 29.757812 2.703125 C 30.78125 -0.296875 32.957031 -2.773438 35.804688 -4.171875 C 38.652344 -5.570312 41.941406 -5.78125 44.945312 -4.757812 Z M 44.945312 -4.757812 " clip-rule="nonzero"/></clipPath><clipPath id="d0586917bb"><path d="M 7 0 L 88 0 L 88 33.019531 L 7 33.019531 Z M 7 0 " clip-rule="nonzero"/></clipPath><clipPath id="43bcfec4b0"><rect x="0" width="90" y="0" height="34"/></clipPath><clipPath id="c0dde19646"><path d="M 544 140 L 650.03125 140 L 650.03125 250.503906 L 544 250.503906 Z M 544 140 " clip-rule="nonzero"/></clipPath><mask id="881d5744e6"><g filter="url(#ba40eaa669)"><rect x="-65.1" width="781.2" fill="#000000" y="-25.125" height="301.500001" fill-opacity="0.53"/></g></mask><clipPath id="85009444f2"><path d="M 0.519531 0.628906 L 106.03125 0.628906 L 106.03125 110.503906 L 0.519531 110.503906 Z M 0.519531 0.628906 " clip-rule="nonzero"/></clipPath><clipPath id="36fc7b2e52"><rect x="0" width="107" y="0" height="111"/></clipPath><mask id="3e20f06ae1"><g filter="url(#ba40eaa669)"><rect x="-65.1" width="781.2" fill="#000000" y="-25.125" height="301.500001" fill-opacity="0.53"/></g></mask><clipPath id="e474192459"><path d="M 0.171875 0.0234375 L 55.6875 0.0234375 L 55.6875 60.5625 L 0.171875 60.5625 Z M 0.171875 0.0234375 " clip-rule="nonzero"/></clipPath><clipPath id="64a1fee172"><path d="M 13 17 L 33 17 L 33 37 L 13 37 Z M 13 17 " clip-rule="nonzero"/></clipPath><clipPath id="92692ee595"><path d="M 35.882812 24.746094 L 24.132812 40.375 L 10.191406 29.894531 L 21.941406 14.265625 Z M 35.882812 24.746094 " clip-rule="nonzero"/></clipPath><clipPath id="351a24778b"><path d="M 30.644531 31.714844 L 29.402344 33.367188 C 26.507812 37.21875 21.039062 37.992188 17.191406 35.097656 C 13.339844 32.203125 12.566406 26.738281 15.460938 22.886719 L 16.703125 21.234375 C 19.59375 17.386719 25.0625 16.609375 28.914062 19.503906 C 32.761719 22.398438 33.539062 27.867188 30.644531 31.714844 Z M 30.644531 31.714844 " clip-rule="nonzero"/></clipPath><clipPath id="469b5cf756"><path d="M 0.171875 3 L 55.6875 3 L 55.6875 60.5625 L 0.171875 60.5625 Z M 0.171875 3 " clip-rule="nonzero"/></clipPath><clipPath id="01262b0c66"><rect x="0" width="56" y="0" height="61"/></clipPath><mask id="b748d6f7d3"><g filter="url(#ba40eaa669)"><rect x="-65.1" width="781.2" fill="#000000" y="-25.125" height="301.500001" fill-opacity="0.53"/></g></mask><clipPath id="2391dbb980"><path d="M 0.960938 0.308594 L 47.261719 0.308594 L 47.261719 46.574219 L 0.960938 46.574219 Z M 0.960938 0.308594 " clip-rule="nonzero"/></clipPath><clipPath id="7e7c351105"><rect x="0" width="48" y="0" height="47"/></clipPath><mask id="e3ecac8696"><g filter="url(#ba40eaa669)"><rect x="-65.1" width="781.2" fill="#000000" y="-25.125" height="301.500001" fill-opacity="0.53"/></g></mask><clipPath id="9a85c072de"><path d="M 0.523438 0.425781 L 27.800781 0.425781 L 27.800781 44.691406 L 0.523438 44.691406 Z M 0.523438 0.425781 " clip-rule="nonzero"/></clipPath><clipPath id="76cb68b2a4"><path d="M 3 14 L 19 14 L 19 32 L 3 32 Z M 3 14 " clip-rule="nonzero"/></clipPath><clipPath id="ea1be2bcbb"><path d="M 15.105469 12.632812 L 20.761719 28.144531 L 6.925781 33.1875 L 1.269531 17.679688 Z M 15.105469 12.632812 " clip-rule="nonzero"/></clipPath><clipPath id="b81edce1a7"><path d="M 17.628906 19.550781 L 18.226562 21.1875 C 19.617188 25.007812 17.652344 29.234375 13.832031 30.628906 C 10.011719 32.023438 5.785156 30.054688 4.390625 26.234375 L 3.792969 24.597656 C 2.398438 20.777344 4.367188 16.546875 8.1875 15.15625 C 12.007812 13.761719 16.234375 15.730469 17.628906 19.550781 Z M 17.628906 19.550781 " clip-rule="nonzero"/></clipPath><clipPath id="781b83e4eb"><path d="M 0.523438 0.425781 L 27.800781 0.425781 L 27.800781 40 L 0.523438 40 Z M 0.523438 0.425781 " clip-rule="nonzero"/></clipPath><clipPath id="bd20fc3ed9"><rect x="0" width="28" y="0" height="45"/></clipPath><clipPath id="f64dd2a3b0"><path d="M 601 0 L 650.03125 0 L 650.03125 56 L 601 56 Z M 601 0 " clip-rule="nonzero"/></clipPath><mask id="41f98fda6b"><g filter="url(#ba40eaa669)"><rect x="-65.1" width="781.2" fill="#000000" y="-25.125" height="301.500001" fill-opacity="0.53"/></g></mask><clipPath id="58f540b2ea"><path d="M 0.371094 0 L 49.03125 0 L 49.03125 55.710938 L 0.371094 55.710938 Z M 0.371094 0 " clip-rule="nonzero"/></clipPath><clipPath id="6bd96405a5"><rect x="0" width="50" y="0" height="56"/></clipPath><mask id="4856dcead8"><g filter="url(#ba40eaa669)"><rect x="-65.1" width="781.2" fill="#000000" y="-25.125" height="301.500001" fill-opacity="0.53"/></g></mask><clipPath id="aa318ea06e"><path d="M 0.585938 0.359375 L 15.539062 0.359375 L 15.539062 15.316406 L 0.585938 15.316406 Z M 0.585938 0.359375 " clip-rule="nonzero"/></clipPath><clipPath id="5b40371e73"><rect x="0" width="16" y="0" height="16"/></clipPath><clipPath id="dc1799d453"><path d="M 405 206 L 515 206 L 515 250.503906 L 405 250.503906 Z M 405 206 " clip-rule="nonzero"/></clipPath><mask id="ce02b4805f"><g filter="url(#ba40eaa669)"><rect x="-65.1" width="781.2" fill="#000000" y="-25.125" height="301.500001" fill-opacity="0.53"/></g></mask><clipPath id="fdd0f0c887"><path d="M 12 5 L 95 5 L 95 44.503906 L 12 44.503906 Z M 12 5 " clip-rule="nonzero"/></clipPath><clipPath id="2f686e991d"><path d="M 0.964844 81.210938 L 29.03125 0.71875 L 109.523438 28.789062 L 81.453125 109.28125 Z M 0.964844 81.210938 " clip-rule="nonzero"/></clipPath><clipPath id="26432e6d42"><path d="M 0.964844 81.210938 L 29.03125 0.71875 L 109.523438 28.789062 L 81.453125 109.28125 Z M 0.964844 81.210938 " clip-rule="nonzero"/></clipPath><clipPath id="b4cf3afdb8"><rect x="0" width="110" y="0" height="45"/></clipPath><mask id="88ec792155"><g filter="url(#ba40eaa669)"><rect x="-65.1" width="781.2" fill="#000000" y="-25.125" height="301.500001" fill-opacity="0.53"/></g></mask><clipPath id="c6ac4dee42"><path d="M 0.96875 1.0625 L 17.382812 1.0625 L 17.382812 17.394531 L 0.96875 17.394531 Z M 0.96875 1.0625 " clip-rule="nonzero"/></clipPath><clipPath id="2447e02595"><rect x="0" width="18" y="0" height="18"/></clipPath><mask id="dc46cab511"><g filter="url(#ba40eaa669)"><rect x="-65.1" width="781.2" fill="#000000" y="-25.125" height="301.500001" fill-opacity="0.53"/></g></mask><clipPath id="122460cec7"><path d="M 0.09375 0 L 17.96875 0 L 17.96875 9.8125 L 0.09375 9.8125 Z M 0.09375 0 " clip-rule="nonzero"/></clipPath><clipPath id="2a8ec08741"><rect x="0" width="18" y="0" height="10"/></clipPath><clipPath id="4987d52a4a"><path d="M 624 0 L 650.03125 0 L 650.03125 13 L 624 13 Z M 624 0 " clip-rule="nonzero"/></clipPath><mask id="8a0a6add00"><g filter="url(#ba40eaa669)"><rect x="-65.1" width="781.2" fill="#000000" y="-25.125" height="301.500001" fill-opacity="0.53"/></g></mask><clipPath id="49ea3aa2ae"><path d="M 0.980469 0 L 26.03125 0 L 26.03125 12.359375 L 0.980469 12.359375 Z M 0.980469 0 " clip-rule="nonzero"/></clipPath><clipPath id="96877a3080"><rect x="0" width="27" y="0" height="13"/></clipPath><clipPath id="7ca92c9f97"><path d="M 642 52 L 650.03125 52 L 650.03125 99 L 642 99 Z M 642 52 " clip-rule="nonzero"/></clipPath><mask id="e50f4e38e1"><g filter="url(#ba40eaa669)"><rect x="-65.1" width="781.2" fill="#000000" y="-25.125" height="301.500001" fill-opacity="0.53"/></g></mask><clipPath id="8036792cf4"><path d="M 1.183594 0.230469 L 8.03125 0.230469 L 8.03125 46.585938 L 1.183594 46.585938 Z M 1.183594 0.230469 " clip-rule="nonzero"/></clipPath><clipPath id="835eedb34f"><rect x="0" width="9" y="0" height="47"/></clipPath><mask id="4b1072d4c0"><g filter="url(#ba40eaa669)"><rect x="-65.1" width="781.2" fill="#000000" y="-25.125" height="301.500001" fill-opacity="0.53"/></g></mask><clipPath id="57b374f77f"><path d="M 0.8125 0.1875 L 31.199219 0.1875 L 31.199219 37.035156 L 0.8125 37.035156 Z M 0.8125 0.1875 " clip-rule="nonzero"/></clipPath><clipPath id="227ee7dd86"><path d="M 13 10 L 25 10 L 25 23 L 13 23 Z M 13 10 " clip-rule="nonzero"/></clipPath><clipPath id="6d51ecc6ed"><path d="M 16.972656 24.347656 L 11.546875 13.984375 L 20.792969 9.144531 L 26.214844 19.507812 Z M 16.972656 24.347656 " clip-rule="nonzero"/></clipPath><clipPath id="f9faf9fc32"><path d="M 14.550781 19.726562 L 13.980469 18.628906 C 12.644531 16.078125 13.628906 12.925781 16.183594 11.589844 C 18.734375 10.253906 21.886719 11.238281 23.222656 13.792969 L 23.796875 14.886719 C 25.132812 17.441406 24.148438 20.59375 21.59375 21.929688 C 19.039062 23.265625 15.886719 22.277344 14.550781 19.726562 Z M 14.550781 19.726562 " clip-rule="nonzero"/></clipPath><clipPath id="f76290938d"><path d="M 0.8125 2 L 31.199219 2 L 31.199219 37 L 0.8125 37 Z M 0.8125 2 " clip-rule="nonzero"/></clipPath><clipPath id="6206ae95b9"><rect x="0" width="32" y="0" height="38"/></clipPath></defs><g mask="url(#f743f73207)"><g transform="matrix(1, 0, 0, 1, 387, 9)"><g clip-path="url(#1b704a16b0)"><g clip-path="url(#b01c67b3f2)"><path fill="#ffffff" d="M 56.089844 8.175781 L 53.828125 6.855469 C 53.40625 6.609375 52.847656 6.484375 52.292969 6.484375 C 51.734375 6.484375 51.179688 6.609375 50.757812 6.855469 L 48.496094 8.175781 C 47.652344 8.667969 46.960938 9.871094 46.960938 10.847656 L 46.960938 13.511719 C 46.960938 13.804688 47.027344 14.113281 47.136719 14.417969 L 32.3125 22.945312 C 32.113281 22.71875 31.894531 22.519531 31.660156 22.382812 L 24.945312 18.414062 C 24.800781 18.332031 24.640625 18.265625 24.46875 18.210938 L 24.46875 11.984375 C 24.703125 11.921875 24.925781 11.839844 25.117188 11.730469 L 27.378906 10.410156 C 28.222656 9.917969 28.914062 8.714844 28.914062 7.738281 L 28.914062 5.070312 C 28.914062 4.09375 28.222656 2.890625 27.378906 2.398438 L 25.117188 1.082031 C 24.695312 0.832031 24.136719 0.710938 23.582031 0.710938 C 23.027344 0.710938 22.46875 0.832031 22.046875 1.082031 L 19.785156 2.398438 C 18.941406 2.890625 18.25 4.09375 18.25 5.070312 L 18.25 7.738281 C 18.25 8.714844 18.941406 9.917969 19.785156 10.410156 L 22.046875 11.730469 C 22.238281 11.839844 22.460938 11.921875 22.695312 11.984375 L 22.695312 18.117188 C 22.398438 18.179688 22.121094 18.277344 21.886719 18.414062 L 15.171875 22.382812 C 14.332031 22.878906 13.640625 24.085938 13.640625 25.0625 L 13.640625 33.058594 C 13.640625 33.246094 13.675781 33.441406 13.71875 33.636719 L 10.40625 35.542969 C 10.242188 35.378906 10.070312 35.234375 9.886719 35.125 L 7.625 33.808594 C 7.203125 33.5625 6.644531 33.4375 6.089844 33.4375 C 5.53125 33.4375 4.976562 33.5625 4.554688 33.808594 L 2.292969 35.125 C 1.449219 35.617188 0.757812 36.820312 0.757812 37.800781 L 0.757812 40.464844 C 0.757812 41.441406 1.449219 42.644531 2.292969 43.136719 L 4.554688 44.457031 C 4.976562 44.703125 5.53125 44.824219 6.089844 44.824219 C 6.644531 44.824219 7.203125 44.703125 7.625 44.457031 L 9.886719 43.136719 C 10.730469 42.644531 11.421875 41.441406 11.421875 40.464844 L 11.421875 37.800781 C 11.421875 37.566406 11.378906 37.320312 11.308594 37.074219 L 14.546875 35.214844 C 14.738281 35.425781 14.949219 35.609375 15.171875 35.742188 L 21.886719 39.707031 C 22.121094 39.847656 22.398438 39.941406 22.695312 40.003906 L 22.695312 46.140625 C 22.460938 46.199219 22.238281 46.285156 22.046875 46.394531 L 19.785156 47.714844 C 18.941406 48.207031 18.25 49.410156 18.25 50.386719 L 18.25 53.050781 C 18.25 54.03125 18.941406 55.230469 19.785156 55.722656 L 22.046875 57.042969 C 22.46875 57.289062 23.027344 57.414062 23.582031 57.414062 C 24.136719 57.414062 24.695312 57.289062 25.117188 57.042969 L 27.378906 55.722656 C 28.222656 55.230469 28.914062 54.03125 28.914062 53.050781 L 28.914062 50.386719 C 28.914062 49.410156 28.222656 48.207031 27.378906 47.714844 L 25.117188 46.394531 C 24.925781 46.285156 24.703125 46.199219 24.46875 46.140625 L 24.46875 39.914062 C 24.640625 39.859375 24.800781 39.792969 24.945312 39.707031 L 31.660156 35.742188 C 31.839844 35.632812 32.015625 35.488281 32.175781 35.324219 L 46.585938 41.40625 C 46.546875 41.589844 46.515625 41.769531 46.515625 41.945312 L 46.515625 44.609375 C 46.515625 45.589844 47.207031 46.792969 48.050781 47.285156 L 50.3125 48.601562 C 50.734375 48.847656 51.292969 48.972656 51.847656 48.972656 C 52.40625 48.972656 52.960938 48.847656 53.382812 48.601562 L 55.644531 47.285156 C 56.488281 46.792969 57.179688 45.589844 57.179688 44.609375 L 57.179688 41.945312 C 57.179688 40.96875 56.488281 39.765625 55.644531 39.273438 L 53.382812 37.953125 C 52.960938 37.707031 52.40625 37.585938 51.847656 37.585938 C 51.292969 37.585938 50.734375 37.707031 50.3125 37.953125 L 48.050781 39.273438 C 47.820312 39.40625 47.601562 39.597656 47.40625 39.820312 L 33.078125 33.773438 C 33.148438 33.53125 33.1875 33.289062 33.1875 33.058594 L 33.1875 25.0625 C 33.1875 24.890625 33.160156 24.710938 33.121094 24.53125 L 48.117188 15.902344 C 48.238281 16.011719 48.367188 16.109375 48.496094 16.183594 L 50.757812 17.503906 C 51.179688 17.75 51.734375 17.875 52.292969 17.875 C 52.847656 17.875 53.40625 17.75 53.828125 17.503906 L 56.089844 16.183594 C 56.933594 15.691406 57.625 14.492188 57.625 13.511719 L 57.625 10.847656 C 57.625 9.871094 56.933594 8.667969 56.089844 8.175781 Z M 56.089844 8.175781 " fill-opacity="1" fill-rule="nonzero"/></g></g></g></g><g mask="url(#0bc94a318a)"><g transform="matrix(1, 0, 0, 1, 483, 28)"><g clip-path="url(#4bb1e023b2)"><g clip-path="url(#9087bc720e)"><path stroke-linecap="round" transform="matrix(0.441082, -0.17806, 0.17806, 0.441082, 13.061272, 68.931524)" fill="none" stroke-linejoin="miter" d="M 8.49988 8.501661 L 202.78382 8.50251 " stroke="#ffffff" stroke-width="17" stroke-opacity="1" stroke-miterlimit="4"/></g><g clip-path="url(#61b8cb1138)"><g clip-path="url(#cd285ddb84)"><g clip-path="url(#0ac82921ff)"><path fill="#ffffff" d="M 39.335938 45.101562 L 73.121094 31.464844 L 85.328125 61.703125 L 51.542969 75.339844 Z M 39.335938 45.101562 " fill-opacity="1" fill-rule="nonzero"/></g></g></g><g clip-path="url(#175b0db0ef)"><path stroke-linecap="round" transform="matrix(0.17806, 0.441082, -0.441082, 0.17806, 52.109708, 17.225191)" fill="none" stroke-linejoin="miter" d="M 8.501526 8.498389 L 76.67367 8.502894 " stroke="#ffffff" stroke-width="17" stroke-opacity="1" stroke-miterlimit="4"/></g></g></g></g><g mask="url(#65cf8e85db)"><g transform="matrix(1, 0, 0, 1, 490, -0.000000000000022503)"><g clip-path="url(#43bcfec4b0)"><g clip-path="url(#6fef080359)"><path stroke-linecap="round" transform="matrix(0.354703, 0.121008, -0.121008, 0.354703, 5.680669, -7.943167)" fill="none" stroke-linejoin="miter" d="M 8.503285 8.502222 L 202.778076 8.499283 " stroke="#ffffff" stroke-width="17" stroke-opacity="1" stroke-miterlimit="4"/></g><g clip-path="url(#8fe447117a)"><g clip-path="url(#0690586bec)"><g clip-path="url(#65f6c73e76)"><path fill="#ffffff" d="M 33.621094 -8.617188 L 60.789062 0.648438 L 52.492188 24.964844 L 25.324219 15.699219 Z M 33.621094 -8.617188 " fill-opacity="1" fill-rule="nonzero"/></g></g></g><g clip-path="url(#d0586917bb)"><path stroke-linecap="round" transform="matrix(-0.121008, 0.354703, -0.354703, -0.121008, 55.594232, -18.661372)" fill="none" stroke-linejoin="miter" d="M 8.497869 8.500464 L 76.677475 8.499631 " stroke="#ffffff" stroke-width="17" stroke-opacity="1" stroke-miterlimit="4"/></g></g></g></g><g clip-path="url(#c0dde19646)"><g mask="url(#881d5744e6)"><g transform="matrix(1, 0, 0, 1, 544, 140)"><g clip-path="url(#36fc7b2e52)"><g clip-path="url(#85009444f2)"><path fill="#ffffff" d="M 129.664062 18.238281 L 124.386719 15.160156 C 123.402344 14.585938 122.101562 14.296875 120.804688 14.296875 C 119.503906 14.296875 118.207031 14.585938 117.21875 15.160156 L 111.941406 18.238281 C 109.972656 19.390625 108.359375 22.195312 108.359375 24.476562 L 108.359375 30.699219 C 108.359375 31.375 108.515625 32.097656 108.765625 32.8125 L 74.164062 52.714844 C 73.703125 52.183594 73.191406 51.722656 72.644531 51.402344 L 56.972656 42.140625 C 56.636719 41.945312 56.257812 41.792969 55.863281 41.664062 L 55.863281 27.132812 C 56.410156 26.988281 56.925781 26.796875 57.375 26.535156 L 62.652344 23.457031 C 64.621094 22.308594 66.234375 19.5 66.234375 17.21875 L 66.234375 10.996094 C 66.234375 8.714844 64.621094 5.910156 62.652344 4.757812 L 57.375 1.679688 C 56.386719 1.105469 55.089844 0.816406 53.789062 0.816406 C 52.492188 0.816406 51.191406 1.105469 50.207031 1.679688 L 44.929688 4.757812 C 42.960938 5.910156 41.347656 8.714844 41.347656 10.996094 L 41.347656 17.21875 C 41.347656 19.5 42.960938 22.308594 44.929688 23.457031 L 50.207031 26.535156 C 50.65625 26.796875 51.171875 26.988281 51.714844 27.132812 L 51.714844 41.449219 C 51.027344 41.59375 50.378906 41.816406 49.832031 42.140625 L 34.160156 51.402344 C 32.195312 52.5625 30.589844 55.378906 30.589844 57.660156 L 30.589844 76.324219 C 30.589844 76.757812 30.664062 77.214844 30.769531 77.675781 L 23.039062 82.121094 C 22.65625 81.738281 22.25 81.398438 21.820312 81.148438 L 16.542969 78.070312 C 15.558594 77.492188 14.261719 77.207031 12.960938 77.207031 C 11.660156 77.207031 10.363281 77.492188 9.378906 78.070312 L 4.101562 81.148438 C 2.128906 82.296875 0.519531 85.101562 0.519531 87.386719 L 0.519531 93.605469 C 0.519531 95.886719 2.128906 98.695312 4.101562 99.84375 L 9.378906 102.921875 C 10.363281 103.496094 11.660156 103.785156 12.960938 103.785156 C 14.261719 103.785156 15.558594 103.496094 16.542969 102.921875 L 21.820312 99.84375 C 23.792969 98.695312 25.40625 95.886719 25.40625 93.605469 L 25.40625 87.386719 C 25.40625 86.84375 25.308594 86.269531 25.140625 85.699219 L 32.703125 81.347656 C 33.148438 81.847656 33.640625 82.277344 34.160156 82.582031 L 49.832031 91.84375 C 50.378906 92.164062 51.027344 92.390625 51.714844 92.53125 L 51.714844 106.851562 C 51.171875 106.996094 50.65625 107.1875 50.207031 107.449219 L 44.929688 110.527344 C 42.960938 111.675781 41.347656 114.484375 41.347656 116.765625 L 41.347656 122.988281 C 41.347656 125.269531 42.960938 128.074219 44.929688 129.222656 L 50.207031 132.304688 C 51.191406 132.878906 52.492188 133.164062 53.789062 133.164062 C 55.089844 133.164062 56.386719 132.878906 57.375 132.304688 L 62.652344 129.222656 C 64.621094 128.074219 66.234375 125.269531 66.234375 122.988281 L 66.234375 116.765625 C 66.234375 114.484375 64.621094 111.675781 62.652344 110.527344 L 57.375 107.449219 C 56.925781 107.1875 56.410156 106.996094 55.863281 106.851562 L 55.863281 92.320312 C 56.257812 92.191406 56.636719 92.039062 56.972656 91.84375 L 72.644531 82.582031 C 73.070312 82.332031 73.472656 81.988281 73.851562 81.605469 L 107.484375 95.800781 C 107.390625 96.230469 107.324219 96.65625 107.324219 97.0625 L 107.324219 103.285156 C 107.324219 105.566406 108.933594 108.375 110.90625 109.523438 L 116.183594 112.601562 C 117.167969 113.175781 118.46875 113.464844 119.765625 113.464844 C 121.066406 113.464844 122.363281 113.175781 123.347656 112.601562 L 128.625 109.523438 C 130.597656 108.375 132.210938 105.566406 132.210938 103.285156 L 132.210938 97.0625 C 132.210938 94.78125 130.597656 91.976562 128.625 90.824219 L 123.347656 87.746094 C 122.363281 87.171875 121.066406 86.882812 119.765625 86.882812 C 118.46875 86.882812 117.167969 87.171875 116.183594 87.746094 L 110.90625 90.824219 C 110.367188 91.140625 109.859375 91.585938 109.398438 92.105469 L 75.957031 77.992188 C 76.121094 77.425781 76.214844 76.859375 76.214844 76.324219 L 76.214844 57.660156 C 76.214844 57.257812 76.148438 56.835938 76.054688 56.414062 L 111.058594 36.277344 C 111.34375 36.527344 111.636719 36.757812 111.941406 36.9375 L 117.21875 40.015625 C 118.207031 40.589844 119.503906 40.878906 120.804688 40.878906 C 122.101562 40.878906 123.402344 40.589844 124.386719 40.015625 L 129.664062 36.9375 C 131.632812 35.789062 133.246094 32.980469 133.246094 30.699219 L 133.246094 24.476562 C 133.246094 22.195312 131.632812 19.390625 129.664062 18.238281 Z M 129.664062 18.238281 " fill-opacity="1" fill-rule="nonzero"/></g></g></g></g></g><g mask="url(#3e20f06ae1)"><g transform="matrix(1, 0, 0, 1, 482, 139)"><g clip-path="url(#01262b0c66)"><g clip-path="url(#e474192459)"><path stroke-linecap="round" transform="matrix(-0.152878, 0.203361, -0.203361, -0.152878, 41.339024, 6.574326)" fill="none" stroke-linejoin="miter" d="M 8.497915 8.494135 L 202.778681 8.503203 " stroke="#ffffff" stroke-width="17" stroke-opacity="1" stroke-miterlimit="4"/></g><g clip-path="url(#64a1fee172)"><g clip-path="url(#92692ee595)"><g clip-path="url(#351a24778b)"><path fill="#ffffff" d="M 35.882812 24.746094 L 24.175781 40.320312 L 10.234375 29.839844 L 21.941406 14.265625 Z M 35.882812 24.746094 " fill-opacity="1" fill-rule="nonzero"/></g></g></g><g clip-path="url(#469b5cf756)"><path stroke-linecap="round" transform="matrix(-0.203361, -0.152878, 0.152878, -0.203361, 37.729993, 41.042028)" fill="none" stroke-linejoin="miter" d="M 8.49647 8.494623 L 76.676538 8.507112 " stroke="#ffffff" stroke-width="17" stroke-opacity="1" stroke-miterlimit="4"/></g></g></g></g><g mask="url(#b748d6f7d3)"><g transform="matrix(1, 0, 0, 1, 405, 136)"><g clip-path="url(#7e7c351105)"><g clip-path="url(#2391dbb980)"><path fill="#ffffff" d="M 45.84375 6.429688 L 44.011719 5.359375 C 43.667969 5.160156 43.21875 5.058594 42.765625 5.058594 C 42.3125 5.058594 41.863281 5.160156 41.519531 5.359375 L 39.6875 6.429688 C 39 6.828125 38.441406 7.804688 38.441406 8.597656 L 38.441406 10.757812 C 38.441406 10.996094 38.496094 11.246094 38.582031 11.492188 L 26.558594 18.410156 C 26.394531 18.226562 26.21875 18.066406 26.027344 17.953125 L 20.582031 14.734375 C 20.464844 14.667969 20.335938 14.613281 20.195312 14.570312 L 20.195312 9.519531 C 20.386719 9.46875 20.566406 9.402344 20.722656 9.3125 L 22.554688 8.242188 C 23.242188 7.84375 23.800781 6.867188 23.800781 6.074219 L 23.800781 3.910156 C 23.800781 3.117188 23.242188 2.144531 22.554688 1.742188 L 20.722656 0.671875 C 20.378906 0.472656 19.925781 0.375 19.476562 0.375 C 19.023438 0.375 18.574219 0.472656 18.230469 0.671875 L 16.398438 1.742188 C 15.710938 2.144531 15.152344 3.117188 15.152344 3.910156 L 15.152344 6.074219 C 15.152344 6.867188 15.710938 7.84375 16.398438 8.242188 L 18.230469 9.3125 C 18.386719 9.402344 18.566406 9.46875 18.753906 9.519531 L 18.753906 14.496094 C 18.515625 14.546875 18.289062 14.621094 18.101562 14.734375 L 12.652344 17.953125 C 11.972656 18.355469 11.414062 19.335938 11.414062 20.128906 L 11.414062 26.617188 C 11.414062 26.765625 11.4375 26.925781 11.476562 27.085938 L 8.789062 28.628906 C 8.65625 28.496094 8.515625 28.378906 8.367188 28.292969 L 6.53125 27.222656 C 6.1875 27.023438 5.738281 26.921875 5.285156 26.921875 C 4.835938 26.921875 4.382812 27.023438 4.042969 27.222656 L 2.207031 28.292969 C 1.523438 28.691406 0.960938 29.667969 0.960938 30.460938 L 0.960938 32.621094 C 0.960938 33.414062 1.523438 34.390625 2.207031 34.789062 L 4.042969 35.859375 C 4.382812 36.058594 4.835938 36.160156 5.285156 36.160156 C 5.738281 36.160156 6.1875 36.058594 6.53125 35.859375 L 8.367188 34.789062 C 9.050781 34.390625 9.609375 33.414062 9.609375 32.621094 L 9.609375 30.460938 C 9.609375 30.269531 9.578125 30.070312 9.519531 29.871094 L 12.148438 28.363281 C 12.300781 28.535156 12.472656 28.683594 12.652344 28.789062 L 18.101562 32.007812 C 18.289062 32.121094 18.515625 32.199219 18.753906 32.25 L 18.753906 37.226562 C 18.566406 37.273438 18.386719 37.339844 18.230469 37.433594 L 16.398438 38.5 C 15.710938 38.902344 15.152344 39.875 15.152344 40.667969 L 15.152344 42.832031 C 15.152344 43.625 15.710938 44.601562 16.398438 45 L 18.230469 46.070312 C 18.574219 46.269531 19.023438 46.371094 19.476562 46.371094 C 19.925781 46.371094 20.378906 46.269531 20.722656 46.070312 L 22.554688 45 C 23.242188 44.601562 23.800781 43.625 23.800781 42.832031 L 23.800781 40.667969 C 23.800781 39.875 23.242188 38.902344 22.554688 38.5 L 20.722656 37.433594 C 20.566406 37.339844 20.386719 37.273438 20.195312 37.226562 L 20.195312 32.175781 C 20.335938 32.128906 20.464844 32.078125 20.582031 32.007812 L 26.027344 28.789062 C 26.175781 28.703125 26.316406 28.585938 26.449219 28.449219 L 38.136719 33.382812 C 38.105469 33.53125 38.082031 33.679688 38.082031 33.824219 L 38.082031 35.984375 C 38.082031 36.777344 38.640625 37.753906 39.324219 38.152344 L 41.160156 39.222656 C 41.503906 39.421875 41.953125 39.523438 42.40625 39.523438 C 42.855469 39.523438 43.308594 39.421875 43.648438 39.222656 L 45.484375 38.152344 C 46.167969 37.753906 46.730469 36.777344 46.730469 35.984375 L 46.730469 33.824219 C 46.730469 33.03125 46.167969 32.054688 45.484375 31.65625 L 43.648438 30.585938 C 43.308594 30.386719 42.855469 30.285156 42.40625 30.285156 C 41.953125 30.285156 41.503906 30.386719 41.160156 30.585938 L 39.324219 31.65625 C 39.136719 31.765625 38.960938 31.917969 38.800781 32.101562 L 27.179688 27.195312 C 27.238281 26.996094 27.269531 26.800781 27.269531 26.617188 L 27.269531 20.128906 C 27.269531 19.988281 27.246094 19.84375 27.214844 19.695312 L 39.378906 12.699219 C 39.476562 12.785156 39.578125 12.863281 39.6875 12.925781 L 41.519531 13.996094 C 41.863281 14.195312 42.3125 14.296875 42.765625 14.296875 C 43.21875 14.296875 43.667969 14.195312 44.011719 13.996094 L 45.84375 12.925781 C 46.53125 12.527344 47.089844 11.550781 47.089844 10.757812 L 47.089844 8.597656 C 47.089844 7.804688 46.53125 6.828125 45.84375 6.429688 Z M 45.84375 6.429688 " fill-opacity="1" fill-rule="nonzero"/></g></g></g></g><g mask="url(#e3ecac8696)"><g transform="matrix(1, 0, 0, 1, 619, 85)"><g clip-path="url(#bd20fc3ed9)"><g clip-path="url(#9a85c072de)"><path stroke-linecap="round" transform="matrix(0.256226, 0.702499, -0.702499, 0.256226, 4.440659, 0.52007)" fill="none" stroke-linejoin="miter" d="M 1.999408 2.001546 L 58.694614 2.000745 " stroke="#ffffff" stroke-width="4" stroke-opacity="1" stroke-miterlimit="4"/></g><g clip-path="url(#76cb68b2a4)"><g clip-path="url(#ea1be2bcbb)"><g clip-path="url(#b81edce1a7)"><path fill="#ffffff" d="M 15.105469 12.632812 L 20.742188 28.089844 L 6.90625 33.136719 L 1.269531 17.679688 Z M 15.105469 12.632812 " fill-opacity="1" fill-rule="nonzero"/></g></g></g><g clip-path="url(#781b83e4eb)"><path stroke-linecap="round" transform="matrix(-0.702499, 0.256226, -0.256226, -0.702499, 27.370784, 18.509786)" fill="none" stroke-linejoin="miter" d="M 2.000238 2.000162 L 22.469194 1.998146 " stroke="#ffffff" stroke-width="4" stroke-opacity="1" stroke-miterlimit="4"/></g></g></g></g><g clip-path="url(#f64dd2a3b0)"><g mask="url(#41f98fda6b)"><g transform="matrix(1, 0, 0, 1, 601, -0.000000000000022503)"><g clip-path="url(#6bd96405a5)"><g clip-path="url(#58f540b2ea)"><path fill="#ffffff" d="M 79.90625 -14.949219 L 76.65625 -16.847656 C 76.050781 -17.199219 75.25 -17.375 74.449219 -17.375 C 73.648438 -17.375 72.851562 -17.199219 72.242188 -16.847656 L 68.992188 -14.949219 C 67.777344 -14.242188 66.785156 -12.511719 66.785156 -11.109375 L 66.785156 -7.277344 C 66.785156 -6.859375 66.882812 -6.414062 67.035156 -5.976562 L 45.726562 6.28125 C 45.441406 5.953125 45.125 5.671875 44.789062 5.472656 L 35.140625 -0.230469 C 34.933594 -0.351562 34.699219 -0.445312 34.457031 -0.523438 L 34.457031 -9.472656 C 34.792969 -9.5625 35.113281 -9.679688 35.386719 -9.839844 L 38.636719 -11.738281 C 39.851562 -12.445312 40.84375 -14.171875 40.84375 -15.578125 L 40.84375 -19.410156 C 40.84375 -20.816406 39.851562 -22.542969 38.636719 -23.25 L 35.386719 -25.148438 C 34.78125 -25.5 33.980469 -25.679688 33.179688 -25.679688 C 32.378906 -25.679688 31.582031 -25.5 30.972656 -25.148438 L 27.722656 -23.25 C 26.507812 -22.542969 25.515625 -20.816406 25.515625 -19.410156 L 25.515625 -15.578125 C 25.515625 -14.171875 26.507812 -12.445312 27.722656 -11.738281 L 30.972656 -9.839844 C 31.25 -9.679688 31.566406 -9.5625 31.902344 -9.472656 L 31.902344 -0.65625 C 31.480469 -0.566406 31.078125 -0.429688 30.742188 -0.230469 L 21.089844 5.472656 C 19.882812 6.1875 18.890625 7.921875 18.890625 9.328125 L 18.890625 20.820312 C 18.890625 21.089844 18.9375 21.371094 19.003906 21.652344 L 14.242188 24.390625 C 14.007812 24.15625 13.757812 23.945312 13.492188 23.792969 L 10.242188 21.894531 C 9.636719 21.542969 8.835938 21.363281 8.035156 21.363281 C 7.234375 21.363281 6.4375 21.542969 5.828125 21.894531 L 2.578125 23.792969 C 1.363281 24.5 0.371094 26.226562 0.371094 27.632812 L 0.371094 31.464844 C 0.371094 32.871094 1.363281 34.597656 2.578125 35.304688 L 5.828125 37.203125 C 6.4375 37.554688 7.234375 37.734375 8.035156 37.734375 C 8.835938 37.734375 9.636719 37.554688 10.242188 37.203125 L 13.492188 35.304688 C 14.707031 34.597656 15.699219 32.871094 15.699219 31.464844 L 15.699219 27.632812 C 15.699219 27.300781 15.640625 26.945312 15.535156 26.59375 L 20.191406 23.914062 C 20.46875 24.222656 20.769531 24.488281 21.089844 24.675781 L 30.742188 30.378906 C 31.078125 30.578125 31.480469 30.714844 31.902344 30.804688 L 31.902344 39.621094 C 31.566406 39.710938 31.25 39.828125 30.972656 39.988281 L 27.722656 41.886719 C 26.507812 42.59375 25.515625 44.320312 25.515625 45.726562 L 25.515625 49.558594 C 25.515625 50.964844 26.507812 52.691406 27.722656 53.398438 L 30.972656 55.296875 C 31.582031 55.648438 32.378906 55.828125 33.179688 55.828125 C 33.980469 55.828125 34.78125 55.648438 35.386719 55.296875 L 38.636719 53.398438 C 39.851562 52.691406 40.84375 50.964844 40.84375 49.558594 L 40.84375 45.726562 C 40.84375 44.320312 39.851562 42.59375 38.636719 41.886719 L 35.386719 39.988281 C 35.113281 39.828125 34.792969 39.710938 34.457031 39.621094 L 34.457031 30.671875 C 34.699219 30.59375 34.933594 30.5 35.140625 30.378906 L 44.789062 24.675781 C 45.050781 24.519531 45.300781 24.3125 45.535156 24.074219 L 66.246094 32.816406 C 66.1875 33.078125 66.148438 33.34375 66.148438 33.59375 L 66.148438 37.425781 C 66.148438 38.832031 67.140625 40.558594 68.355469 41.265625 L 71.605469 43.164062 C 72.210938 43.515625 73.011719 43.691406 73.8125 43.691406 C 74.609375 43.691406 75.410156 43.515625 76.015625 43.164062 L 79.265625 41.265625 C 80.480469 40.558594 81.472656 38.832031 81.472656 37.425781 L 81.472656 33.59375 C 81.472656 32.1875 80.480469 30.460938 79.265625 29.75 L 76.015625 27.855469 C 75.410156 27.5 74.609375 27.324219 73.8125 27.324219 C 73.011719 27.324219 72.210938 27.5 71.605469 27.855469 L 68.355469 29.75 C 68.023438 29.945312 67.710938 30.222656 67.425781 30.539062 L 46.832031 21.847656 C 46.929688 21.5 46.988281 21.152344 46.988281 20.820312 L 46.988281 9.328125 C 46.988281 9.078125 46.949219 8.820312 46.890625 8.558594 L 68.449219 -3.839844 C 68.625 -3.6875 68.804688 -3.546875 68.992188 -3.433594 L 72.242188 -1.539062 C 72.851562 -1.183594 73.648438 -1.007812 74.449219 -1.007812 C 75.25 -1.007812 76.050781 -1.183594 76.65625 -1.539062 L 79.90625 -3.433594 C 81.121094 -4.144531 82.113281 -5.871094 82.113281 -7.277344 L 82.113281 -11.109375 C 82.113281 -12.511719 81.121094 -14.242188 79.90625 -14.949219 Z M 79.90625 -14.949219 " fill-opacity="1" fill-rule="nonzero"/></g></g></g></g></g><g mask="url(#4856dcead8)"><g transform="matrix(1, 0, 0, 1, 483, 48)"><g clip-path="url(#5b40371e73)"><g clip-path="url(#aa318ea06e)"><path fill="#ffffff" d="M 15.339844 2.371094 L 14.738281 2.019531 C 14.625 1.953125 14.476562 1.921875 14.328125 1.921875 C 14.179688 1.921875 14.03125 1.953125 13.917969 2.019531 L 13.316406 2.371094 C 13.089844 2.503906 12.90625 2.824219 12.90625 3.085938 L 12.90625 3.796875 C 12.90625 3.875 12.925781 3.957031 12.953125 4.039062 L 9 6.3125 C 8.945312 6.25 8.886719 6.199219 8.824219 6.160156 L 7.035156 5.101562 C 6.996094 5.082031 6.953125 5.0625 6.910156 5.046875 L 6.910156 3.386719 C 6.972656 3.371094 7.03125 3.351562 7.082031 3.320312 L 7.683594 2.96875 C 7.910156 2.835938 8.09375 2.515625 8.09375 2.253906 L 8.09375 1.542969 C 8.09375 1.285156 7.910156 0.964844 7.683594 0.832031 L 7.082031 0.480469 C 6.96875 0.414062 6.820312 0.382812 6.671875 0.382812 C 6.523438 0.382812 6.375 0.414062 6.261719 0.480469 L 5.660156 0.832031 C 5.433594 0.964844 5.25 1.285156 5.25 1.542969 L 5.25 2.253906 C 5.25 2.515625 5.433594 2.835938 5.660156 2.96875 L 6.261719 3.320312 C 6.3125 3.351562 6.371094 3.371094 6.433594 3.386719 L 6.433594 5.023438 C 6.355469 5.039062 6.28125 5.066406 6.21875 5.101562 L 4.429688 6.160156 C 4.203125 6.292969 4.019531 6.617188 4.019531 6.875 L 4.019531 9.007812 C 4.019531 9.058594 4.027344 9.109375 4.042969 9.164062 L 3.15625 9.671875 C 3.113281 9.628906 3.066406 9.589844 3.019531 9.558594 L 2.414062 9.207031 C 2.304688 9.144531 2.15625 9.109375 2.007812 9.109375 C 1.859375 9.109375 1.710938 9.144531 1.597656 9.207031 L 0.992188 9.558594 C 0.769531 9.691406 0.585938 10.011719 0.585938 10.273438 L 0.585938 10.984375 C 0.585938 11.246094 0.769531 11.566406 0.992188 11.695312 L 1.597656 12.046875 C 1.710938 12.113281 1.859375 12.148438 2.007812 12.148438 C 2.15625 12.148438 2.304688 12.113281 2.414062 12.046875 L 3.019531 11.695312 C 3.242188 11.566406 3.429688 11.246094 3.429688 10.984375 L 3.429688 10.273438 C 3.429688 10.210938 3.417969 10.144531 3.398438 10.082031 L 4.261719 9.582031 C 4.3125 9.640625 4.367188 9.6875 4.429688 9.722656 L 6.21875 10.78125 C 6.28125 10.820312 6.355469 10.84375 6.433594 10.859375 L 6.433594 12.496094 C 6.371094 12.511719 6.3125 12.535156 6.261719 12.566406 L 5.660156 12.917969 C 5.433594 13.046875 5.25 13.371094 5.25 13.628906 L 5.25 14.339844 C 5.25 14.601562 5.433594 14.921875 5.660156 15.054688 L 6.261719 15.40625 C 6.375 15.472656 6.523438 15.503906 6.671875 15.503906 C 6.820312 15.503906 6.96875 15.472656 7.082031 15.40625 L 7.683594 15.054688 C 7.910156 14.921875 8.09375 14.601562 8.09375 14.339844 L 8.09375 13.628906 C 8.09375 13.371094 7.910156 13.046875 7.683594 12.917969 L 7.082031 12.566406 C 7.03125 12.535156 6.972656 12.511719 6.910156 12.496094 L 6.910156 10.835938 C 6.953125 10.820312 6.996094 10.804688 7.035156 10.78125 L 8.824219 9.722656 C 8.875 9.695312 8.921875 9.65625 8.964844 9.613281 L 12.808594 11.234375 C 12.796875 11.285156 12.789062 11.332031 12.789062 11.378906 L 12.789062 12.089844 C 12.789062 12.351562 12.972656 12.671875 13.199219 12.800781 L 13.800781 13.152344 C 13.914062 13.21875 14.0625 13.253906 14.210938 13.253906 C 14.359375 13.253906 14.507812 13.21875 14.621094 13.152344 L 15.222656 12.800781 C 15.449219 12.671875 15.632812 12.351562 15.632812 12.089844 L 15.632812 11.378906 C 15.632812 11.117188 15.449219 10.796875 15.222656 10.667969 L 14.621094 10.3125 C 14.507812 10.25 14.359375 10.214844 14.210938 10.214844 C 14.0625 10.214844 13.914062 10.25 13.800781 10.3125 L 13.199219 10.667969 C 13.136719 10.703125 13.078125 10.753906 13.023438 10.8125 L 9.203125 9.199219 C 9.222656 9.136719 9.234375 9.070312 9.234375 9.007812 L 9.234375 6.875 C 9.234375 6.832031 9.226562 6.78125 9.214844 6.734375 L 13.214844 4.433594 C 13.246094 4.460938 13.28125 4.488281 13.316406 4.507812 L 13.917969 4.859375 C 14.03125 4.925781 14.179688 4.960938 14.328125 4.960938 C 14.476562 4.960938 14.625 4.925781 14.738281 4.859375 L 15.339844 4.507812 C 15.566406 4.378906 15.75 4.058594 15.75 3.796875 L 15.75 3.085938 C 15.75 2.824219 15.566406 2.503906 15.339844 2.371094 Z M 15.339844 2.371094 " fill-opacity="1" fill-rule="nonzero"/></g></g></g></g><g clip-path="url(#dc1799d453)"><g mask="url(#ce02b4805f)"><g transform="matrix(1, 0, 0, 1, 405, 206)"><g clip-path="url(#b4cf3afdb8)"><g clip-path="url(#fdd0f0c887)"><g clip-path="url(#2f686e991d)"><g clip-path="url(#26432e6d42)"><path fill="#ffffff" d="M 38.824219 6.871094 L 35.851562 9.414062 C 35.296875 9.886719 34.851562 10.613281 34.578125 11.394531 C 34.304688 12.179688 34.203125 13.027344 34.34375 13.742188 L 35.089844 17.582031 C 35.371094 19.015625 36.726562 20.582031 38.105469 21.0625 L 41.867188 22.371094 C 42.273438 22.515625 42.746094 22.574219 43.226562 22.570312 L 47.964844 47.679688 C 47.546875 47.847656 47.160156 48.058594 46.851562 48.320312 L 37.949219 55.839844 C 37.761719 56 37.589844 56.199219 37.425781 56.410156 L 28.644531 53.347656 C 28.675781 52.988281 28.667969 52.632812 28.605469 52.308594 L 27.855469 48.46875 C 27.574219 47.039062 26.21875 45.472656 24.839844 44.992188 L 21.082031 43.679688 C 19.703125 43.199219 17.664062 43.582031 16.554688 44.53125 L 13.582031 47.070312 C 13.027344 47.546875 12.578125 48.269531 12.304688 49.054688 C 12.03125 49.839844 11.933594 50.683594 12.070312 51.402344 L 12.820312 55.238281 C 13.101562 56.671875 14.457031 58.238281 15.835938 58.71875 L 19.59375 60.03125 C 20.972656 60.511719 23.011719 60.128906 24.121094 59.179688 L 27.09375 56.640625 C 27.34375 56.425781 27.570312 56.152344 27.773438 55.851562 L 36.425781 58.871094 C 36.367188 59.316406 36.367188 59.757812 36.445312 60.15625 L 38.738281 71.578125 C 39.027344 73.011719 40.390625 74.574219 41.769531 75.054688 L 53.050781 78.988281 C 53.3125 79.082031 53.601562 79.132812 53.902344 79.164062 L 54.960938 84.773438 C 54.648438 84.925781 54.355469 85.097656 54.117188 85.304688 L 51.144531 87.847656 C 50.585938 88.320312 50.140625 89.042969 49.867188 89.828125 C 49.59375 90.613281 49.492188 91.460938 49.632812 92.175781 L 50.378906 96.015625 C 50.660156 97.449219 52.015625 99.015625 53.394531 99.496094 L 57.15625 100.804688 C 58.535156 101.289062 60.570312 100.90625 61.679688 99.957031 L 64.652344 97.414062 C 65.207031 96.941406 65.65625 96.214844 65.929688 95.429688 C 66.203125 94.644531 66.304688 93.800781 66.164062 93.085938 L 65.414062 89.246094 C 65.136719 87.8125 63.78125 86.246094 62.402344 85.765625 L 58.640625 84.453125 C 58.3125 84.339844 57.945312 84.277344 57.566406 84.257812 L 56.53125 78.773438 C 56.925781 78.605469 57.289062 78.398438 57.582031 78.152344 L 66.484375 70.632812 C 66.792969 70.367188 67.066406 70.023438 67.296875 69.636719 L 75.953125 72.65625 C 75.921875 73.015625 75.929688 73.367188 75.992188 73.691406 L 76.742188 77.53125 C 77.023438 78.964844 78.378906 80.53125 79.757812 81.011719 L 83.515625 82.324219 C 84.894531 82.804688 86.933594 82.421875 88.042969 81.472656 L 91.015625 78.929688 C 91.570312 78.457031 92.015625 77.730469 92.292969 76.949219 C 92.566406 76.164062 92.664062 75.316406 92.523438 74.601562 L 91.777344 70.761719 C 91.496094 69.328125 90.140625 67.761719 88.761719 67.28125 L 85 65.972656 C 83.621094 65.488281 81.585938 65.871094 80.476562 66.820312 L 77.503906 69.363281 C 77.253906 69.578125 77.027344 69.847656 76.824219 70.148438 L 68.042969 67.085938 C 68.046875 66.820312 68.035156 66.558594 67.988281 66.316406 L 65.695312 54.894531 C 65.632812 54.582031 65.511719 54.265625 65.359375 53.957031 L 81.027344 36.621094 C 81.265625 36.769531 81.507812 36.898438 81.753906 36.984375 L 85.515625 38.296875 C 86.894531 38.777344 88.929688 38.394531 90.039062 37.445312 L 93.011719 34.90625 C 93.566406 34.433594 94.015625 33.707031 94.289062 32.921875 C 94.5625 32.136719 94.664062 31.292969 94.523438 30.574219 L 93.773438 26.738281 C 93.496094 25.304688 92.140625 23.738281 90.761719 23.257812 L 87 21.945312 C 85.621094 21.464844 83.585938 21.847656 82.476562 22.796875 L 79.503906 25.335938 C 78.945312 25.8125 78.5 26.535156 78.226562 27.320312 C 77.953125 28.105469 77.851562 28.949219 77.992188 29.667969 L 78.738281 33.507812 C 78.816406 33.898438 78.980469 34.300781 79.195312 34.6875 L 63.617188 51.921875 C 63.308594 51.707031 62.988281 51.527344 62.664062 51.414062 L 51.382812 47.480469 C 51.140625 47.398438 50.875 47.347656 50.597656 47.316406 L 45.804688 21.917969 C 46.019531 21.796875 46.21875 21.667969 46.390625 21.523438 L 49.363281 18.980469 C 49.917969 18.507812 50.367188 17.78125 50.640625 16.996094 C 50.914062 16.214844 51.011719 15.367188 50.875 14.652344 L 50.125 10.8125 C 49.847656 9.378906 48.488281 7.8125 47.109375 7.332031 L 43.351562 6.019531 C 41.972656 5.539062 39.9375 5.921875 38.824219 6.871094 Z M 38.824219 6.871094 " fill-opacity="1" fill-rule="nonzero"/></g></g></g></g></g></g></g><g mask="url(#88ec792155)"><g transform="matrix(1, 0, 0, 1, 555, 119)"><g clip-path="url(#2447e02595)"><g clip-path="url(#c6ac4dee42)"><path fill="#ffffff" d="M 16.828125 3.226562 L 16.179688 2.847656 C 16.058594 2.777344 15.898438 2.742188 15.742188 2.742188 C 15.582031 2.742188 15.421875 2.777344 15.300781 2.847656 L 14.652344 3.226562 C 14.410156 3.367188 14.210938 3.710938 14.210938 3.992188 L 14.210938 4.757812 C 14.210938 4.839844 14.230469 4.929688 14.261719 5.015625 L 10.011719 7.460938 C 9.957031 7.394531 9.894531 7.339844 9.828125 7.300781 L 7.902344 6.160156 C 7.859375 6.136719 7.8125 6.121094 7.765625 6.101562 L 7.765625 4.320312 C 7.832031 4.300781 7.894531 4.277344 7.953125 4.246094 L 8.597656 3.867188 C 8.839844 3.726562 9.039062 3.382812 9.039062 3.101562 L 9.039062 2.335938 C 9.039062 2.058594 8.839844 1.710938 8.597656 1.570312 L 7.953125 1.195312 C 7.832031 1.121094 7.671875 1.085938 7.511719 1.085938 C 7.351562 1.085938 7.191406 1.121094 7.070312 1.195312 L 6.421875 1.570312 C 6.179688 1.710938 5.984375 2.058594 5.984375 2.335938 L 5.984375 3.101562 C 5.984375 3.382812 6.179688 3.726562 6.421875 3.867188 L 7.070312 4.246094 C 7.125 4.277344 7.191406 4.300781 7.257812 4.320312 L 7.257812 6.078125 C 7.171875 6.09375 7.09375 6.121094 7.023438 6.160156 L 5.101562 7.300781 C 4.859375 7.441406 4.664062 7.789062 4.664062 8.066406 L 4.664062 10.359375 C 4.664062 10.414062 4.671875 10.46875 4.683594 10.527344 L 3.734375 11.070312 C 3.6875 11.023438 3.636719 10.984375 3.585938 10.953125 L 2.9375 10.574219 C 2.816406 10.503906 2.65625 10.46875 2.496094 10.46875 C 2.339844 10.46875 2.179688 10.503906 2.058594 10.574219 L 1.410156 10.953125 C 1.167969 11.09375 0.96875 11.4375 0.96875 11.71875 L 0.96875 12.480469 C 0.96875 12.761719 1.167969 13.105469 1.410156 13.246094 L 2.058594 13.625 C 2.179688 13.695312 2.339844 13.730469 2.496094 13.730469 C 2.65625 13.730469 2.816406 13.695312 2.9375 13.625 L 3.585938 13.246094 C 3.828125 13.105469 4.027344 12.761719 4.027344 12.480469 L 4.027344 11.71875 C 4.027344 11.652344 4.015625 11.582031 3.992188 11.511719 L 4.921875 10.976562 C 4.976562 11.039062 5.035156 11.089844 5.101562 11.128906 L 7.023438 12.265625 C 7.09375 12.304688 7.171875 12.332031 7.257812 12.351562 L 7.257812 14.109375 C 7.191406 14.125 7.125 14.148438 7.070312 14.183594 L 6.421875 14.558594 C 6.179688 14.699219 5.984375 15.046875 5.984375 15.324219 L 5.984375 16.089844 C 5.984375 16.371094 6.179688 16.714844 6.421875 16.855469 L 7.070312 17.234375 C 7.191406 17.304688 7.351562 17.339844 7.511719 17.339844 C 7.671875 17.339844 7.832031 17.304688 7.953125 17.234375 L 8.597656 16.855469 C 8.839844 16.714844 9.039062 16.371094 9.039062 16.089844 L 9.039062 15.324219 C 9.039062 15.046875 8.839844 14.699219 8.597656 14.558594 L 7.953125 14.183594 C 7.894531 14.148438 7.832031 14.125 7.765625 14.109375 L 7.765625 12.324219 C 7.8125 12.308594 7.859375 12.289062 7.902344 12.265625 L 9.828125 11.128906 C 9.878906 11.097656 9.929688 11.054688 9.976562 11.007812 L 14.105469 12.75 C 14.09375 12.804688 14.085938 12.855469 14.085938 12.90625 L 14.085938 13.671875 C 14.085938 13.949219 14.28125 14.296875 14.523438 14.4375 L 15.171875 14.816406 C 15.292969 14.886719 15.453125 14.921875 15.613281 14.921875 C 15.773438 14.921875 15.933594 14.886719 16.054688 14.816406 L 16.699219 14.4375 C 16.941406 14.296875 17.140625 13.949219 17.140625 13.671875 L 17.140625 12.90625 C 17.140625 12.625 16.941406 12.28125 16.699219 12.140625 L 16.054688 11.761719 C 15.933594 11.691406 15.773438 11.65625 15.613281 11.65625 C 15.453125 11.65625 15.292969 11.691406 15.171875 11.761719 L 14.523438 12.140625 C 14.457031 12.179688 14.394531 12.234375 14.339844 12.296875 L 10.234375 10.566406 C 10.253906 10.496094 10.265625 10.425781 10.265625 10.359375 L 10.265625 8.066406 C 10.265625 8.019531 10.257812 7.964844 10.246094 7.914062 L 14.542969 5.441406 C 14.578125 5.472656 14.613281 5.5 14.652344 5.523438 L 15.300781 5.902344 C 15.421875 5.972656 15.582031 6.007812 15.742188 6.007812 C 15.898438 6.007812 16.058594 5.972656 16.179688 5.902344 L 16.828125 5.523438 C 17.070312 5.382812 17.269531 5.039062 17.269531 4.757812 L 17.269531 3.992188 C 17.269531 3.710938 17.070312 3.367188 16.828125 3.226562 Z M 16.828125 3.226562 " fill-opacity="1" fill-rule="nonzero"/></g></g></g></g><g mask="url(#dc46cab511)"><g transform="matrix(1, 0, 0, 1, 452, -0.000000000000022503)"><g clip-path="url(#2a8ec08741)"><g clip-path="url(#122460cec7)"><path fill="#ffffff" d="M 17.304688 -5.722656 L 16.601562 -6.132812 C 16.472656 -6.207031 16.296875 -6.246094 16.125 -6.246094 C 15.953125 -6.246094 15.777344 -6.207031 15.648438 -6.132812 L 14.945312 -5.722656 C 14.683594 -5.566406 14.46875 -5.195312 14.46875 -4.890625 L 14.46875 -4.058594 C 14.46875 -3.96875 14.488281 -3.875 14.519531 -3.777344 L 9.910156 -1.125 C 9.847656 -1.195312 9.78125 -1.257812 9.707031 -1.300781 L 7.617188 -2.535156 C 7.574219 -2.5625 7.523438 -2.582031 7.472656 -2.597656 L 7.472656 -4.535156 C 7.542969 -4.554688 7.613281 -4.582031 7.671875 -4.617188 L 8.375 -5.027344 C 8.636719 -5.179688 8.851562 -5.554688 8.851562 -5.855469 L 8.851562 -6.6875 C 8.851562 -6.992188 8.636719 -7.363281 8.375 -7.515625 L 7.671875 -7.929688 C 7.539062 -8.003906 7.367188 -8.042969 7.195312 -8.042969 C 7.019531 -8.042969 6.847656 -8.003906 6.71875 -7.929688 L 6.011719 -7.515625 C 5.75 -7.363281 5.535156 -6.992188 5.535156 -6.6875 L 5.535156 -5.855469 C 5.535156 -5.554688 5.75 -5.179688 6.011719 -5.027344 L 6.71875 -4.617188 C 6.777344 -4.582031 6.84375 -4.554688 6.917969 -4.535156 L 6.917969 -2.628906 C 6.824219 -2.609375 6.738281 -2.578125 6.667969 -2.535156 L 4.578125 -1.300781 C 4.316406 -1.148438 4.101562 -0.769531 4.101562 -0.46875 L 4.101562 2.019531 C 4.101562 2.078125 4.113281 2.140625 4.125 2.199219 L 3.097656 2.792969 C 3.046875 2.742188 2.992188 2.695312 2.933594 2.664062 L 2.230469 2.253906 C 2.097656 2.175781 1.925781 2.136719 1.753906 2.136719 C 1.578125 2.136719 1.40625 2.175781 1.273438 2.253906 L 0.570312 2.664062 C 0.308594 2.816406 0.09375 3.191406 0.09375 3.496094 L 0.09375 4.324219 C 0.09375 4.628906 0.308594 5 0.570312 5.15625 L 1.273438 5.566406 C 1.40625 5.640625 1.578125 5.679688 1.753906 5.679688 C 1.925781 5.679688 2.097656 5.640625 2.230469 5.566406 L 2.933594 5.15625 C 3.195312 5 3.410156 4.628906 3.410156 4.324219 L 3.410156 3.496094 C 3.410156 3.421875 3.398438 3.347656 3.375 3.269531 L 4.382812 2.691406 C 4.441406 2.757812 4.507812 2.8125 4.578125 2.855469 L 6.667969 4.089844 C 6.738281 4.132812 6.824219 4.160156 6.917969 4.179688 L 6.917969 6.089844 C 6.84375 6.109375 6.777344 6.132812 6.71875 6.167969 L 6.011719 6.578125 C 5.75 6.730469 5.535156 7.105469 5.535156 7.410156 L 5.535156 8.238281 C 5.535156 8.542969 5.75 8.917969 6.011719 9.070312 L 6.71875 9.480469 C 6.847656 9.558594 7.019531 9.597656 7.195312 9.597656 C 7.367188 9.597656 7.539062 9.558594 7.671875 9.480469 L 8.375 9.070312 C 8.636719 8.917969 8.851562 8.542969 8.851562 8.238281 L 8.851562 7.410156 C 8.851562 7.105469 8.636719 6.730469 8.375 6.578125 L 7.671875 6.167969 C 7.613281 6.132812 7.542969 6.109375 7.472656 6.089844 L 7.472656 4.152344 C 7.523438 4.136719 7.574219 4.113281 7.617188 4.089844 L 9.707031 2.855469 C 9.765625 2.820312 9.816406 2.777344 9.867188 2.722656 L 14.351562 4.617188 C 14.335938 4.671875 14.328125 4.730469 14.328125 4.785156 L 14.328125 5.613281 C 14.328125 5.917969 14.542969 6.292969 14.804688 6.445312 L 15.507812 6.855469 C 15.640625 6.933594 15.8125 6.96875 15.988281 6.96875 C 16.160156 6.96875 16.332031 6.933594 16.464844 6.855469 L 17.167969 6.445312 C 17.429688 6.292969 17.644531 5.917969 17.644531 5.613281 L 17.644531 4.785156 C 17.644531 4.480469 17.429688 4.105469 17.167969 3.953125 L 16.464844 3.542969 C 16.332031 3.464844 16.160156 3.425781 15.988281 3.425781 C 15.8125 3.425781 15.640625 3.464844 15.507812 3.542969 L 14.804688 3.953125 C 14.734375 3.996094 14.667969 4.054688 14.605469 4.125 L 10.148438 2.242188 C 10.171875 2.167969 10.183594 2.089844 10.183594 2.019531 L 10.183594 -0.46875 C 10.183594 -0.519531 10.175781 -0.578125 10.160156 -0.632812 L 14.828125 -3.316406 C 14.863281 -3.285156 14.902344 -3.253906 14.945312 -3.230469 L 15.648438 -2.820312 C 15.777344 -2.742188 15.953125 -2.703125 16.125 -2.703125 C 16.296875 -2.703125 16.472656 -2.742188 16.601562 -2.820312 L 17.304688 -3.230469 C 17.570312 -3.382812 17.785156 -3.757812 17.785156 -4.058594 L 17.785156 -4.890625 C 17.785156 -5.195312 17.570312 -5.566406 17.304688 -5.722656 Z M 17.304688 -5.722656 " fill-opacity="1" fill-rule="nonzero"/></g></g></g></g><g clip-path="url(#4987d52a4a)"><g mask="url(#8a0a6add00)"><g transform="matrix(1, 0, 0, 1, 624, -0.000000000000022503)"><g clip-path="url(#96877a3080)"><g clip-path="url(#49ea3aa2ae)"><path fill="#ffffff" d="M 56.3125 -36.925781 L 54.050781 -38.242188 C 53.628906 -38.488281 53.070312 -38.613281 52.515625 -38.613281 C 51.960938 -38.613281 51.402344 -38.488281 50.980469 -38.242188 L 48.71875 -36.925781 C 47.875 -36.433594 47.183594 -35.230469 47.183594 -34.25 L 47.183594 -31.585938 C 47.183594 -31.296875 47.25 -30.988281 47.359375 -30.679688 L 32.535156 -22.152344 C 32.335938 -22.382812 32.117188 -22.578125 31.882812 -22.714844 L 25.167969 -26.683594 C 25.023438 -26.769531 24.863281 -26.832031 24.695312 -26.890625 L 24.695312 -33.113281 C 24.925781 -33.175781 25.148438 -33.257812 25.339844 -33.371094 L 27.601562 -34.6875 C 28.445312 -35.179688 29.136719 -36.382812 29.136719 -37.363281 L 29.136719 -40.027344 C 29.136719 -41.003906 28.445312 -42.207031 27.601562 -42.699219 L 25.339844 -44.019531 C 24.917969 -44.265625 24.359375 -44.386719 23.804688 -44.386719 C 23.25 -44.386719 22.691406 -44.265625 22.269531 -44.019531 L 20.007812 -42.699219 C 19.164062 -42.207031 18.472656 -41.003906 18.472656 -40.027344 L 18.472656 -37.363281 C 18.472656 -36.382812 19.164062 -35.179688 20.007812 -34.6875 L 22.269531 -33.371094 C 22.460938 -33.257812 22.683594 -33.175781 22.917969 -33.113281 L 22.917969 -26.980469 C 22.621094 -26.917969 22.34375 -26.824219 22.109375 -26.683594 L 15.394531 -22.714844 C 14.554688 -22.21875 13.863281 -21.011719 13.863281 -20.035156 L 13.863281 -12.039062 C 13.863281 -11.851562 13.898438 -11.65625 13.941406 -11.460938 L 10.628906 -9.554688 C 10.464844 -9.71875 10.292969 -9.867188 10.109375 -9.972656 L 7.847656 -11.292969 C 7.425781 -11.539062 6.867188 -11.660156 6.3125 -11.660156 C 5.753906 -11.660156 5.199219 -11.539062 4.777344 -11.292969 L 2.515625 -9.972656 C 1.671875 -9.480469 0.980469 -8.277344 0.980469 -7.300781 L 0.980469 -4.632812 C 0.980469 -3.65625 1.671875 -2.453125 2.515625 -1.960938 L 4.777344 -0.644531 C 5.199219 -0.398438 5.753906 -0.273438 6.3125 -0.273438 C 6.867188 -0.273438 7.425781 -0.398438 7.847656 -0.644531 L 10.109375 -1.960938 C 10.953125 -2.453125 11.644531 -3.65625 11.644531 -4.632812 L 11.644531 -7.300781 C 11.644531 -7.53125 11.601562 -7.777344 11.53125 -8.023438 L 14.769531 -9.886719 C 14.960938 -9.671875 15.171875 -9.488281 15.394531 -9.359375 L 22.109375 -5.390625 C 22.34375 -5.25 22.621094 -5.15625 22.917969 -5.09375 L 22.917969 1.039062 C 22.683594 1.101562 22.460938 1.183594 22.269531 1.296875 L 20.007812 2.613281 C 19.164062 3.105469 18.472656 4.308594 18.472656 5.289062 L 18.472656 7.953125 C 18.472656 8.929688 19.164062 10.132812 20.007812 10.625 L 22.269531 11.945312 C 22.691406 12.191406 23.25 12.3125 23.804688 12.3125 C 24.359375 12.3125 24.917969 12.191406 25.339844 11.945312 L 27.601562 10.625 C 28.445312 10.132812 29.136719 8.929688 29.136719 7.953125 L 29.136719 5.289062 C 29.136719 4.308594 28.445312 3.105469 27.601562 2.613281 L 25.339844 1.296875 C 25.148438 1.183594 24.925781 1.101562 24.695312 1.039062 L 24.695312 -5.183594 C 24.863281 -5.242188 25.023438 -5.304688 25.167969 -5.390625 L 31.882812 -9.359375 C 32.066406 -9.464844 32.238281 -9.613281 32.398438 -9.777344 L 46.808594 -3.695312 C 46.769531 -3.511719 46.738281 -3.328125 46.738281 -3.152344 L 46.738281 -0.488281 C 46.738281 0.488281 47.429688 1.691406 48.273438 2.183594 L 50.535156 3.503906 C 50.957031 3.75 51.515625 3.871094 52.070312 3.871094 C 52.628906 3.871094 53.183594 3.75 53.605469 3.503906 L 55.867188 2.183594 C 56.710938 1.691406 57.402344 0.488281 57.402344 -0.488281 L 57.402344 -3.152344 C 57.402344 -4.132812 56.710938 -5.332031 55.867188 -5.824219 L 53.605469 -7.144531 C 53.183594 -7.390625 52.628906 -7.515625 52.070312 -7.515625 C 51.515625 -7.515625 50.957031 -7.390625 50.535156 -7.144531 L 48.273438 -5.824219 C 48.042969 -5.691406 47.828125 -5.5 47.628906 -5.277344 L 33.300781 -11.324219 C 33.371094 -11.566406 33.410156 -11.808594 33.410156 -12.039062 L 33.410156 -20.035156 C 33.410156 -20.207031 33.382812 -20.386719 33.34375 -20.570312 L 48.339844 -29.195312 C 48.460938 -29.089844 48.589844 -28.992188 48.71875 -28.914062 L 50.980469 -27.59375 C 51.402344 -27.347656 51.960938 -27.226562 52.515625 -27.226562 C 53.070312 -27.226562 53.628906 -27.347656 54.050781 -27.59375 L 56.3125 -28.914062 C 57.15625 -29.40625 57.847656 -30.609375 57.847656 -31.585938 L 57.847656 -34.25 C 57.847656 -35.230469 57.15625 -36.433594 56.3125 -36.925781 Z M 56.3125 -36.925781 " fill-opacity="1" fill-rule="nonzero"/></g></g></g></g></g><g clip-path="url(#7ca92c9f97)"><g mask="url(#e50f4e38e1)"><g transform="matrix(1, 0, 0, 1, 642, 52)"><g clip-path="url(#835eedb34f)"><g clip-path="url(#8036792cf4)"><path fill="#ffffff" d="M 46.066406 6.351562 L 44.234375 5.28125 C 43.890625 5.082031 43.441406 4.984375 42.988281 4.984375 C 42.539062 4.984375 42.085938 5.082031 41.742188 5.28125 L 39.910156 6.351562 C 39.222656 6.75 38.664062 7.726562 38.664062 8.519531 L 38.664062 10.683594 C 38.664062 10.917969 38.71875 11.167969 38.804688 11.417969 L 26.78125 18.332031 C 26.617188 18.148438 26.441406 17.988281 26.25 17.878906 L 20.804688 14.660156 C 20.6875 14.589844 20.558594 14.539062 20.421875 14.492188 L 20.421875 9.441406 C 20.609375 9.394531 20.789062 9.324219 20.945312 9.234375 L 22.777344 8.164062 C 23.464844 7.765625 24.023438 6.789062 24.023438 5.996094 L 24.023438 3.835938 C 24.023438 3.042969 23.464844 2.066406 22.777344 1.667969 L 20.945312 0.597656 C 20.601562 0.398438 20.148438 0.296875 19.699219 0.296875 C 19.246094 0.296875 18.796875 0.398438 18.453125 0.597656 L 16.621094 1.667969 C 15.933594 2.066406 15.375 3.042969 15.375 3.835938 L 15.375 5.996094 C 15.375 6.789062 15.933594 7.765625 16.621094 8.164062 L 18.453125 9.234375 C 18.609375 9.324219 18.789062 9.394531 18.976562 9.441406 L 18.976562 14.417969 C 18.738281 14.46875 18.511719 14.546875 18.324219 14.660156 L 12.875 17.878906 C 12.195312 18.28125 11.636719 19.257812 11.636719 20.050781 L 11.636719 26.539062 C 11.636719 26.691406 11.660156 26.847656 11.699219 27.007812 L 9.011719 28.554688 C 8.878906 28.417969 8.738281 28.300781 8.589844 28.214844 L 6.753906 27.144531 C 6.414062 26.945312 5.960938 26.84375 5.507812 26.84375 C 5.058594 26.84375 4.605469 26.945312 4.265625 27.144531 L 2.429688 28.214844 C 1.746094 28.613281 1.183594 29.589844 1.183594 30.382812 L 1.183594 32.546875 C 1.183594 33.339844 1.746094 34.3125 2.429688 34.714844 L 4.265625 35.78125 C 4.605469 35.984375 5.058594 36.082031 5.507812 36.082031 C 5.960938 36.082031 6.414062 35.984375 6.753906 35.78125 L 8.589844 34.714844 C 9.273438 34.3125 9.832031 33.339844 9.832031 32.546875 L 9.832031 30.382812 C 9.832031 30.195312 9.800781 29.996094 9.742188 29.796875 L 12.371094 28.285156 C 12.527344 28.457031 12.695312 28.605469 12.875 28.714844 L 18.324219 31.933594 C 18.511719 32.042969 18.738281 32.121094 18.976562 32.171875 L 18.976562 37.148438 C 18.789062 37.199219 18.609375 37.265625 18.453125 37.355469 L 16.621094 38.425781 C 15.933594 38.824219 15.375 39.800781 15.375 40.59375 L 15.375 42.753906 C 15.375 43.546875 15.933594 44.523438 16.621094 44.921875 L 18.453125 45.992188 C 18.796875 46.191406 19.246094 46.292969 19.699219 46.292969 C 20.148438 46.292969 20.601562 46.191406 20.945312 45.992188 L 22.777344 44.921875 C 23.464844 44.523438 24.023438 43.546875 24.023438 42.753906 L 24.023438 40.59375 C 24.023438 39.800781 23.464844 38.824219 22.777344 38.425781 L 20.945312 37.355469 C 20.789062 37.265625 20.609375 37.199219 20.421875 37.148438 L 20.421875 32.097656 C 20.558594 32.054688 20.6875 32 20.804688 31.933594 L 26.25 28.714844 C 26.398438 28.625 26.539062 28.507812 26.671875 28.375 L 38.359375 33.308594 C 38.328125 33.457031 38.304688 33.605469 38.304688 33.746094 L 38.304688 35.910156 C 38.304688 36.703125 38.863281 37.675781 39.546875 38.078125 L 41.382812 39.144531 C 41.726562 39.347656 42.175781 39.445312 42.628906 39.445312 C 43.078125 39.445312 43.53125 39.347656 43.875 39.144531 L 45.707031 38.078125 C 46.390625 37.675781 46.953125 36.703125 46.953125 35.910156 L 46.953125 33.746094 C 46.953125 32.953125 46.390625 31.976562 45.707031 31.578125 L 43.875 30.507812 C 43.53125 30.308594 43.078125 30.207031 42.628906 30.207031 C 42.175781 30.207031 41.726562 30.308594 41.382812 30.507812 L 39.546875 31.578125 C 39.359375 31.6875 39.183594 31.84375 39.023438 32.023438 L 27.402344 27.117188 C 27.460938 26.921875 27.492188 26.726562 27.492188 26.539062 L 27.492188 20.050781 C 27.492188 19.910156 27.46875 19.765625 27.4375 19.617188 L 39.601562 12.621094 C 39.699219 12.707031 39.800781 12.789062 39.910156 12.851562 L 41.742188 13.921875 C 42.085938 14.121094 42.539062 14.21875 42.988281 14.21875 C 43.441406 14.21875 43.890625 14.121094 44.234375 13.921875 L 46.066406 12.851562 C 46.753906 12.449219 47.3125 11.476562 47.3125 10.683594 L 47.3125 8.519531 C 47.3125 7.726562 46.753906 6.75 46.066406 6.351562 Z M 46.066406 6.351562 " fill-opacity="1" fill-rule="nonzero"/></g></g></g></g></g><g mask="url(#4b1072d4c0)"><g transform="matrix(1, 0, 0, 1, 428, 85)"><g clip-path="url(#6206ae95b9)"><g clip-path="url(#57b374f77f)"><path stroke-linecap="round" transform="matrix(-0.0705779, -0.134853, 0.134853, -0.0705779, 25.386483, 31.965394)" fill="none" stroke-linejoin="miter" d="M 8.500433 8.505927 L 202.776888 8.511068 " stroke="#ffffff" stroke-width="17" stroke-opacity="1" stroke-miterlimit="4"/></g><g clip-path="url(#227ee7dd86)"><g clip-path="url(#6d51ecc6ed)"><g clip-path="url(#f9faf9fc32)"><path fill="#ffffff" d="M 16.972656 24.347656 L 11.566406 14.019531 L 20.8125 9.179688 L 26.214844 19.507812 Z M 16.972656 24.347656 " fill-opacity="1" fill-rule="nonzero"/></g></g></g><g clip-path="url(#f76290938d)"><path stroke-linecap="round" transform="matrix(0.134853, -0.0705779, 0.0705779, 0.134853, 7.692835, 21.157841)" fill="none" stroke-linejoin="miter" d="M 8.494478 8.489263 L 76.669924 8.512165 " stroke="#ffffff" stroke-width="17" stroke-opacity="1" stroke-miterlimit="4"/></g></g></g></g></svg>