<svg xmlns="http://www.w3.org/2000/svg" viewBox="0 0 500 350" preserveAspectRatio="xMidYMid" width="500" height="350"
     style="shape-rendering: auto; display: block; background: ;" xmlns:xlink="http://www.w3.org/1999/xlink">
    <g style="transform:translate(250.0px,175.0px) scale(1,-1) translate(-250.0px,-175.0px)">
        <defs>

            <linearGradient id="lg-bk-2osr0q8yzqx" x1="0" x2="0" y1="0" y2="1">
                <stop stop-color="#dffff9" stop-opacity="0" offset="0"></stop>
                <stop stop-color="#dffff9" stop-opacity="1" offset="0.6375"></stop>
            </linearGradient>
            <linearGradient id="lg-freyurszfti" x1="0" x2="0" y1="0" y2="1">
                <stop stop-color="rgba(95, 202, 255, 1)" offset="0"></stop>
                <stop stop-color="rgba(0, 117, 252, 1" offset="0.37"></stop>
                <stop stop-color="rgba(0, 48, 103, 0)" offset="1"></stop>
            </linearGradient>
        </defs>
        <g>
            <path d="M0 178.5
C250 178.5 250 228.235 500 228.235
C750 228.235 750 178.5 1000 178.5
C1250 178.5 1250 228.235 1500 228.235
C1750 228.235 1750 178.5 2000 178.5
L2000 350 L0 350 Z" fill="url(#lg-freyurszfti)" opacity="0.4">
                <animateTransform attributeName="transform" type="translate" dur="8.333333333333334s"
                                  repeatCount="indefinite" keyTimes="0;1" begin="0s"
                                  values="-1000 0;0 0"></animateTransform>
            </path>
            <animateTransform attributeName="transform" type="translate" dur="8.333333333333334s"
                              repeatCount="indefinite" calcMode="spline" keySplines="0.3 0 0.7 1;0.3 0 0.7 1"
                              keyTimes="0;0.5;1" begin="0s" values="0 0;0 10; 0"></animateTransform>
        </g>
        <g>
            <path d="M0 178.5
C250 178.5 250 228.235 500 228.235
C750 228.235 750 178.5 1000 178.5
C1250 178.5 1250 228.235 1500 228.235
C1750 228.235 1750 178.5 2000 178.5
L2000 350 L0 350 Z" fill="url(#lg-freyurszfti)" opacity="0.4">
                <animateTransform attributeName="transform" type="translate" dur="8.333333333333334s"
                                  repeatCount="indefinite" keyTimes="0;1" begin="-0.388888888888889s"
                                  values="-1000 0;0 0"></animateTransform>
            </path>
            <animateTransform attributeName="transform" type="translate" dur="8.333333333333334s"
                              repeatCount="indefinite" calcMode="spline" keySplines="0.3 0 0.7 1;0.3 0 0.7 1"
                              keyTimes="0;0.5;1" begin="-2.777777777777778s" values="0 0;0 10; 0"></animateTransform>
        </g>
        <g>
            <path d="M0 178.5
C250 178.5 250 228.235 500 228.235
C750 228.235 750 178.5 1000 178.5
C1250 178.5 1250 228.235 1500 228.235
C1750 228.235 1750 178.5 2000 178.5
L2000 350 L0 350 Z" fill="url(#lg-freyurszfti)" opacity="0.4">
                <animateTransform attributeName="transform" type="translate" dur="8.333333333333334s"
                                  repeatCount="indefinite" keyTimes="0;1" begin="-0.777777777777778s"
                                  values="-1000 0;0 0"></animateTransform>
            </path>
            <animateTransform attributeName="transform" type="translate" dur="8.333333333333334s"
                              repeatCount="indefinite" calcMode="spline" keySplines="0.3 0 0.7 1;0.3 0 0.7 1"
                              keyTimes="0;0.5;1" begin="-5.555555555555556s" values="0 0;0 10; 0"></animateTransform>
        </g>
    </g>
    <style type="text/css"></style>
</svg>
