<svg xmlns="http://www.w3.org/2000/svg" xmlns:xlink="http://www.w3.org/1999/xlink" width="868" zoomAndPan="magnify" viewBox="0 0 651 251.250001" height="335" preserveAspectRatio="xMidYMid meet" version="1.0"><defs><filter x="0%" y="0%" width="100%" height="100%" id="fe15177086"><feColorMatrix values="0 0 0 0 1 0 0 0 0 1 0 0 0 0 1 0 0 0 1 0" color-interpolation-filters="sRGB"/></filter><mask id="8c25bd7251"><g filter="url(#fe15177086)"><rect x="-65.1" width="781.2" fill="#000000" y="-25.125" height="301.500001" fill-opacity="0.53"/></g></mask><clipPath id="125a989af7"><path d="M 1.1875 0.390625 L 49.671875 0.390625 L 49.671875 48.875 L 1.1875 48.875 Z M 1.1875 0.390625 " clip-rule="nonzero"/></clipPath><clipPath id="3060cc83ae"><path d="M 13.152344 0.390625 L 37.707031 0.390625 C 44.3125 0.390625 49.671875 5.746094 49.671875 12.355469 L 49.671875 36.910156 C 49.671875 43.519531 44.3125 48.875 37.707031 48.875 L 13.152344 48.875 C 6.542969 48.875 1.1875 43.519531 1.1875 36.910156 L 1.1875 12.355469 C 1.1875 5.746094 6.542969 0.390625 13.152344 0.390625 Z M 13.152344 0.390625 " clip-rule="nonzero"/></clipPath><clipPath id="742b7ec44f"><rect x="0" width="50" y="0" height="50"/></clipPath><mask id="e8b1141d86"><g filter="url(#fe15177086)"><rect x="-65.1" width="781.2" fill="#000000" y="-25.125" height="301.500001" fill-opacity="0.53"/></g></mask><clipPath id="402b65d705"><path d="M 0.671875 0.875 L 49.15625 0.875 L 49.15625 49.359375 L 0.671875 49.359375 Z M 0.671875 0.875 " clip-rule="nonzero"/></clipPath><clipPath id="bf5dd87e5f"><path d="M 12.636719 0.875 L 37.191406 0.875 C 43.800781 0.875 49.15625 6.234375 49.15625 12.839844 L 49.15625 37.394531 C 49.15625 44.003906 43.800781 49.359375 37.191406 49.359375 L 12.636719 49.359375 C 6.027344 49.359375 0.671875 44.003906 0.671875 37.394531 L 0.671875 12.839844 C 0.671875 6.234375 6.027344 0.875 12.636719 0.875 Z M 12.636719 0.875 " clip-rule="nonzero"/></clipPath><clipPath id="81cb1b46e2"><rect x="0" width="50" y="0" height="50"/></clipPath><mask id="d2fd174407"><g filter="url(#fe15177086)"><rect x="-65.1" width="781.2" fill="#000000" y="-25.125" height="301.500001" fill-opacity="0.53"/></g></mask><clipPath id="5c19bdc1d5"><path d="M 0.15625 0.359375 L 48.640625 0.359375 L 48.640625 48.84375 L 0.15625 48.84375 Z M 0.15625 0.359375 " clip-rule="nonzero"/></clipPath><clipPath id="39331da7a7"><path d="M 12.121094 0.359375 L 36.675781 0.359375 C 43.285156 0.359375 48.640625 5.71875 48.640625 12.324219 L 48.640625 36.882812 C 48.640625 43.488281 43.285156 48.84375 36.675781 48.84375 L 12.121094 48.84375 C 5.511719 48.84375 0.15625 43.488281 0.15625 36.882812 L 0.15625 12.324219 C 0.15625 5.71875 5.511719 0.359375 12.121094 0.359375 Z M 12.121094 0.359375 " clip-rule="nonzero"/></clipPath><clipPath id="affb2a4afc"><rect x="0" width="49" y="0" height="49"/></clipPath><clipPath id="5eaddbcdfa"><path d="M 436 240 L 486 240 L 486 250.503906 L 436 250.503906 Z M 436 240 " clip-rule="nonzero"/></clipPath><mask id="abfaa6e623"><g filter="url(#fe15177086)"><rect x="-65.1" width="781.2" fill="#000000" y="-25.125" height="301.500001" fill-opacity="0.53"/></g></mask><clipPath id="3da782ce40"><path d="M 0.640625 0.84375 L 49.125 0.84375 L 49.125 10.503906 L 0.640625 10.503906 Z M 0.640625 0.84375 " clip-rule="nonzero"/></clipPath><clipPath id="0b43b9f58b"><path d="M 12.605469 0.84375 L 37.160156 0.84375 C 43.769531 0.84375 49.125 6.203125 49.125 12.808594 L 49.125 37.367188 C 49.125 43.972656 43.769531 49.332031 37.160156 49.332031 L 12.605469 49.332031 C 5.996094 49.332031 0.640625 43.972656 0.640625 37.367188 L 0.640625 12.808594 C 0.640625 6.203125 5.996094 0.84375 12.605469 0.84375 Z M 12.605469 0.84375 " clip-rule="nonzero"/></clipPath><clipPath id="09826ccb51"><rect x="0" width="50" y="0" height="11"/></clipPath><mask id="5fb11000bf"><g filter="url(#fe15177086)"><rect x="-65.1" width="781.2" fill="#000000" y="-25.125" height="301.500001" fill-opacity="0.53"/></g></mask><clipPath id="9c1852ec2b"><path d="M 13.46875 12.902344 L 62 12.902344 L 62 61.503906 L 13.46875 61.503906 Z M 13.46875 12.902344 " clip-rule="nonzero"/></clipPath><clipPath id="3a623428b4"><path d="M 25.433594 12.902344 L 49.984375 12.902344 C 56.589844 12.902344 61.945312 18.257812 61.945312 24.863281 L 61.945312 49.414062 C 61.945312 56.019531 56.589844 61.375 49.984375 61.375 L 25.433594 61.375 C 18.824219 61.375 13.46875 56.019531 13.46875 49.414062 L 13.46875 24.863281 C 13.46875 18.257812 18.824219 12.902344 25.433594 12.902344 Z M 25.433594 12.902344 " clip-rule="nonzero"/></clipPath><clipPath id="e67e9a0ee9"><rect x="0" width="75" y="0" height="75"/></clipPath><mask id="a7ba4d90db"><g filter="url(#fe15177086)"><rect x="-65.1" width="781.2" fill="#000000" y="-25.125" height="301.500001" fill-opacity="0.53"/></g></mask><clipPath id="23c5984102"><path d="M 12.953125 13.386719 L 61.558594 13.386719 L 61.558594 61.988281 L 12.953125 61.988281 Z M 12.953125 13.386719 " clip-rule="nonzero"/></clipPath><clipPath id="526c4e094e"><path d="M 24.917969 13.386719 L 49.46875 13.386719 C 56.074219 13.386719 61.429688 18.742188 61.429688 25.347656 L 61.429688 49.898438 C 61.429688 56.507812 56.074219 61.863281 49.46875 61.863281 L 24.917969 61.863281 C 18.308594 61.863281 12.953125 56.507812 12.953125 49.898438 L 12.953125 25.347656 C 12.953125 18.742188 18.308594 13.386719 24.917969 13.386719 Z M 24.917969 13.386719 " clip-rule="nonzero"/></clipPath><clipPath id="7b224d369c"><rect x="0" width="75" y="0" height="75"/></clipPath><mask id="0ae1e7ef93"><g filter="url(#fe15177086)"><rect x="-65.1" width="781.2" fill="#000000" y="-25.125" height="301.500001" fill-opacity="0.53"/></g></mask><clipPath id="c66361ee40"><path d="M 13.4375 13.871094 L 62 13.871094 L 62 62.476562 L 13.4375 62.476562 Z M 13.4375 13.871094 " clip-rule="nonzero"/></clipPath><clipPath id="8624e00f51"><path d="M 25.402344 13.871094 L 49.953125 13.871094 C 56.558594 13.871094 61.914062 19.226562 61.914062 25.832031 L 61.914062 50.382812 C 61.914062 56.992188 56.558594 62.347656 49.953125 62.347656 L 25.402344 62.347656 C 18.792969 62.347656 13.4375 56.992188 13.4375 50.382812 L 13.4375 25.832031 C 13.4375 19.226562 18.792969 13.871094 25.402344 13.871094 Z M 25.402344 13.871094 " clip-rule="nonzero"/></clipPath><clipPath id="d178506c96"><rect x="0" width="75" y="0" height="76"/></clipPath><mask id="4f4c93bc6d"><g filter="url(#fe15177086)"><rect x="-65.1" width="781.2" fill="#000000" y="-25.125" height="301.500001" fill-opacity="0.53"/></g></mask><clipPath id="2cc97fe55e"><path d="M 13.921875 13.355469 L 62.527344 13.355469 L 62.527344 61.960938 L 13.921875 61.960938 Z M 13.921875 13.355469 " clip-rule="nonzero"/></clipPath><clipPath id="790ca38158"><path d="M 25.886719 13.355469 L 50.4375 13.355469 C 57.042969 13.355469 62.398438 18.710938 62.398438 25.316406 L 62.398438 49.867188 C 62.398438 56.476562 57.042969 61.832031 50.4375 61.832031 L 25.886719 61.832031 C 19.28125 61.832031 13.921875 56.476562 13.921875 49.867188 L 13.921875 25.316406 C 13.921875 18.710938 19.28125 13.355469 25.886719 13.355469 Z M 25.886719 13.355469 " clip-rule="nonzero"/></clipPath><clipPath id="e6ef718a3d"><rect x="0" width="76" y="0" height="75"/></clipPath><clipPath id="d18a69447d"><path d="M 603 193 L 650.03125 193 L 650.03125 250.503906 L 603 250.503906 Z M 603 193 " clip-rule="nonzero"/></clipPath><mask id="e05ea5bf56"><g filter="url(#fe15177086)"><rect x="-65.1" width="781.2" fill="#000000" y="-25.125" height="301.500001" fill-opacity="0.53"/></g></mask><clipPath id="1a477eeb10"><path d="M 13.410156 13.839844 L 47.03125 13.839844 L 47.03125 57.503906 L 13.410156 57.503906 Z M 13.410156 13.839844 " clip-rule="nonzero"/></clipPath><clipPath id="320335a99f"><path d="M 25.371094 13.839844 L 49.921875 13.839844 C 56.53125 13.839844 61.886719 19.195312 61.886719 25.800781 L 61.886719 50.355469 C 61.886719 56.960938 56.53125 62.316406 49.921875 62.316406 L 25.371094 62.316406 C 18.765625 62.316406 13.410156 56.960938 13.410156 50.355469 L 13.410156 25.800781 C 13.410156 19.195312 18.765625 13.839844 25.371094 13.839844 Z M 25.371094 13.839844 " clip-rule="nonzero"/></clipPath><clipPath id="62a916e529"><rect x="0" width="48" y="0" height="58"/></clipPath><mask id="10d6b56bd9"><g filter="url(#fe15177086)"><rect x="-65.1" width="781.2" fill="#000000" y="-25.125" height="301.500001" fill-opacity="0.53"/></g></mask><clipPath id="0fb409861f"><path d="M 0.957031 0.386719 L 36.46875 0.386719 L 36.46875 35.898438 L 0.957031 35.898438 Z M 0.957031 0.386719 " clip-rule="nonzero"/></clipPath><clipPath id="5d7f940274"><path d="M 7.6875 0.386719 L 29.738281 0.386719 C 31.523438 0.386719 33.234375 1.097656 34.496094 2.359375 C 35.757812 3.621094 36.46875 5.332031 36.46875 7.117188 L 36.46875 29.167969 C 36.46875 30.953125 35.757812 32.664062 34.496094 33.929688 C 33.234375 35.191406 31.523438 35.898438 29.738281 35.898438 L 7.6875 35.898438 C 5.902344 35.898438 4.1875 35.191406 2.925781 33.929688 C 1.664062 32.664062 0.957031 30.953125 0.957031 29.167969 L 0.957031 7.117188 C 0.957031 5.332031 1.664062 3.621094 2.925781 2.359375 C 4.1875 1.097656 5.902344 0.386719 7.6875 0.386719 Z M 7.6875 0.386719 " clip-rule="nonzero"/></clipPath><clipPath id="de924e94aa"><rect x="0" width="37" y="0" height="37"/></clipPath><mask id="3492beaafc"><g filter="url(#fe15177086)"><rect x="-65.1" width="781.2" fill="#000000" y="-25.125" height="301.500001" fill-opacity="0.53"/></g></mask><clipPath id="3887b64f29"><path d="M 0.441406 0.871094 L 35.953125 0.871094 L 35.953125 36.382812 L 0.441406 36.382812 Z M 0.441406 0.871094 " clip-rule="nonzero"/></clipPath><clipPath id="f6ba7a7bed"><path d="M 7.171875 0.871094 L 29.222656 0.871094 C 31.007812 0.871094 32.71875 1.582031 33.980469 2.84375 C 35.242188 4.105469 35.953125 5.816406 35.953125 7.601562 L 35.953125 29.652344 C 35.953125 31.4375 35.242188 33.152344 33.980469 34.414062 C 32.71875 35.675781 31.007812 36.382812 29.222656 36.382812 L 7.171875 36.382812 C 5.386719 36.382812 3.671875 35.675781 2.410156 34.414062 C 1.148438 33.152344 0.441406 31.4375 0.441406 29.652344 L 0.441406 7.601562 C 0.441406 5.816406 1.148438 4.105469 2.410156 2.84375 C 3.671875 1.582031 5.386719 0.871094 7.171875 0.871094 Z M 7.171875 0.871094 " clip-rule="nonzero"/></clipPath><clipPath id="22d899d565"><rect x="0" width="37" y="0" height="37"/></clipPath><mask id="48f6a33743"><g filter="url(#fe15177086)"><rect x="-65.1" width="781.2" fill="#000000" y="-25.125" height="301.500001" fill-opacity="0.53"/></g></mask><clipPath id="9e2c0bc791"><path d="M 0.925781 0.355469 L 36.4375 0.355469 L 36.4375 35.867188 L 0.925781 35.867188 Z M 0.925781 0.355469 " clip-rule="nonzero"/></clipPath><clipPath id="76bbe44442"><path d="M 7.65625 0.355469 L 29.707031 0.355469 C 31.492188 0.355469 33.203125 1.066406 34.464844 2.328125 C 35.726562 3.589844 36.4375 5.300781 36.4375 7.085938 L 36.4375 29.136719 C 36.4375 30.921875 35.726562 32.636719 34.464844 33.898438 C 33.203125 35.160156 31.492188 35.867188 29.707031 35.867188 L 7.65625 35.867188 C 5.871094 35.867188 4.160156 35.160156 2.894531 33.898438 C 1.632812 32.636719 0.925781 30.921875 0.925781 29.136719 L 0.925781 7.085938 C 0.925781 5.300781 1.632812 3.589844 2.894531 2.328125 C 4.160156 1.066406 5.871094 0.355469 7.65625 0.355469 Z M 7.65625 0.355469 " clip-rule="nonzero"/></clipPath><clipPath id="9a23307c98"><rect x="0" width="37" y="0" height="36"/></clipPath><mask id="666003d766"><g filter="url(#fe15177086)"><rect x="-65.1" width="781.2" fill="#000000" y="-25.125" height="301.500001" fill-opacity="0.53"/></g></mask><clipPath id="b8e3db0e40"><path d="M 0.410156 0.839844 L 35.921875 0.839844 L 35.921875 36.351562 L 0.410156 36.351562 Z M 0.410156 0.839844 " clip-rule="nonzero"/></clipPath><clipPath id="eb8e016fd7"><path d="M 7.140625 0.839844 L 29.191406 0.839844 C 30.976562 0.839844 32.6875 1.550781 33.949219 2.8125 C 35.214844 4.074219 35.921875 5.785156 35.921875 7.570312 L 35.921875 29.625 C 35.921875 31.410156 35.214844 33.121094 33.949219 34.382812 C 32.6875 35.644531 30.976562 36.351562 29.191406 36.351562 L 7.140625 36.351562 C 5.355469 36.351562 3.644531 35.644531 2.382812 34.382812 C 1.121094 33.121094 0.410156 31.410156 0.410156 29.625 L 0.410156 7.570312 C 0.410156 5.785156 1.121094 4.074219 2.382812 2.8125 C 3.644531 1.550781 5.355469 0.839844 7.140625 0.839844 Z M 7.140625 0.839844 " clip-rule="nonzero"/></clipPath><clipPath id="d9c3282a87"><rect x="0" width="36" y="0" height="37"/></clipPath><clipPath id="b33b3fd424"><path d="M 622 213 L 650.03125 213 L 650.03125 249 L 622 249 Z M 622 213 " clip-rule="nonzero"/></clipPath><mask id="fc62944561"><g filter="url(#fe15177086)"><rect x="-65.1" width="781.2" fill="#000000" y="-25.125" height="301.500001" fill-opacity="0.53"/></g></mask><clipPath id="f09bbac9c6"><path d="M 0.894531 0.324219 L 28.03125 0.324219 L 28.03125 35.839844 L 0.894531 35.839844 Z M 0.894531 0.324219 " clip-rule="nonzero"/></clipPath><clipPath id="7d84ee40bc"><path d="M 7.625 0.324219 L 29.675781 0.324219 C 31.460938 0.324219 33.171875 1.035156 34.4375 2.296875 C 35.699219 3.558594 36.40625 5.269531 36.40625 7.054688 L 36.40625 29.109375 C 36.40625 30.894531 35.699219 32.605469 34.4375 33.867188 C 33.171875 35.128906 31.460938 35.839844 29.675781 35.839844 L 7.625 35.839844 C 5.839844 35.839844 4.128906 35.128906 2.867188 33.867188 C 1.605469 32.605469 0.894531 30.894531 0.894531 29.109375 L 0.894531 7.054688 C 0.894531 5.269531 1.605469 3.558594 2.867188 2.296875 C 4.128906 1.035156 5.839844 0.324219 7.625 0.324219 Z M 7.625 0.324219 " clip-rule="nonzero"/></clipPath><clipPath id="097ee2963e"><rect x="0" width="29" y="0" height="36"/></clipPath><mask id="652088530b"><g filter="url(#fe15177086)"><rect x="-65.1" width="781.2" fill="#000000" y="-25.125" height="301.500001" fill-opacity="0.53"/></g></mask><clipPath id="4f1359f495"><path d="M 0.226562 0 L 48.710938 0 L 48.710938 2 L 0.226562 2 Z M 0.226562 0 " clip-rule="nonzero"/></clipPath><clipPath id="37c451f134"><path d="M 12.191406 -46.484375 L 36.746094 -46.484375 C 43.355469 -46.484375 48.710938 -41.128906 48.710938 -34.519531 L 48.710938 -9.964844 C 48.710938 -3.355469 43.355469 2 36.746094 2 L 12.191406 2 C 5.582031 2 0.226562 -3.355469 0.226562 -9.964844 L 0.226562 -34.519531 C 0.226562 -41.128906 5.582031 -46.484375 12.191406 -46.484375 Z M 12.191406 -46.484375 " clip-rule="nonzero"/></clipPath><clipPath id="23ecee98a1"><rect x="0" width="49" y="0" height="3"/></clipPath><mask id="3242d640de"><g filter="url(#fe15177086)"><rect x="-65.1" width="781.2" fill="#000000" y="-25.125" height="301.500001" fill-opacity="0.53"/></g></mask><clipPath id="0fe95e3de1"><path d="M 0.710938 1 L 49.195312 1 L 49.195312 49.484375 L 0.710938 49.484375 Z M 0.710938 1 " clip-rule="nonzero"/></clipPath><clipPath id="8e4544ea9e"><path d="M 12.675781 1 L 37.230469 1 C 43.839844 1 49.195312 6.355469 49.195312 12.964844 L 49.195312 37.519531 C 49.195312 44.128906 43.839844 49.484375 37.230469 49.484375 L 12.675781 49.484375 C 6.066406 49.484375 0.710938 44.128906 0.710938 37.519531 L 0.710938 12.964844 C 0.710938 6.355469 6.066406 1 12.675781 1 Z M 12.675781 1 " clip-rule="nonzero"/></clipPath><clipPath id="bfc57aae02"><rect x="0" width="50" y="0" height="50"/></clipPath><mask id="6f67fa88fb"><g filter="url(#fe15177086)"><rect x="-65.1" width="781.2" fill="#000000" y="-25.125" height="301.500001" fill-opacity="0.53"/></g></mask><clipPath id="df7c66380d"><path d="M 1.195312 0.484375 L 49.679688 0.484375 L 49.679688 48.96875 L 1.195312 48.96875 Z M 1.195312 0.484375 " clip-rule="nonzero"/></clipPath><clipPath id="cf617b667b"><path d="M 13.160156 0.484375 L 37.714844 0.484375 C 44.324219 0.484375 49.679688 5.839844 49.679688 12.449219 L 49.679688 37.003906 C 49.679688 43.613281 44.324219 48.96875 37.714844 48.96875 L 13.160156 48.96875 C 6.550781 48.96875 1.195312 43.613281 1.195312 37.003906 L 1.195312 12.449219 C 1.195312 5.839844 6.550781 0.484375 13.160156 0.484375 Z M 13.160156 0.484375 " clip-rule="nonzero"/></clipPath><clipPath id="e29bb27c6a"><rect x="0" width="50" y="0" height="50"/></clipPath><mask id="85436af69c"><g filter="url(#fe15177086)"><rect x="-65.1" width="781.2" fill="#000000" y="-25.125" height="301.500001" fill-opacity="0.53"/></g></mask><clipPath id="380051aca5"><path d="M 0.679688 0.96875 L 49.164062 0.96875 L 49.164062 49.453125 L 0.679688 49.453125 Z M 0.679688 0.96875 " clip-rule="nonzero"/></clipPath><clipPath id="780c39bd70"><path d="M 12.644531 0.96875 L 37.199219 0.96875 C 43.808594 0.96875 49.164062 6.328125 49.164062 12.933594 L 49.164062 37.492188 C 49.164062 44.097656 43.808594 49.453125 37.199219 49.453125 L 12.644531 49.453125 C 6.035156 49.453125 0.679688 44.097656 0.679688 37.492188 L 0.679688 12.933594 C 0.679688 6.328125 6.035156 0.96875 12.644531 0.96875 Z M 12.644531 0.96875 " clip-rule="nonzero"/></clipPath><clipPath id="e1f4853c07"><rect x="0" width="50" y="0" height="50"/></clipPath><clipPath id="56fbee5cd0"><path d="M 634 147 L 650.03125 147 L 650.03125 196 L 634 196 Z M 634 147 " clip-rule="nonzero"/></clipPath><mask id="10dd279361"><g filter="url(#fe15177086)"><rect x="-65.1" width="781.2" fill="#000000" y="-25.125" height="301.500001" fill-opacity="0.53"/></g></mask><clipPath id="a7cc81b06b"><path d="M 0.164062 0.453125 L 16.03125 0.453125 L 16.03125 48.9375 L 0.164062 48.9375 Z M 0.164062 0.453125 " clip-rule="nonzero"/></clipPath><clipPath id="84c7ca5a02"><path d="M 12.128906 0.453125 L 36.683594 0.453125 C 43.292969 0.453125 48.648438 5.8125 48.648438 12.417969 L 48.648438 36.976562 C 48.648438 43.582031 43.292969 48.9375 36.683594 48.9375 L 12.128906 48.9375 C 5.519531 48.9375 0.164062 43.582031 0.164062 36.976562 L 0.164062 12.417969 C 0.164062 5.8125 5.519531 0.453125 12.128906 0.453125 Z M 12.128906 0.453125 " clip-rule="nonzero"/></clipPath><clipPath id="8dbc12a64c"><rect x="0" width="17" y="0" height="49"/></clipPath><mask id="0d3eaee21c"><g filter="url(#fe15177086)"><rect x="-65.1" width="781.2" fill="#000000" y="-25.125" height="301.500001" fill-opacity="0.53"/></g></mask><clipPath id="8e16027966"><path d="M 13.152344 0 L 61.753906 0 L 61.753906 36.910156 L 13.152344 36.910156 Z M 13.152344 0 " clip-rule="nonzero"/></clipPath><clipPath id="2768d22a47"><path d="M 25.113281 -11.691406 L 49.664062 -11.691406 C 56.269531 -11.691406 61.628906 -6.335938 61.628906 0.269531 L 61.628906 24.820312 C 61.628906 31.425781 56.269531 36.785156 49.664062 36.785156 L 25.113281 36.785156 C 18.507812 36.785156 13.152344 31.425781 13.152344 24.820312 L 13.152344 0.269531 C 13.152344 -6.335938 18.507812 -11.691406 25.113281 -11.691406 Z M 25.113281 -11.691406 " clip-rule="nonzero"/></clipPath><clipPath id="38e1b123dd"><rect x="0" width="75" y="0" height="50"/></clipPath><clipPath id="76f43ec98e"><path d="M 592 23 L 650.03125 23 L 650.03125 98 L 592 98 Z M 592 23 " clip-rule="nonzero"/></clipPath><mask id="3c29faffb7"><g filter="url(#fe15177086)"><rect x="-65.1" width="781.2" fill="#000000" y="-25.125" height="301.500001" fill-opacity="0.53"/></g></mask><clipPath id="c8786f8d5d"><path d="M 13.636719 13.792969 L 58.03125 13.792969 L 58.03125 62.398438 L 13.636719 62.398438 Z M 13.636719 13.792969 " clip-rule="nonzero"/></clipPath><clipPath id="5e46598eb8"><path d="M 25.597656 13.792969 L 50.148438 13.792969 C 56.757812 13.792969 62.113281 19.148438 62.113281 25.753906 L 62.113281 50.304688 C 62.113281 56.914062 56.757812 62.269531 50.148438 62.269531 L 25.597656 62.269531 C 18.992188 62.269531 13.636719 56.914062 13.636719 50.304688 L 13.636719 25.753906 C 13.636719 19.148438 18.992188 13.792969 25.597656 13.792969 Z M 25.597656 13.792969 " clip-rule="nonzero"/></clipPath><clipPath id="d7d5a25fa8"><rect x="0" width="59" y="0" height="75"/></clipPath><mask id="7da3646a9f"><g filter="url(#fe15177086)"><rect x="-65.1" width="781.2" fill="#000000" y="-25.125" height="301.500001" fill-opacity="0.53"/></g></mask><clipPath id="b36dde2579"><path d="M 0.382812 1.050781 L 48.867188 1.050781 L 48.867188 49.535156 L 0.382812 49.535156 Z M 0.382812 1.050781 " clip-rule="nonzero"/></clipPath><clipPath id="4590b62e5c"><path d="M 12.347656 1.050781 L 36.902344 1.050781 C 43.511719 1.050781 48.867188 6.40625 48.867188 13.015625 L 48.867188 37.570312 C 48.867188 44.179688 43.511719 49.535156 36.902344 49.535156 L 12.347656 49.535156 C 5.738281 49.535156 0.382812 44.179688 0.382812 37.570312 L 0.382812 13.015625 C 0.382812 6.40625 5.738281 1.050781 12.347656 1.050781 Z M 12.347656 1.050781 " clip-rule="nonzero"/></clipPath><clipPath id="db28ea4708"><rect x="0" width="49" y="0" height="50"/></clipPath><mask id="a9cedb94f7"><g filter="url(#fe15177086)"><rect x="-65.1" width="781.2" fill="#000000" y="-25.125" height="301.500001" fill-opacity="0.53"/></g></mask><clipPath id="8214c367d1"><path d="M 0.867188 0.535156 L 49.351562 0.535156 L 49.351562 49.019531 L 0.867188 49.019531 Z M 0.867188 0.535156 " clip-rule="nonzero"/></clipPath><clipPath id="9e4500e430"><path d="M 12.832031 0.535156 L 37.386719 0.535156 C 43.996094 0.535156 49.351562 5.890625 49.351562 12.5 L 49.351562 37.054688 C 49.351562 43.664062 43.996094 49.019531 37.386719 49.019531 L 12.832031 49.019531 C 6.222656 49.019531 0.867188 43.664062 0.867188 37.054688 L 0.867188 12.5 C 0.867188 5.890625 6.222656 0.535156 12.832031 0.535156 Z M 12.832031 0.535156 " clip-rule="nonzero"/></clipPath><clipPath id="0b01581f8d"><rect x="0" width="50" y="0" height="50"/></clipPath><mask id="1b480f3727"><g filter="url(#fe15177086)"><rect x="-65.1" width="781.2" fill="#000000" y="-25.125" height="301.500001" fill-opacity="0.53"/></g></mask><clipPath id="2279022712"><path d="M 0.351562 1.019531 L 48.835938 1.019531 L 48.835938 49.503906 L 0.351562 49.503906 Z M 0.351562 1.019531 " clip-rule="nonzero"/></clipPath><clipPath id="f3208ea177"><path d="M 12.316406 1.019531 L 36.871094 1.019531 C 43.480469 1.019531 48.835938 6.375 48.835938 12.984375 L 48.835938 37.539062 C 48.835938 44.148438 43.480469 49.503906 36.871094 49.503906 L 12.316406 49.503906 C 5.707031 49.503906 0.351562 44.148438 0.351562 37.539062 L 0.351562 12.984375 C 0.351562 6.375 5.707031 1.019531 12.316406 1.019531 Z M 12.316406 1.019531 " clip-rule="nonzero"/></clipPath><clipPath id="264ad346ab"><rect x="0" width="50" y="0" height="50"/></clipPath><mask id="afa85eca9c"><g filter="url(#fe15177086)"><rect x="-65.1" width="781.2" fill="#000000" y="-25.125" height="301.500001" fill-opacity="0.53"/></g></mask><clipPath id="8e97f8b1fe"><path d="M 0.835938 0.503906 L 49.320312 0.503906 L 49.320312 48.988281 L 0.835938 48.988281 Z M 0.835938 0.503906 " clip-rule="nonzero"/></clipPath><clipPath id="05f25bbf46"><path d="M 12.800781 0.503906 L 37.355469 0.503906 C 43.964844 0.503906 49.320312 5.859375 49.320312 12.46875 L 49.320312 37.023438 C 49.320312 43.632812 43.964844 48.988281 37.355469 48.988281 L 12.800781 48.988281 C 6.191406 48.988281 0.835938 43.632812 0.835938 37.023438 L 0.835938 12.46875 C 0.835938 5.859375 6.191406 0.503906 12.800781 0.503906 Z M 12.800781 0.503906 " clip-rule="nonzero"/></clipPath><clipPath id="8a70554544"><rect x="0" width="50" y="0" height="50"/></clipPath><clipPath id="26bb06f8b5"><path d="M 555 218 L 604 218 L 604 250.503906 L 555 250.503906 Z M 555 218 " clip-rule="nonzero"/></clipPath><mask id="48c9f44c84"><g filter="url(#fe15177086)"><rect x="-65.1" width="781.2" fill="#000000" y="-25.125" height="301.500001" fill-opacity="0.53"/></g></mask><clipPath id="856d1eaa73"><path d="M 0.320312 0.988281 L 48.804688 0.988281 L 48.804688 32.503906 L 0.320312 32.503906 Z M 0.320312 0.988281 " clip-rule="nonzero"/></clipPath><clipPath id="23a9b93379"><path d="M 12.285156 0.988281 L 36.839844 0.988281 C 43.449219 0.988281 48.804688 6.347656 48.804688 12.953125 L 48.804688 37.511719 C 48.804688 44.117188 43.449219 49.472656 36.839844 49.472656 L 12.285156 49.472656 C 5.675781 49.472656 0.320312 44.117188 0.320312 37.511719 L 0.320312 12.953125 C 0.320312 6.347656 5.675781 0.988281 12.285156 0.988281 Z M 12.285156 0.988281 " clip-rule="nonzero"/></clipPath><clipPath id="7486e02d3c"><rect x="0" width="49" y="0" height="33"/></clipPath><mask id="17427b52dd"><g filter="url(#fe15177086)"><rect x="-65.1" width="781.2" fill="#000000" y="-25.125" height="301.500001" fill-opacity="0.53"/></g></mask><clipPath id="19d8a4d860"><path d="M 13.699219 0 L 62.304688 0 L 62.304688 36.714844 L 13.699219 36.714844 Z M 13.699219 0 " clip-rule="nonzero"/></clipPath><clipPath id="4cbcd98826"><path d="M 25.664062 -11.890625 L 50.214844 -11.890625 C 56.820312 -11.890625 62.175781 -6.535156 62.175781 0.0703125 L 62.175781 24.625 C 62.175781 31.230469 56.820312 36.585938 50.214844 36.585938 L 25.664062 36.585938 C 19.054688 36.585938 13.699219 31.230469 13.699219 24.625 L 13.699219 0.0703125 C 13.699219 -6.535156 19.054688 -11.890625 25.664062 -11.890625 Z M 25.664062 -11.890625 " clip-rule="nonzero"/></clipPath><clipPath id="89e7e45da2"><rect x="0" width="75" y="0" height="50"/></clipPath><mask id="b295c4ed28"><g filter="url(#fe15177086)"><rect x="-65.1" width="781.2" fill="#000000" y="-25.125" height="301.500001" fill-opacity="0.53"/></g></mask><clipPath id="f4c21c786b"><path d="M 13.183594 13.59375 L 61.789062 13.59375 L 61.789062 62.199219 L 13.183594 62.199219 Z M 13.183594 13.59375 " clip-rule="nonzero"/></clipPath><clipPath id="a9c52b5e59"><path d="M 25.148438 13.59375 L 49.699219 13.59375 C 56.304688 13.59375 61.660156 18.949219 61.660156 25.554688 L 61.660156 50.109375 C 61.660156 56.714844 56.304688 62.070312 49.699219 62.070312 L 25.148438 62.070312 C 18.539062 62.070312 13.183594 56.714844 13.183594 50.109375 L 13.183594 25.554688 C 13.183594 18.949219 18.539062 13.59375 25.148438 13.59375 Z M 25.148438 13.59375 " clip-rule="nonzero"/></clipPath><clipPath id="f6b6e72f70"><rect x="0" width="75" y="0" height="75"/></clipPath><mask id="e152627587"><g filter="url(#fe15177086)"><rect x="-65.1" width="781.2" fill="#000000" y="-25.125" height="301.500001" fill-opacity="0.53"/></g></mask><clipPath id="daf4aa00c2"><path d="M 13.667969 13.078125 L 62.273438 13.078125 L 62.273438 61.683594 L 13.667969 61.683594 Z M 13.667969 13.078125 " clip-rule="nonzero"/></clipPath><clipPath id="6148f01a05"><path d="M 25.632812 13.078125 L 50.183594 13.078125 C 56.789062 13.078125 62.144531 18.433594 62.144531 25.039062 L 62.144531 49.59375 C 62.144531 56.199219 56.789062 61.554688 50.183594 61.554688 L 25.632812 61.554688 C 19.023438 61.554688 13.667969 56.199219 13.667969 49.59375 L 13.667969 25.039062 C 13.667969 18.433594 19.023438 13.078125 25.632812 13.078125 Z M 25.632812 13.078125 " clip-rule="nonzero"/></clipPath><clipPath id="f3474eead9"><rect x="0" width="75" y="0" height="75"/></clipPath><mask id="bea715e3e1"><g filter="url(#fe15177086)"><rect x="-65.1" width="781.2" fill="#000000" y="-25.125" height="301.500001" fill-opacity="0.53"/></g></mask><clipPath id="035d5ccefc"><path d="M 13.15625 13.5625 L 61.757812 13.5625 L 61.757812 62.167969 L 13.15625 62.167969 Z M 13.15625 13.5625 " clip-rule="nonzero"/></clipPath><clipPath id="04bf497e0f"><path d="M 25.117188 13.5625 L 49.667969 13.5625 C 56.273438 13.5625 61.628906 18.917969 61.628906 25.527344 L 61.628906 50.078125 C 61.628906 56.683594 56.273438 62.039062 49.667969 62.039062 L 25.117188 62.039062 C 18.511719 62.039062 13.15625 56.683594 13.15625 50.078125 L 13.15625 25.527344 C 13.15625 18.917969 18.511719 13.5625 25.117188 13.5625 Z M 25.117188 13.5625 " clip-rule="nonzero"/></clipPath><clipPath id="a2c618b703"><rect x="0" width="75" y="0" height="75"/></clipPath><mask id="1c02951d76"><g filter="url(#fe15177086)"><rect x="-65.1" width="781.2" fill="#000000" y="-25.125" height="301.500001" fill-opacity="0.53"/></g></mask><clipPath id="835179eb51"><path d="M 13.640625 14.046875 L 62.246094 14.046875 L 62.246094 62.652344 L 13.640625 62.652344 Z M 13.640625 14.046875 " clip-rule="nonzero"/></clipPath><clipPath id="7bea41e891"><path d="M 25.601562 14.046875 L 50.152344 14.046875 C 56.761719 14.046875 62.117188 19.402344 62.117188 26.011719 L 62.117188 50.5625 C 62.117188 57.167969 56.761719 62.523438 50.152344 62.523438 L 25.601562 62.523438 C 18.996094 62.523438 13.640625 57.167969 13.640625 50.5625 L 13.640625 26.011719 C 13.640625 19.402344 18.996094 14.046875 25.601562 14.046875 Z M 25.601562 14.046875 " clip-rule="nonzero"/></clipPath><clipPath id="543fb8a98e"><rect x="0" width="75" y="0" height="76"/></clipPath></defs><g mask="url(#8c25bd7251)"><g transform="matrix(1, 0, 0, 1, 290, 95)"><g clip-path="url(#742b7ec44f)"><g clip-path="url(#125a989af7)"><g clip-path="url(#3060cc83ae)"><path fill="#ffffff" d="M 1.1875 0.390625 L 49.671875 0.390625 L 49.671875 48.875 L 1.1875 48.875 Z M 1.1875 0.390625 " fill-opacity="1" fill-rule="nonzero"/></g></g></g></g></g><g mask="url(#e8b1141d86)"><g transform="matrix(1, 0, 0, 1, 339, 143)"><g clip-path="url(#81cb1b46e2)"><g clip-path="url(#402b65d705)"><g clip-path="url(#bf5dd87e5f)"><path fill="#ffffff" d="M 0.671875 0.875 L 49.15625 0.875 L 49.15625 49.359375 L 0.671875 49.359375 Z M 0.671875 0.875 " fill-opacity="1" fill-rule="nonzero"/></g></g></g></g></g><g mask="url(#d2fd174407)"><g transform="matrix(1, 0, 0, 1, 388, 192)"><g clip-path="url(#affb2a4afc)"><g clip-path="url(#5c19bdc1d5)"><g clip-path="url(#39331da7a7)"><path fill="#ffffff" d="M 0.15625 0.359375 L 48.640625 0.359375 L 48.640625 48.84375 L 0.15625 48.84375 Z M 0.15625 0.359375 " fill-opacity="1" fill-rule="nonzero"/></g></g></g></g></g><g clip-path="url(#5eaddbcdfa)"><g mask="url(#abfaa6e623)"><g transform="matrix(1, 0, 0, 1, 436, 240)"><g clip-path="url(#09826ccb51)"><g clip-path="url(#3da782ce40)"><g clip-path="url(#0b43b9f58b)"><path fill="#ffffff" d="M 0.640625 0.84375 L 49.125 0.84375 L 49.125 49.332031 L 0.640625 49.332031 Z M 0.640625 0.84375 " fill-opacity="1" fill-rule="nonzero"/></g></g></g></g></g></g><g mask="url(#5fb11000bf)"><g transform="matrix(1, 0, 0, 1, 409, -0.000000000000022503)"><g clip-path="url(#e67e9a0ee9)"><g clip-path="url(#9c1852ec2b)"><g clip-path="url(#3a623428b4)"><path stroke-linecap="butt" transform="matrix(0.747768, 0, 0, 0.747768, 13.469496, 12.900547)" fill="none" stroke-linejoin="miter" d="M 15.99975 0.00240317 L 48.831843 0.00240317 C 57.665426 0.00240317 64.827367 7.164344 64.827367 15.997927 L 64.827367 48.83002 C 64.827367 57.663603 57.665426 64.825544 48.831843 64.825544 L 15.99975 64.825544 C 7.160943 64.825544 -0.000998049 57.663603 -0.000998049 48.83002 L -0.000998049 15.997927 C -0.000998049 7.164344 7.160943 0.00240317 15.99975 0.00240317 Z M 15.99975 0.00240317 " stroke="#ffffff" stroke-width="8" stroke-opacity="1" stroke-miterlimit="4"/></g></g></g></g></g><g mask="url(#a7ba4d90db)"><g transform="matrix(1, 0, 0, 1, 458, 48)"><g clip-path="url(#7b224d369c)"><g clip-path="url(#23c5984102)"><g clip-path="url(#526c4e094e)"><path stroke-linecap="butt" transform="matrix(0.747768, 0, 0, 0.747768, 12.954295, 13.385315)" fill="none" stroke-linejoin="miter" d="M 15.999184 0.00187686 L 48.831276 0.00187686 C 57.664859 0.00187686 64.8268 7.163818 64.8268 15.997401 L 64.8268 48.829494 C 64.8268 57.668301 57.664859 64.830242 48.831276 64.830242 L 15.999184 64.830242 C 7.160377 64.830242 -0.00156436 57.668301 -0.00156436 48.829494 L -0.00156436 15.997401 C -0.00156436 7.163818 7.160377 0.00187686 15.999184 0.00187686 Z M 15.999184 0.00187686 " stroke="#ffffff" stroke-width="8" stroke-opacity="1" stroke-miterlimit="4"/></g></g></g></g></g><g mask="url(#0ae1e7ef93)"><g transform="matrix(1, 0, 0, 1, 506, 96)"><g clip-path="url(#d178506c96)"><g clip-path="url(#c66361ee40)"><g clip-path="url(#8624e00f51)"><path stroke-linecap="butt" transform="matrix(0.747768, 0, 0, 0.747768, 13.439006, 13.870077)" fill="none" stroke-linejoin="miter" d="M 15.998734 0.0013592 L 48.830827 0.0013592 C 57.66441 0.0013592 64.826351 7.1633 64.826351 15.996883 L 64.826351 48.828976 C 64.826351 57.667783 57.66441 64.829724 48.830827 64.829724 L 15.998734 64.829724 C 7.159927 64.829724 -0.00201386 57.667783 -0.00201386 48.828976 L -0.00201386 15.996883 C -0.00201386 7.1633 7.159927 0.0013592 15.998734 0.0013592 Z M 15.998734 0.0013592 " stroke="#ffffff" stroke-width="8" stroke-opacity="1" stroke-miterlimit="4"/></g></g></g></g></g><g mask="url(#4f4c93bc6d)"><g transform="matrix(1, 0, 0, 1, 554, 145)"><g clip-path="url(#e6ef718a3d)"><g clip-path="url(#2cc97fe55e)"><g clip-path="url(#790ca38158)"><path stroke-linecap="butt" transform="matrix(0.747768, 0, 0, 0.747768, 13.923805, 13.354847)" fill="none" stroke-linejoin="miter" d="M 15.998167 0.00083161 L 48.83026 0.00083161 C 57.663843 0.00083161 64.825784 7.162773 64.825784 15.996356 L 64.825784 48.828449 C 64.825784 57.667255 57.663843 64.829196 48.83026 64.829196 L 15.998167 64.829196 C 7.164584 64.829196 -0.00258049 57.667255 -0.00258049 48.828449 L -0.00258049 15.996356 C -0.00258049 7.162773 7.164584 0.00083161 15.998167 0.00083161 Z M 15.998167 0.00083161 " stroke="#ffffff" stroke-width="8" stroke-opacity="1" stroke-miterlimit="4"/></g></g></g></g></g><g clip-path="url(#d18a69447d)"><g mask="url(#e05ea5bf56)"><g transform="matrix(1, 0, 0, 1, 603, 193)"><g clip-path="url(#62a916e529)"><g clip-path="url(#1a477eeb10)"><g clip-path="url(#320335a99f)"><path stroke-linecap="butt" transform="matrix(0.747768, 0, 0, 0.747768, 13.408603, 13.839631)" fill="none" stroke-linejoin="miter" d="M 15.997601 0.000284504 L 48.829694 0.000284504 C 57.668501 0.000284504 64.830442 7.162226 64.830442 15.995809 L 64.830442 48.833125 C 64.830442 57.666708 57.668501 64.828649 48.829694 64.828649 L 15.997601 64.828649 C 7.164018 64.828649 0.00207677 57.666708 0.00207677 48.833125 L 0.00207677 15.995809 C 0.00207677 7.162226 7.164018 0.000284504 15.997601 0.000284504 Z M 15.997601 0.000284504 " stroke="#ffffff" stroke-width="8" stroke-opacity="1" stroke-miterlimit="4"/></g></g></g></g></g></g><g mask="url(#10d6b56bd9)"><g transform="matrix(1, 0, 0, 1, 428, 19)"><g clip-path="url(#de924e94aa)"><g clip-path="url(#0fb409861f)"><g clip-path="url(#5d7f940274)"><path fill="#ffffff" d="M 0.957031 0.386719 L 36.46875 0.386719 L 36.46875 35.898438 L 0.957031 35.898438 Z M 0.957031 0.386719 " fill-opacity="1" fill-rule="nonzero"/></g></g></g></g></g><g mask="url(#3492beaafc)"><g transform="matrix(1, 0, 0, 1, 477, 67)"><g clip-path="url(#22d899d565)"><g clip-path="url(#3887b64f29)"><g clip-path="url(#f6ba7a7bed)"><path fill="#ffffff" d="M 0.441406 0.871094 L 35.953125 0.871094 L 35.953125 36.382812 L 0.441406 36.382812 Z M 0.441406 0.871094 " fill-opacity="1" fill-rule="nonzero"/></g></g></g></g></g><g mask="url(#48f6a33743)"><g transform="matrix(1, 0, 0, 1, 525, 116)"><g clip-path="url(#9a23307c98)"><g clip-path="url(#9e2c0bc791)"><g clip-path="url(#76bbe44442)"><path fill="#ffffff" d="M 0.925781 0.355469 L 36.4375 0.355469 L 36.4375 35.867188 L 0.925781 35.867188 Z M 0.925781 0.355469 " fill-opacity="1" fill-rule="nonzero"/></g></g></g></g></g><g mask="url(#666003d766)"><g transform="matrix(1, 0, 0, 1, 574, 164)"><g clip-path="url(#d9c3282a87)"><g clip-path="url(#b8e3db0e40)"><g clip-path="url(#eb8e016fd7)"><path fill="#ffffff" d="M 0.410156 0.839844 L 35.921875 0.839844 L 35.921875 36.351562 L 0.410156 36.351562 Z M 0.410156 0.839844 " fill-opacity="1" fill-rule="nonzero"/></g></g></g></g></g><g clip-path="url(#b33b3fd424)"><g mask="url(#fc62944561)"><g transform="matrix(1, 0, 0, 1, 622, 213)"><g clip-path="url(#097ee2963e)"><g clip-path="url(#f09bbac9c6)"><g clip-path="url(#7d84ee40bc)"><path fill="#ffffff" d="M 0.894531 0.324219 L 36.40625 0.324219 L 36.40625 35.839844 L 0.894531 35.839844 Z M 0.894531 0.324219 " fill-opacity="1" fill-rule="nonzero"/></g></g></g></g></g></g><g mask="url(#652088530b)"><g transform="matrix(1, 0, 0, 1, 440, -0.000000000000022503)"><g clip-path="url(#23ecee98a1)"><g clip-path="url(#4f1359f495)"><g clip-path="url(#37c451f134)"><path fill="#ffffff" d="M 0.226562 -46.484375 L 48.710938 -46.484375 L 48.710938 2 L 0.226562 2 Z M 0.226562 -46.484375 " fill-opacity="1" fill-rule="nonzero"/></g></g></g></g></g><g mask="url(#3242d640de)"><g transform="matrix(1, 0, 0, 1, 488, 1)"><g clip-path="url(#bfc57aae02)"><g clip-path="url(#0fe95e3de1)"><g clip-path="url(#8e4544ea9e)"><path fill="#ffffff" d="M 0.710938 1 L 49.195312 1 L 49.195312 49.484375 L 0.710938 49.484375 Z M 0.710938 1 " fill-opacity="1" fill-rule="nonzero"/></g></g></g></g></g><g mask="url(#6f67fa88fb)"><g transform="matrix(1, 0, 0, 1, 536, 50)"><g clip-path="url(#e29bb27c6a)"><g clip-path="url(#df7c66380d)"><g clip-path="url(#cf617b667b)"><path fill="#ffffff" d="M 1.195312 0.484375 L 49.679688 0.484375 L 49.679688 48.96875 L 1.195312 48.96875 Z M 1.195312 0.484375 " fill-opacity="1" fill-rule="nonzero"/></g></g></g></g></g><g mask="url(#85436af69c)"><g transform="matrix(1, 0, 0, 1, 585, 98)"><g clip-path="url(#e1f4853c07)"><g clip-path="url(#380051aca5)"><g clip-path="url(#780c39bd70)"><path fill="#ffffff" d="M 0.679688 0.96875 L 49.164062 0.96875 L 49.164062 49.453125 L 0.679688 49.453125 Z M 0.679688 0.96875 " fill-opacity="1" fill-rule="nonzero"/></g></g></g></g></g><g clip-path="url(#56fbee5cd0)"><g mask="url(#10dd279361)"><g transform="matrix(1, 0, 0, 1, 634, 147)"><g clip-path="url(#8dbc12a64c)"><g clip-path="url(#a7cc81b06b)"><g clip-path="url(#84c7ca5a02)"><path fill="#ffffff" d="M 0.164062 0.453125 L 48.648438 0.453125 L 48.648438 48.9375 L 0.164062 48.9375 Z M 0.164062 0.453125 " fill-opacity="1" fill-rule="nonzero"/></g></g></g></g></g></g><g mask="url(#0d3eaee21c)"><g transform="matrix(1, 0, 0, 1, 544, -0.000000000000022503)"><g clip-path="url(#38e1b123dd)"><g clip-path="url(#8e16027966)"><g clip-path="url(#2768d22a47)"><path stroke-linecap="butt" transform="matrix(0.747768, 0, 0, 0.747768, 13.15069, -11.693006)" fill="none" stroke-linejoin="miter" d="M 15.997736 0.00213929 L 48.829828 0.00213929 C 57.663411 0.00213929 64.830576 7.16408 64.830576 15.997663 L 64.830576 48.829756 C 64.830576 57.663339 57.663411 64.830504 48.829828 64.830504 L 15.997736 64.830504 C 7.164153 64.830504 0.00221152 57.663339 0.00221152 48.829756 L 0.00221152 15.997663 C 0.00221152 7.16408 7.164153 0.00213929 15.997736 0.00213929 Z M 15.997736 0.00213929 " stroke="#ffffff" stroke-width="8" stroke-opacity="1" stroke-miterlimit="4"/></g></g></g></g></g><g clip-path="url(#76f43ec98e)"><g mask="url(#3c29faffb7)"><g transform="matrix(1, 0, 0, 1, 592, 23)"><g clip-path="url(#d7d5a25fa8)"><g clip-path="url(#c8786f8d5d)"><g clip-path="url(#5e46598eb8)"><path stroke-linecap="butt" transform="matrix(0.747768, 0, 0, 0.747768, 13.63543, 13.791761)" fill="none" stroke-linejoin="miter" d="M 15.997247 0.00161522 L 48.82934 0.00161522 C 57.668147 0.00161522 64.830088 7.163556 64.830088 15.997139 L 64.830088 48.829232 C 64.830088 57.668039 57.668147 64.82998 48.82934 64.82998 L 15.997247 64.82998 C 7.163664 64.82998 0.00172298 57.668039 0.00172298 48.829232 L 0.00172298 15.997139 C 0.00172298 7.163556 7.163664 0.00161522 15.997247 0.00161522 Z M 15.997247 0.00161522 " stroke="#ffffff" stroke-width="8" stroke-opacity="1" stroke-miterlimit="4"/></g></g></g></g></g></g><g mask="url(#7da3646a9f)"><g transform="matrix(1, 0, 0, 1, 361, 24)"><g clip-path="url(#db28ea4708)"><g clip-path="url(#b36dde2579)"><g clip-path="url(#4590b62e5c)"><path fill="#ffffff" d="M 0.382812 1.050781 L 48.867188 1.050781 L 48.867188 49.535156 L 0.382812 49.535156 Z M 0.382812 1.050781 " fill-opacity="1" fill-rule="nonzero"/></g></g></g></g></g><g mask="url(#a9cedb94f7)"><g transform="matrix(1, 0, 0, 1, 409, 73)"><g clip-path="url(#0b01581f8d)"><g clip-path="url(#8214c367d1)"><g clip-path="url(#9e4500e430)"><path fill="#ffffff" d="M 0.867188 0.535156 L 49.351562 0.535156 L 49.351562 49.019531 L 0.867188 49.019531 Z M 0.867188 0.535156 " fill-opacity="1" fill-rule="nonzero"/></g></g></g></g></g><g mask="url(#1b480f3727)"><g transform="matrix(1, 0, 0, 1, 458, 121)"><g clip-path="url(#264ad346ab)"><g clip-path="url(#2279022712)"><g clip-path="url(#f3208ea177)"><path fill="#ffffff" d="M 0.351562 1.019531 L 48.835938 1.019531 L 48.835938 49.503906 L 0.351562 49.503906 Z M 0.351562 1.019531 " fill-opacity="1" fill-rule="nonzero"/></g></g></g></g></g><g mask="url(#afa85eca9c)"><g transform="matrix(1, 0, 0, 1, 506, 170)"><g clip-path="url(#8a70554544)"><g clip-path="url(#8e97f8b1fe)"><g clip-path="url(#05f25bbf46)"><path fill="#ffffff" d="M 0.835938 0.503906 L 49.320312 0.503906 L 49.320312 48.988281 L 0.835938 48.988281 Z M 0.835938 0.503906 " fill-opacity="1" fill-rule="nonzero"/></g></g></g></g></g><g clip-path="url(#26bb06f8b5)"><g mask="url(#48c9f44c84)"><g transform="matrix(1, 0, 0, 1, 555, 218)"><g clip-path="url(#7486e02d3c)"><g clip-path="url(#856d1eaa73)"><g clip-path="url(#23a9b93379)"><path fill="#ffffff" d="M 0.320312 0.988281 L 48.804688 0.988281 L 48.804688 49.472656 L 0.320312 49.472656 Z M 0.320312 0.988281 " fill-opacity="1" fill-rule="nonzero"/></g></g></g></g></g></g><g mask="url(#17427b52dd)"><g transform="matrix(1, 0, 0, 1, 242, -0.000000000000022503)"><g clip-path="url(#89e7e45da2)"><g clip-path="url(#19d8a4d860)"><g clip-path="url(#4cbcd98826)"><path stroke-linecap="butt" transform="matrix(0.747768, 0, 0, 0.747768, 13.700183, -11.890869)" fill="none" stroke-linejoin="miter" d="M 15.999459 0.00032585 L 48.831552 0.00032585 C 57.665135 0.00032585 64.827076 7.162267 64.827076 15.99585 L 64.827076 48.833167 C 64.827076 57.66675 57.665135 64.828691 48.831552 64.828691 L 15.999459 64.828691 C 7.160652 64.828691 -0.00128894 57.66675 -0.00128894 48.833167 L -0.00128894 15.99585 C -0.00128894 7.162267 7.160652 0.00032585 15.999459 0.00032585 Z M 15.999459 0.00032585 " stroke="#ffffff" stroke-width="8" stroke-opacity="1" stroke-miterlimit="4"/></g></g></g></g></g><g mask="url(#b295c4ed28)"><g transform="matrix(1, 0, 0, 1, 291, 23)"><g clip-path="url(#f6b6e72f70)"><g clip-path="url(#f4c21c786b)"><g clip-path="url(#a9c52b5e59)"><path stroke-linecap="butt" transform="matrix(0.747768, 0, 0, 0.747768, 13.184952, 13.593894)" fill="none" stroke-linejoin="miter" d="M 15.998931 -0.000193096 L 48.831024 -0.000193096 C 57.664607 -0.000193096 64.826548 7.161748 64.826548 15.995331 L 64.826548 48.832648 C 64.826548 57.666231 57.664607 64.828172 48.831024 64.828172 L 15.998931 64.828172 C 7.160124 64.828172 -0.00181653 57.666231 -0.00181653 48.832648 L -0.00181653 15.995331 C -0.00181653 7.161748 7.160124 -0.000193096 15.998931 -0.000193096 Z M 15.998931 -0.000193096 " stroke="#ffffff" stroke-width="8" stroke-opacity="1" stroke-miterlimit="4"/></g></g></g></g></g><g mask="url(#e152627587)"><g transform="matrix(1, 0, 0, 1, 339, 72)"><g clip-path="url(#f3474eead9)"><g clip-path="url(#daf4aa00c2)"><g clip-path="url(#6148f01a05)"><path stroke-linecap="butt" transform="matrix(0.747768, 0, 0, 0.747768, 13.669722, 13.07866)" fill="none" stroke-linejoin="miter" d="M 15.998404 -0.000715883 L 48.830497 -0.000715883 C 57.66408 -0.000715883 64.826021 7.161225 64.826021 15.994808 L 64.826021 48.832125 C 64.826021 57.665708 57.66408 64.827649 48.830497 64.827649 L 15.998404 64.827649 C 7.159597 64.827649 -0.00234412 57.665708 -0.00234412 48.832125 L -0.00234412 15.994808 C -0.00234412 7.161225 7.159597 -0.000715883 15.998404 -0.000715883 Z M 15.998404 -0.000715883 " stroke="#ffffff" stroke-width="8" stroke-opacity="1" stroke-miterlimit="4"/></g></g></g></g></g><g mask="url(#bea715e3e1)"><g transform="matrix(1, 0, 0, 1, 388, 120)"><g clip-path="url(#a2c618b703)"><g clip-path="url(#035d5ccefc)"><g clip-path="url(#04bf497e0f)"><path stroke-linecap="butt" transform="matrix(0.747768, 0, 0, 0.747768, 13.154462, 13.563437)" fill="none" stroke-linejoin="miter" d="M 15.997915 -0.00125307 L 48.830008 -0.00125307 C 57.663591 -0.00125307 64.825532 7.160688 64.825532 15.999495 L 64.825532 48.831588 C 64.825532 57.665171 57.663591 64.827112 48.830008 64.827112 L 15.997915 64.827112 C 7.164332 64.827112 0.00239122 57.665171 0.00239122 48.831588 L 0.00239122 15.999495 C 0.00239122 7.160688 7.164332 -0.00125307 15.997915 -0.00125307 Z M 15.997915 -0.00125307 " stroke="#ffffff" stroke-width="8" stroke-opacity="1" stroke-miterlimit="4"/></g></g></g></g></g><g mask="url(#1c02951d76)"><g transform="matrix(1, 0, 0, 1, 436, 168)"><g clip-path="url(#543fb8a98e)"><g clip-path="url(#835179eb51)"><g clip-path="url(#7bea41e891)"><path stroke-linecap="butt" transform="matrix(0.747768, 0, 0, 0.747768, 13.639261, 14.048192)" fill="none" stroke-linejoin="miter" d="M 15.997349 -0.00176114 L 48.829441 -0.00176114 C 57.668248 -0.00176114 64.830189 7.16018 64.830189 15.998987 L 64.830189 48.83108 C 64.830189 57.664663 57.668248 64.826604 48.829441 64.826604 L 15.997349 64.826604 C 7.163766 64.826604 0.00182459 57.664663 0.00182459 48.83108 L 0.00182459 15.998987 C 0.00182459 7.16018 7.163766 -0.00176114 15.997349 -0.00176114 Z M 15.997349 -0.00176114 " stroke="#ffffff" stroke-width="8" stroke-opacity="1" stroke-miterlimit="4"/></g></g></g></g></g></svg>