<svg width="275" height="286" viewBox="0 0 275 286" fill="none" xmlns="http://www.w3.org/2000/svg">
<g filter="url(#filter0_f_1_143)">
<path d="M169.624 89.3937L90.3863 141.741C86.4486 144.341 88.2967 150.457 93.0195 150.457H110.8C114.363 150.457 116.658 154.202 115.051 157.368L97.9115 190.958C95.689 195.316 100.714 199.771 104.796 197.074L184.034 144.727C187.971 142.126 186.123 136.01 181.401 136.01H163.62C160.057 136.01 157.762 132.266 159.369 129.1L176.509 95.5097C178.731 91.1515 173.706 86.6969 169.624 89.3937Z" fill="url(#paint0_linear_1_143)"/>
</g>
<path d="M169.624 89.3937L90.3863 141.741C86.4486 144.341 88.2967 150.457 93.0195 150.457H110.8C114.363 150.457 116.658 154.202 115.051 157.368L97.9115 190.958C95.6889 195.316 100.714 199.771 104.796 197.074L184.034 144.727C187.971 142.126 186.123 136.01 181.401 136.01H163.62C160.057 136.01 157.762 132.266 159.369 129.1L176.509 95.5097C178.731 91.1515 173.706 86.6969 169.624 89.3937Z" fill="url(#paint1_linear_1_143)"/>
<g filter="url(#filter1_b_1_143)">
<path d="M201.2 65.3475H198.423C195.102 34.2326 168.698 10 136.606 10C109.212 10 85.9822 27.6631 77.6877 52.1724C55.0257 53.3034 37 71.9652 37 94.8261C37 115.702 52.0315 133.064 71.8803 136.794C74.2588 137.287 76.7218 137.54 79.2572 137.54H201.2C221.205 137.54 237.42 121.381 237.42 101.444C237.42 81.5066 221.205 65.3475 201.2 65.3475Z" fill="url(#paint2_linear_1_143)"/>
<path d="M197.428 65.4537L197.524 66.3475H198.423H201.2C220.656 66.3475 236.42 82.0621 236.42 101.444C236.42 120.825 220.656 136.54 201.2 136.54H79.2572C76.7885 136.54 74.3937 136.294 72.0834 135.815L72.0742 135.813L72.065 135.811C52.6772 132.168 38 115.209 38 94.8261C38 72.5041 55.6018 54.2759 77.7375 53.1712L78.4169 53.1373L78.6349 52.493C86.7958 28.3784 109.652 11 136.606 11C168.183 11 194.162 34.844 197.428 65.4537Z" stroke="url(#paint3_linear_1_143)" stroke-width="2"/>
</g>
<defs>
<filter id="filter0_f_1_143" x="0.243759" y="0.57373" width="273.933" height="285.32" filterUnits="userSpaceOnUse" color-interpolation-filters="sRGB">
<feFlood flood-opacity="0" result="BackgroundImageFix"/>
<feBlend mode="normal" in="SourceGraphic" in2="BackgroundImageFix" result="shape"/>
<feGaussianBlur stdDeviation="44" result="effect1_foregroundBlur_1_143"/>
</filter>
<filter id="filter1_b_1_143" x="19" y="-8" width="236.42" height="163.54" filterUnits="userSpaceOnUse" color-interpolation-filters="sRGB">
<feFlood flood-opacity="0" result="BackgroundImageFix"/>
<feGaussianBlur in="BackgroundImageFix" stdDeviation="9"/>
<feComposite in2="SourceAlpha" operator="in" result="effect1_backgroundBlur_1_143"/>
<feBlend mode="normal" in="SourceGraphic" in2="effect1_backgroundBlur_1_143" result="shape"/>
</filter>
<linearGradient id="paint0_linear_1_143" x1="108.565" y1="195.256" x2="171.6" y2="80.0335" gradientUnits="userSpaceOnUse">
<stop stop-color="#FFDC4A"/>
<stop offset="1" stop-color="#F37322"/>
</linearGradient>
<linearGradient id="paint1_linear_1_143" x1="108.565" y1="195.256" x2="171.6" y2="80.0335" gradientUnits="userSpaceOnUse">
<stop stop-color="#FFDC4A"/>
<stop offset="1" stop-color="#F37322"/>
</linearGradient>
<linearGradient id="paint2_linear_1_143" x1="48.3149" y1="130.34" x2="150.806" y2="-30.7174" gradientUnits="userSpaceOnUse">
<stop stop-color="white" stop-opacity="0.2"/>
<stop offset="1" stop-color="white" stop-opacity="0.49"/>
</linearGradient>
<linearGradient id="paint3_linear_1_143" x1="51.1474" y1="20.0308" x2="145.066" y2="177.835" gradientUnits="userSpaceOnUse">
<stop stop-color="white"/>
<stop offset="1" stop-color="white" stop-opacity="0"/>
</linearGradient>
</defs>
</svg>
