<svg xmlns="http://www.w3.org/2000/svg" xmlns:xlink="http://www.w3.org/1999/xlink" width="500" zoomAndPan="magnify"
     viewBox="0 0 375 374.999991" height="500" preserveAspectRatio="xMidYMid meet" version="1.0">
    <defs>
        <clipPath id="2042fe43a8">
            <path d="M 11.304688 12 L 363 12 L 363 363.6875 L 11.304688 363.6875 Z M 11.304688 12 "
                  clip-rule="nonzero"/>
        </clipPath>
        <clipPath id="b9f9631adc">
            <path d="M 11.304688 12 L 363 12 L 363 363.6875 L 11.304688 363.6875 Z M 11.304688 12 "
                  clip-rule="nonzero"/>
        </clipPath>
    </defs>
    <g clip-path="url(#2042fe43a8)">
        <path fill="#333"
              d="M 186.589844 12.207031 C 189.476562 12.207031 192.355469 12.277344 195.238281 12.417969 C 198.117188 12.5625 200.992188 12.773438 203.859375 13.054688 C 206.730469 13.339844 209.59375 13.691406 212.445312 14.113281 C 215.296875 14.539062 218.136719 15.03125 220.964844 15.59375 C 223.792969 16.15625 226.605469 16.785156 229.402344 17.488281 C 232.199219 18.1875 234.976562 18.957031 237.738281 19.792969 C 240.496094 20.632812 243.234375 21.535156 245.949219 22.507812 C 248.664062 23.476562 251.351562 24.515625 254.015625 25.617188 C 256.679688 26.722656 259.316406 27.890625 261.921875 29.125 C 264.53125 30.355469 267.105469 31.652344 269.648438 33.011719 C 272.191406 34.371094 274.699219 35.792969 277.171875 37.273438 C 279.644531 38.757812 282.082031 40.296875 284.476562 41.902344 C 286.875 43.503906 289.234375 45.164062 291.546875 46.878906 C 293.863281 48.597656 296.136719 50.371094 298.367188 52.199219 C 300.59375 54.03125 302.777344 55.914062 304.914062 57.847656 C 307.050781 59.785156 309.136719 61.773438 311.175781 63.8125 C 313.214844 65.851562 315.203125 67.9375 317.140625 70.074219 C 319.078125 72.210938 320.960938 74.394531 322.789062 76.625 C 324.617188 78.851562 326.390625 81.125 328.109375 83.441406 C 329.828125 85.757812 331.488281 88.113281 333.089844 90.511719 C 334.691406 92.910156 336.234375 95.34375 337.714844 97.816406 C 339.199219 100.292969 340.617188 102.800781 341.976562 105.34375 C 343.335938 107.886719 344.632812 110.460938 345.867188 113.066406 C 347.097656 115.671875 348.265625 118.308594 349.371094 120.972656 C 350.472656 123.636719 351.511719 126.328125 352.484375 129.042969 C 353.453125 131.757812 354.359375 134.492188 355.195312 137.253906 C 356.03125 140.011719 356.800781 142.789062 357.503906 145.585938 C 358.203125 148.382812 358.835938 151.199219 359.398438 154.023438 C 359.960938 156.851562 360.453125 159.695312 360.875 162.546875 C 361.300781 165.398438 361.652344 168.257812 361.933594 171.128906 C 362.21875 174 362.429688 176.875 362.570312 179.753906 C 362.710938 182.632812 362.78125 185.515625 362.78125 188.398438 C 362.78125 191.28125 362.710938 194.164062 362.570312 197.042969 C 362.429688 199.925781 362.21875 202.796875 361.933594 205.667969 C 361.652344 208.539062 361.300781 211.398438 360.875 214.25 C 360.453125 217.105469 359.960938 219.945312 359.398438 222.773438 C 358.835938 225.601562 358.203125 228.414062 357.503906 231.210938 C 356.800781 234.007812 356.03125 236.785156 355.195312 239.542969 C 354.359375 242.304688 353.453125 245.039062 352.484375 247.753906 C 351.511719 250.46875 350.472656 253.160156 349.371094 255.824219 C 348.265625 258.488281 347.097656 261.125 345.867188 263.730469 C 344.632812 266.335938 343.335938 268.910156 341.976562 271.453125 C 340.617188 273.996094 339.199219 276.503906 337.714844 278.980469 C 336.234375 281.453125 334.691406 283.886719 333.089844 286.285156 C 331.488281 288.683594 329.828125 291.039062 328.109375 293.355469 C 326.390625 295.671875 324.617188 297.945312 322.789062 300.171875 C 320.960938 302.402344 319.078125 304.585938 317.140625 306.722656 C 315.203125 308.859375 313.214844 310.945312 311.175781 312.984375 C 309.136719 315.023438 307.050781 317.011719 304.914062 318.949219 C 302.777344 320.882812 300.59375 322.765625 298.367188 324.597656 C 296.136719 326.425781 293.863281 328.199219 291.546875 329.917969 C 289.234375 331.632812 286.875 333.292969 284.476562 334.894531 C 282.082031 336.5 279.644531 338.039062 277.171875 339.523438 C 274.699219 341.003906 272.191406 342.425781 269.648438 343.785156 C 267.105469 345.144531 264.53125 346.441406 261.921875 347.671875 C 259.316406 348.90625 256.679688 350.074219 254.015625 351.179688 C 251.351562 352.28125 248.664062 353.320312 245.949219 354.289062 C 243.234375 355.261719 240.496094 356.167969 237.738281 357.003906 C 234.976562 357.839844 232.199219 358.609375 229.402344 359.308594 C 226.605469 360.011719 223.792969 360.640625 220.964844 361.203125 C 218.136719 361.765625 215.296875 362.261719 212.445312 362.683594 C 209.59375 363.105469 206.730469 363.457031 203.859375 363.742188 C 200.992188 364.023438 198.117188 364.234375 195.238281 364.378906 C 192.355469 364.519531 189.476562 364.589844 186.589844 364.589844 C 183.707031 364.589844 180.828125 364.519531 177.945312 364.378906 C 175.066406 364.234375 172.191406 364.023438 169.320312 363.742188 C 166.453125 363.457031 163.589844 363.105469 160.738281 362.683594 C 157.886719 362.261719 155.046875 361.765625 152.21875 361.203125 C 149.390625 360.640625 146.578125 360.011719 143.78125 359.308594 C 140.984375 358.609375 138.207031 357.839844 135.445312 357.003906 C 132.6875 356.167969 129.949219 355.261719 127.234375 354.289062 C 124.519531 353.320312 121.828125 352.28125 119.164062 351.179688 C 116.5 350.074219 113.867188 348.90625 111.261719 347.671875 C 108.652344 346.441406 106.078125 345.144531 103.535156 343.785156 C 100.992188 342.425781 98.484375 341.003906 96.011719 339.523438 C 93.539062 338.039062 91.101562 336.5 88.703125 334.894531 C 86.308594 333.292969 83.949219 331.632812 81.632812 329.917969 C 79.316406 328.199219 77.046875 326.425781 74.816406 324.597656 C 72.585938 322.765625 70.40625 320.882812 68.269531 318.949219 C 66.132812 317.011719 64.042969 315.023438 62.003906 312.984375 C 59.964844 310.945312 57.980469 308.859375 56.042969 306.722656 C 54.105469 304.585938 52.222656 302.402344 50.394531 300.171875 C 48.5625 297.945312 46.789062 295.671875 45.074219 293.355469 C 43.355469 291.039062 41.695312 288.683594 40.09375 286.285156 C 38.492188 283.886719 36.949219 281.453125 35.46875 278.980469 C 33.984375 276.503906 32.5625 273.996094 31.203125 271.453125 C 29.84375 268.910156 28.550781 266.335938 27.316406 263.730469 C 26.082031 261.125 24.914062 258.488281 23.8125 255.824219 C 22.707031 253.160156 21.671875 250.46875 20.699219 247.753906 C 19.726562 245.039062 18.824219 242.304688 17.988281 239.542969 C 17.148438 236.785156 16.382812 234.007812 15.679688 231.210938 C 14.980469 228.414062 14.347656 225.601562 13.785156 222.773438 C 13.222656 219.945312 12.730469 217.105469 12.308594 214.25 C 11.882812 211.398438 11.53125 208.539062 11.25 205.667969 C 10.964844 202.796875 10.753906 199.925781 10.613281 197.042969 C 10.472656 194.164062 10.398438 191.28125 10.398438 188.398438 C 10.398438 185.515625 10.472656 182.632812 10.613281 179.753906 C 10.753906 176.875 10.964844 174 11.25 171.128906 C 11.53125 168.257812 11.882812 165.398438 12.308594 162.546875 C 12.730469 159.695312 13.222656 156.851562 13.785156 154.023438 C 14.347656 151.195312 14.980469 148.382812 15.679688 145.585938 C 16.382812 142.789062 17.148438 140.011719 17.988281 137.253906 C 18.824219 134.492188 19.726562 131.757812 20.699219 129.042969 C 21.671875 126.328125 22.707031 123.636719 23.8125 120.972656 C 24.914062 118.308594 26.082031 115.671875 27.316406 113.066406 C 28.550781 110.460938 29.84375 107.886719 31.203125 105.34375 C 32.5625 102.800781 33.984375 100.292969 35.46875 97.816406 C 36.949219 95.34375 38.492188 92.910156 40.09375 90.511719 C 41.695312 88.113281 43.355469 85.757812 45.074219 83.441406 C 46.789062 81.125 48.5625 78.851562 50.394531 76.625 C 52.222656 74.394531 54.105469 72.210938 56.042969 70.074219 C 57.980469 67.9375 59.964844 65.851562 62.003906 63.8125 C 64.042969 61.773438 66.132812 59.785156 68.269531 57.847656 C 70.40625 55.914062 72.585938 54.03125 74.816406 52.199219 C 77.046875 50.371094 79.316406 48.597656 81.632812 46.878906 C 83.949219 45.164062 86.308594 43.503906 88.703125 41.902344 C 91.101562 40.296875 93.539062 38.757812 96.011719 37.273438 C 98.484375 35.792969 100.992188 34.371094 103.535156 33.011719 C 106.078125 31.652344 108.652344 30.355469 111.261719 29.125 C 113.867188 27.890625 116.5 26.722656 119.164062 25.617188 C 121.828125 24.515625 124.519531 23.476562 127.234375 22.507812 C 129.949219 21.535156 132.6875 20.632812 135.445312 19.792969 C 138.207031 18.957031 140.984375 18.1875 143.78125 17.488281 C 146.578125 16.785156 149.390625 16.15625 152.21875 15.59375 C 155.046875 15.03125 157.886719 14.539062 160.738281 14.113281 C 163.589844 13.691406 166.453125 13.339844 169.320312 13.054688 C 172.191406 12.773438 175.066406 12.5625 177.945312 12.417969 C 180.828125 12.277344 183.707031 12.207031 186.589844 12.207031 Z M 186.589844 12.207031 "
              fill-opacity="1" fill-rule="nonzero"/>
    </g>
    <path fill="#ffffff"
          d="M 250.597656 188.398438 C 250.597656 194.179688 248.410156 199.980469 244.003906 204.375 L 178.117188 270.261719 C 172.820312 275.554688 164.238281 275.554688 158.941406 270.261719 C 153.648438 264.964844 153.648438 256.382812 158.941406 251.085938 L 221.648438 188.378906 L 158.941406 125.675781 C 153.648438 120.378906 153.648438 111.796875 158.941406 106.5 C 164.238281 101.207031 172.820312 101.207031 178.117188 106.5 L 244.003906 172.386719 C 248.410156 176.777344 250.597656 182.5625 250.597656 188.363281 Z M 250.597656 188.398438 "
          fill-opacity="1" fill-rule="nonzero"/>
    <g clip-path="url(#b9f9631adc)"/>
</svg>